<?xml version="1.0" encoding="UTF-8"?>
<svg width="179px" height="32px" viewBox="0 0 179 32" version="1.1" xmlns="http://www.w3.org/2000/svg" xmlns:xlink="http://www.w3.org/1999/xlink">
    <!-- Generator: Sketch 53 (72520) - https://sketchapp.com -->
    <title>logo@1x</title>
    <desc>Created with Sketch.</desc>
    <g id="Page-1" stroke="none" stroke-width="1" fill="none" fill-rule="evenodd" opacity="0.301269531">
        <g id="ambassador-1-1" transform="translate(-98.000000, -728.000000)" fill="#009FFB">
            <g id="logo" transform="translate(98.000000, 726.000000)">
                <g id="Group" transform="translate(53.000000, 0.000000)" font-family="OpenSans-ExtraBold, Open Sans" font-size="25" font-weight="600">
                    <text id="IQDONATE">
                        <tspan x="0.0112304688" y="27">IQ</tspan>
                        <tspan x="28.6367188" y="27" font-family="OpenSans-Regular, Open Sans" font-weight="normal">DONATE</tspan>
                    </text>
                </g>
                <g id="un-1" transform="translate(0.000000, 2.000000)" fill-rule="nonzero">
                    <path d="M24.3092911,1.61429091 C24.4036834,1.67987893 24.4622944,1.82871329 24.4680018,1.94888155 C24.4684408,1.9715851 24.4796362,1.98603281 24.4517576,1.98603281 C24.3419992,2.05116217 24.0801156,2.14404031 23.9510397,2.15298413 C23.9160927,2.1472246 23.8811885,2.14118543 23.8463302,2.13486716 L23.8463302,2.15367212 L23.7932071,2.22751598 L23.6645702,2.31810083 C23.608813,2.37199309 23.4013696,2.70062118 23.4013696,2.76735584 L23.3658079,2.76735584 C23.345219,2.53212959 23.3245112,2.29691471 23.3036846,2.06171129 C23.3010504,2.03831976 23.2788792,2.00460844 23.3126848,2.00460844 C23.4053209,1.94773491 23.7040833,1.9030158 23.7040833,1.76289594 C23.7589625,1.77367439 23.831403,1.82091611 23.8906726,1.80532175 C23.9181122,1.79729525 23.9176731,1.76289594 23.9532349,1.76289594 C24.0265535,1.71817683 24.2186307,1.63263721 24.3095107,1.63263721 L24.3092911,1.61429091 L24.3092911,1.61429091 Z M25.9058819,2.30612987 L25.9452701,2.30612987 C25.9785799,2.43252778 26.1271367,2.6309725 26.117168,2.75458966 C26.1062269,2.88553789 25.8071682,3.1390921 25.8071682,3.22858182 C25.7449251,3.19597116 25.1764706,2.56499279 25.1764706,2.53137095 C25.3464234,2.48207576 25.5168625,2.43278058 25.6870585,2.3829798 C25.7563526,2.36300893 25.8271055,2.32660633 25.9058819,2.32660633 L25.9058819,2.30612987 L25.9058819,2.30612987 Z M25.9765928,4.73032424 C25.9683575,4.71787114 26.0161222,4.71925482 26.0243575,4.73332221 L25.9765928,4.73032424 Z M24.3437647,7.00556132 C24.3437647,7.0300063 24.3491765,7.02447159 24.3244706,7.02447159 C24.3378824,7.03784714 24.3437647,7.03853898 24.3437647,7.06183089 L24.3625882,7.06183089 L24.3625882,7.04292062 L24.3814118,7.04292062 C24.3687461,7.03058096 24.3561965,7.01812733 24.3437647,7.00556132 L24.3437647,7.00556132 Z M23.2813276,8.07145455 C23.4579171,8.08583822 23.6219458,8.14384711 23.779571,8.1871562 C23.8537041,8.20391081 23.9273446,8.2211396 24,8.23805228 L24,8.25085533 L23.9802968,8.25085533 L23.9802968,8.26365838 C23.6881977,8.33020263 23.4877181,8.04695488 23.1769009,8.23473297 C23.1505479,8.25038114 23.0810943,8.28041299 23.0810943,8.30206753 L23.0613912,8.30206753 C23.0613912,8.28404842 23.0483379,8.27646143 23.0810943,8.27646143 C23.148085,8.20802043 23.2150758,8.13989555 23.2813276,8.07145455 Z M22.6865882,8.39869438 L22.6865882,8.43605368 C22.7058824,8.42613732 22.7251765,8.42659855 22.7251765,8.39869438 L22.6865882,8.39869438 Z M27.6066673,8.9939065 C27.6511823,9.10619732 27.790052,9.95009473 27.7606593,10.0606693 C27.7476669,10.1084787 27.6837698,10.1469714 27.6411717,10.1469714 C27.6166778,9.94813331 27.591758,9.75003073 27.5661991,9.55094743 C27.5500119,9.43816626 27.5159334,9.29449285 27.5351025,9.17509191 C27.5587445,9.11502367 27.5830254,9.05471026 27.6066673,8.9939065 L27.6066673,8.9939065 Z M24.3242353,9.32114632 C24.3411765,9.34213211 24.3477647,9.35850563 24.3816471,9.35850563 C24.3628235,9.34628314 24.3435294,9.33406065 24.3242353,9.32114632 Z M19.1667471,9.99430563 C19.1733354,10.0194424 19.1799236,10.0445793 19.185806,10.0690242 C19.1879379,10.0427473 19.1812449,10.0165078 19.1667471,9.99430563 Z M16.3530588,13.2414518 C16.3530588,13.2661274 16.3589412,13.2603621 16.3337647,13.2603621 L16.3337647,13.2790417 C16.3492941,13.26336 16.3464706,13.2603621 16.3721176,13.2603621 L16.3530588,13.2414518 Z M12.5819438,13.9334061 L12.5819438,13.9520857 C12.5621791,13.9562368 12.5932379,13.9707654 12.6010026,13.9707654 C12.5944149,13.9584287 12.5880609,13.9459734 12.5819438,13.9334061 Z M12.5800388,14.1453394 C12.5800388,14.1723211 12.5668623,14.220058 12.5990976,14.220058 L12.5800388,14.1453394 Z M12.1096843,14.1078648 C12.1096843,14.1417649 12.0943902,14.2575326 12.1289784,14.2575326 C12.1221549,14.2079508 12.1162725,14.1581384 12.1096843,14.1078648 Z M19.4497647,15.5013358 L19.4497647,15.5197848 C19.3991765,15.5449217 19.3483529,15.5702891 19.2972941,15.5945035 L19.2972941,15.6129525 L19.3354118,15.6129525 C19.3641176,15.6214852 19.4881176,15.6498506 19.4881176,15.6129525 L19.5071765,15.6129525 C19.5071765,15.5832034 19.4923529,15.5197848 19.5262353,15.5197848 L19.4497647,15.5013358 L19.4497647,15.5013358 Z M19.6292153,15.5384725 C19.6292153,15.5640705 19.6160388,15.5942808 19.6482741,15.5942808 C19.6482741,15.569144 19.6419212,15.5753705 19.6675682,15.5753705 L19.6292153,15.5384725 L19.6292153,15.5384725 Z M23.6374118,17.1527634 C23.6374118,17.1769777 23.6437647,17.1712124 23.6185882,17.1712124 C23.6350588,17.1924288 23.6421176,17.2085717 23.6755294,17.2085717 C23.6633408,17.1896345 23.6506303,17.1710249 23.6374118,17.1527634 L23.6374118,17.1527634 Z M23.1668235,17.6137587 C23.1668235,17.6379731 23.1731765,17.6322078 23.148,17.6322078 C23.1614118,17.6458139 23.1668235,17.6465058 23.1668235,17.6700283 L23.1861176,17.6700283 L23.1861176,17.651118 L23.2049412,17.651118 L23.1668235,17.6137587 L23.1668235,17.6137587 Z M13.7169412,18.5083065 C13.7312941,18.5433597 13.7592941,18.6203844 13.8124706,18.6203844 L13.8124706,18.6014741 C13.7778824,18.5696496 13.7564706,18.5334433 13.7169412,18.5083065 L13.7169412,18.5083065 Z M26.1568262,19.6021039 C26.217255,19.6379811 26.2351671,19.7272365 26.259378,19.7935218 C26.2932338,19.8849649 26.3477575,19.9956591 26.3528753,20.0993529 C26.3564183,20.1853269 26.2160739,20.696358 26.1741478,20.7602369 C26.1337963,20.8203968 25.9158983,20.9857818 25.8535011,20.9857818 C25.8046857,20.9135899 25.6606014,20.7805818 25.6485944,20.6974518 C25.6304854,20.5747256 25.7777191,20.2544561 25.8180706,20.1326049 C25.8438562,20.0523188 25.8576347,19.9565005 25.9027103,19.8869337 C25.9712094,19.7786459 26.0725801,19.6952971 26.1568262,19.6021039 Z M11.4113207,19.9012089 C11.4030854,19.9247315 11.3743795,19.9763888 11.4113207,19.9763888 L11.4113207,19.9948378 L11.4306148,19.9948378 L11.4306148,19.9012089 L11.4113207,19.9012089 L11.4113207,19.9012089 Z M12.3434118,20.8517957 C12.3547059,20.8640182 12.3624706,20.8702447 12.3624706,20.889155 C12.3558824,20.8769325 12.35,20.8649406 12.3434118,20.8517957 Z M10.2161176,22.4660866 L10.2161176,22.4849969 L10.2354118,22.4849969 L10.2354118,22.5034459 C10.2507059,22.4877642 10.2544706,22.4907622 10.2544706,22.4660866 L10.2161176,22.4660866 L10.2161176,22.4660866 Z M10.2199283,22.4660866 C10.2199283,22.4907622 10.2133401,22.4849969 10.2392224,22.4849969 L10.2392224,22.5034459 C10.2523989,22.4898397 10.2582813,22.4849969 10.2392224,22.4849969 L10.2199283,22.4660866 Z M5.03976471,24.9936049 C5.04635294,25.0178193 5.044,25.0494133 5.07788235,25.0494133 C5.06541176,25.0309642 5.05294118,25.012054 5.03976471,24.9936049 Z M22.4611852,25.8879221 C22.4616558,25.9172099 22.4548323,26 22.4804793,26 L22.4804793,25.981551 C22.4734205,25.9504182 22.4675382,25.9195161 22.4611852,25.8879221 L22.4611852,25.8879221 Z M32.9484623,1.87920996 C33.2468748,2.30994166 33.5618529,2.73461934 33.9221566,3.13283875 C34.1697216,3.40683882 34.3701204,3.7364461 34.6473656,3.99026613 L35.315515,4.57503878 C35.5244267,4.74813866 35.790398,4.87572135 35.9815937,5.07348572 L36,5.07348572 C36,4.78603229 35.8562006,4.44297165 35.7779738,4.18130382 C35.705729,3.94676694 35.6327939,3.71178161 35.560089,3.47724473 C35.4482706,3.26871767 35.3353018,3.05951795 35.2234834,2.85099089 L34.9986962,2.44469946 C34.887338,2.28438027 34.721451,2.15948826 34.5884654,2.01217399 C34.3853056,1.78772712 34.1768541,1.54848156 33.9405629,1.35228675 C33.6403098,1.14174169 33.3393665,0.930075518 33.0391134,0.71885779 L32.6949153,0.475576223 L32.1606718,0.191486136 C32.0343585,0.123322453 31.9071248,0.0325122831 31.7647059,0 C31.9588926,0.351132657 32.1358233,0.709216216 32.3520976,1.04846507 C32.5511159,1.32582848 32.749444,1.60274344 32.9484623,1.87920996 L32.9484623,1.87920996 Z M4.11506592,4.79747219 C4.27214009,4.73061396 4.42679432,4.65840645 4.5787474,4.58098098 C5.93356317,3.8805156 7.02839831,2.65850319 7.68848934,1.32981072 C7.85669441,0.988503296 8.01152027,0.640997902 8.15262653,0.288058561 C8.18452599,0.207545298 8.25151486,0.0975105066 8.23169163,0 L7.81084657,0.18987711 C7.46154745,0.361191441 7.11840037,0.551068551 6.79348155,0.766888824 C5.74877413,1.45952653 4.79133454,2.45028695 4.30851338,3.57098683 C4.13921837,3.96259439 4,4.36627894 4,4.84287273 C4.04397569,4.84287273 4.07815368,4.8129039 4.11506592,4.79747219 L4.11506592,4.79747219 Z" id="Shape"></path>
                    <path d="M35.5670138,4.01250391 C35.6332934,4.29290403 35.698698,4.57283526 35.7638839,4.85323539 C35.8015079,5.27758675 35.8386945,5.70193811 35.875881,6.12605502 C35.8848496,6.33635511 35.8951305,6.55509534 35.9314421,6.75343857 L35.9135051,6.75343857 L35.9135051,6.77266333 L35.8246948,6.77266333 L35.8246948,6.75343857 L35.8071953,6.75343857 C35.8071953,6.72507033 35.8238198,6.7161613 35.8426319,6.69646765 L35.8246948,6.69646765 C35.6547304,6.55040638 35.5363896,6.33987183 35.3876434,6.1759925 C35.2594591,6.0536105 35.1312749,5.93052516 35.0035281,5.80814317 C34.4396049,5.24077837 33.8144332,4.73648015 33.2155108,4.24507659 L32.8152084,3.92950922 C32.7425853,3.87605502 32.6695246,3.82189747 32.5960265,3.76844326 C32.596464,3.78626133 32.5982139,3.83643326 32.606745,3.8580025 C32.6314631,3.91145671 32.6568375,3.96444201 32.6815556,4.01719287 L32.9258931,4.5400125 L33.5974387,5.39692091 C33.999491,5.86933417 34.3947622,6.3440919 34.8086268,6.81650516 L35.3375509,7.42771178 C35.6235059,7.6984628 35.9096237,7.96901616 36.1959042,8.23937168 C36.3560251,8.3856674 36.580457,8.55189122 36.7119224,8.73077524 L36.7294219,8.73077524 L36.7294219,8.75 L36.747359,8.75 L36.8302631,8.23468271 C36.8589187,8.06470772 36.8871367,7.89473273 36.9153547,7.72499219 C36.9499164,7.54493592 36.9914778,7.36323851 36.9943215,7.17122538 C37.0046025,6.479603 37.0161959,5.77602376 36.8799181,5.15872148 C36.8291694,4.92825883 36.7440778,4.71186308 36.6821731,4.48866833 C36.4570851,3.68099406 36.1105938,2.80064083 35.4760161,2.25672085 C35.3393009,2.13973117 35.2183352,2.03680838 35.0439958,2 L35.3487069,2.96850578 C35.4217675,3.31666146 35.4943907,3.66411379 35.5670138,4.01250391 L35.5670138,4.01250391 Z M2.25463073,9 C2.3418802,9 3.0583282,8.29817305 3.18521581,8.18602181 C3.37406649,8.01203455 3.56223376,7.83757707 3.75108444,7.66358982 C4.01214943,7.37415967 4.27298662,7.08378906 4.53405161,6.79365356 C5.0224664,6.27286739 5.48422796,5.74314675 5.90111185,5.19085478 C6.01729261,5.03591208 6.68339561,4.0907381 6.63305062,3.96636072 C6.63305062,3.97270891 5.82479704,4.58777735 5.7302578,4.65619666 C5.47147086,4.84099934 5.23660348,5.05683758 4.98191704,5.25386638 C4.70811461,5.46436696 4.44758497,5.69265865 4.20191133,5.93735414 C4.03515778,6.08924031 3.867493,6.24112648 3.70005603,6.39324776 C3.50710485,6.59168728 3.36746013,6.83597478 3.15970161,7.01701557 L3.15970161,7.03629524 L3.14124937,7.03629524 L3.14124937,7.01701557 C3.11414052,7.01701557 3.12849226,6.95376885 3.12621421,6.92108746 L3.12780885,6.50046153 C3.11163466,6.31095649 3.10411709,6.07090111 3.13282057,5.88891985 C3.15879038,5.62394197 3.18430459,5.35872897 3.20981879,5.09351597 C3.24831791,4.84617193 3.3282776,4.60117907 3.38932945,4.3625344 C3.49343652,3.95248877 3.5979992,3.55419903 3.73878294,3.16766519 C3.78434403,3.04140688 4.0654559,2.33699363 4.00941577,2.25 C3.84835734,2.38754398 3.68502087,2.5283796 3.53375808,2.6950782 C3.44263592,2.79453307 3.37110502,2.91373785 3.29638485,3.02400815 C2.97950753,3.48930649 2.68427172,3.94026264 2.46512293,4.45634644 C2.38607445,4.6500836 2.30634256,4.84358564 2.22729408,5.03755791 C2.13184362,5.37659793 2.09380012,5.75090564 2.06623566,6.12027587 C2.03548193,6.52138702 1.9837701,6.97398899 2.00495601,7.39720123 C2.03229266,7.95795743 2.20496915,8.4589937 2.25463073,9 L2.25463073,9 Z" id="Shape"></path>
                    <path d="M1.566727,11.521141 C1.66688325,11.8344066 1.77547838,12.1384649 1.89206825,12.4444962 C1.96068972,12.6262297 2.04174743,12.8062094 2.07994449,13 L2.09793265,13 L2.21940818,12.7667498 C2.39507025,12.3817992 2.62802791,12.0172362 2.86320632,11.6601266 C3.11770535,11.2705724 3.37153814,10.8805798 3.62603717,10.4910257 C3.81013812,10.1560573 3.994017,9.82043132 4.17811795,9.48502453 L4.55631327,8.78176637 C4.59184542,8.68947469 4.62671134,8.59674458 4.66157726,8.50445291 L5.16635587,7.11284356 C5.17146362,7.0828104 5.17501683,7.05058504 5.15969359,7.02647083 L5.15969359,7.04444688 C5.06797623,7.12555833 4.97559264,7.20623133 4.88343112,7.28668512 C4.70044055,7.44561971 4.51922659,7.60323898 4.36510589,7.78891842 C3.8527767,8.40229633 3.26871699,8.98520264 2.79080957,9.61524128 C2.67821707,9.76233798 2.57006609,9.90702326 2.4610268,10.0512701 C2.37952493,10.1580303 2.27426094,10.2647905 2.22407178,10.3868961 L2.18809548,10.3868961 L2.18809548,10.3691393 C2.1638892,10.3691393 2.17232808,10.2753131 2.17232808,10.2441838 C2.16610996,9.85462966 2.19586813,9.47187132 2.16544373,9.08911298 C2.13390895,8.70306634 2.09970925,8.30912778 2.04996424,7.9325076 L2.03641761,7.6852273 C1.98556222,7.34631299 1.94247949,7.01112542 1.93115362,6.65182364 C1.93293022,6.24955471 1.9340406,5.84662812 1.93515098,5.44457841 C1.93515098,5.30405831 1.95869103,5.12232483 1.91760698,5 C1.63668092,5.40226893 1.38906625,5.82514455 1.2584856,6.30019456 C1.19985756,6.58452306 1.14078536,6.86863234 1.08237938,7.1525224 L1.04862384,7.61310388 C1.03352268,7.76765407 1.01775529,7.92132738 1.0019879,8.07587757 C0.990662023,8.29970131 1.03063569,8.51979832 1.04862384,8.73375716 C1.12901533,9.71608254 1.28402434,10.6422876 1.566727,11.521141 L1.566727,11.521141 Z M36.7816213,8.98216849 C36.695004,8.8780147 36.6090512,8.77363978 36.5219908,8.669486 C36.3589464,8.46781243 36.1952374,8.26547546 36.032193,8.06313849 L35.5665417,7.61313222 C35.3966936,7.44085953 35.2175822,7.27793838 35.0300016,7.12509102 C34.965537,7.0717979 34.9136995,7.01297644 34.8430322,6.97317245 L34.8430322,6.95503951 C34.8044863,6.95503951 34.858096,7.08484476 34.8680648,7.11292869 L35.3724834,8.52906635 C35.4987542,8.85590137 35.6753118,9.145586 35.8376917,9.45318242 C36.2207131,10.1796053 36.6394005,10.8794922 37.0607463,11.5873399 C37.2536969,11.9106368 37.4643698,12.229511 37.6539975,12.5559038 C37.7293169,12.6976502 37.8037503,12.8389544 37.8790697,12.9804797 C37.8790697,13.007458 37.8899245,12.9986126 37.9149572,12.9986126 C37.9231537,12.9621256 37.9300211,12.9256386 37.9379961,12.8893728 C37.9466356,12.8046787 37.9406544,12.7195424 37.933344,12.6399344 L37.9510662,12.6399344 C37.9636933,12.675758 37.9752127,12.7118027 37.9869537,12.7476263 L38.005119,12.7476263 L38.005119,12.7294934 C38.0283794,12.7294934 38.0467662,12.6129562 38.0560703,12.5848722 C38.137371,12.3630755 38.2182286,12.1403943 38.2993078,11.9179342 C38.4056411,11.6202888 38.4876064,11.3020779 38.5615966,10.9893955 C38.624289,10.7377458 38.6865383,10.4856538 38.7490091,10.2340041 C38.7789153,10.0321094 38.8079355,9.82999356 38.8376202,9.62765659 C38.8956604,9.27229538 38.9410736,8.91361716 38.9587958,8.53304675 C38.9729736,8.35989938 38.9864868,8.1860886 39,8.01294123 L38.9142688,7.02757124 C38.8825903,6.89533352 38.8511334,6.76243241 38.819898,6.6301947 C38.792207,6.50569665 38.764073,6.38075633 38.7368251,6.25647942 C38.6810001,6.09460984 38.592389,5.94313353 38.529032,5.78723455 C38.4523835,5.60059805 38.3577911,5.42413367 38.2576606,5.24988063 L38.0946162,5 L38.0946162,6.18372656 C38.0946162,6.45616279 38.1072432,6.73567528 38.0700266,6.98953631 L37.9269197,8.06557095 C37.8620121,8.46139956 37.7725149,8.86364104 37.7399503,9.26831498 C37.7390642,9.61527313 37.7372919,9.96156788 37.7355197,10.308526 L37.6996322,10.308526 C37.6996322,10.2826534 37.3708851,9.85785636 37.3292379,9.80080397 C37.146256,9.52814661 36.9641602,9.25526811 36.7816213,8.98216849 L36.7816213,8.98216849 Z" id="Shape"></path>
                    <path d="M0.114097629,13.0124527 C0.167995176,13.2100781 0.221458065,13.4077036 0.275572941,13.605329 C0.353159329,13.9236662 0.461171751,14.2214931 0.560273692,14.522952 C0.601566167,14.649646 0.634817476,14.7810402 0.694148244,14.8998291 C0.771299974,15.055152 0.866489996,15.2023562 0.949074947,15.3551154 C1.08838272,15.6134172 1.22334391,15.8712917 1.39633765,16.1133561 L2.04397753,17 C2.08874727,17 2.11287077,16.9649615 2.1304744,16.9299231 L2.71661022,15.6493102 L2.89829711,15.2442315 C3.10497682,14.7077585 3.31078721,14.1706446 3.51681493,13.6333171 C3.58136159,13.4282139 3.64525626,13.2228971 3.70915093,13.0177939 C3.80281965,12.7263765 3.89583639,12.4345318 3.98950511,12.143328 L4.05557307,11.5075082 C4.06817814,11.3457759 4.10794931,11.0342754 4.05339978,10.8838664 C4.05339978,10.9325784 3.9064855,11.1096936 3.87345152,11.1584056 C3.67377581,11.451567 3.48614265,11.7524844 3.31100454,12.0604322 C3.20299212,12.2463069 3.12258045,12.4385911 3.02130522,12.6285252 C2.68814015,13.2500305 2.43125748,13.8777317 2.24891861,14.5729459 C2.20110627,14.754334 2.12677981,14.9359358 2.1146094,15.1290746 L2.09700576,15.1290746 L2.09700576,15.1461665 L2.06179849,15.1461665 C1.93118387,14.7889452 1.8001346,14.4310829 1.66973731,14.0736479 L1.50217679,13.4980772 C1.36569429,13.1487608 1.21682405,12.8158955 1.09620656,12.4591015 C1.01470825,12.2104139 0.932775286,11.9615126 0.850624992,11.7128251 L0.609390005,11.1393908 L0.476602097,10.7960566 L0.327297199,10.4978025 C0.262750541,10.3337199 0.198421211,10.1388719 0.0875835135,10 C0.059548096,10.3871322 0.0308606921,10.7738371 0.00282527463,11.1609694 C0.00239061699,11.4380723 0.00108664409,11.7149615 0,11.9920645 C0.00282527463,12.1713161 0.0358592549,12.3413808 0.0497682993,12.5125137 C0.0628080283,12.6806556 0.0732398116,12.8571298 0.114097629,13.0124527 L0.114097629,13.0124527 Z M37.5393473,13.4142761 C37.4084445,13.8259571 37.2886098,14.2389326 37.1428075,14.6402567 C37.0974704,14.7636747 37.0617116,14.93564 36.9797643,15.0394232 L36.9797643,15.057116 L36.9457083,15.057116 C36.896327,14.8696157 36.8475843,14.6812522 36.7982031,14.4933203 C36.6626176,14.0197146 36.5317147,13.557113 36.3322742,13.1184614 C36.2100982,12.8718412 36.0870708,12.6247895 35.9640434,12.3779536 C35.8173897,12.0678983 35.6669046,11.7489966 35.4855563,11.4581445 C35.3403925,11.2257648 35.1030646,11.0479739 34.9779087,10.8045902 L34.9608807,10.8045902 L34.9608807,10.7871132 C34.9304432,10.7871132 34.9347002,10.8140839 34.9312946,10.8401916 C34.8851061,11.2020306 34.9749288,11.5291314 35.0415509,11.8381078 C35.0847595,12.0238821 35.1271167,12.2098721 35.1701124,12.3958621 L35.4881105,13.6186062 C35.5634595,13.8132269 35.6377442,14.007416 35.7122417,14.2022524 C35.9208348,14.7768364 36.1441146,15.3427898 36.3844224,15.9007598 C36.4776508,16.1102683 36.5702406,16.319561 36.6636818,16.5290695 C36.7203,16.6775163 36.7784081,16.8576806 36.8769577,16.9821774 C36.8769577,17.0048328 36.870785,16.9994387 36.8939857,16.9994387 C37.15345,16.6324213 37.4124886,16.2649723 37.6717401,15.8975234 C37.7183543,15.8161797 37.764117,15.733973 37.809667,15.6526293 C38.23707,14.9231255 38.6053008,14.1301867 38.8132554,13.2902109 C38.8490142,13.143706 38.9047809,13.0030267 38.9262788,12.8511277 C39.0052462,12.2994149 38.9999249,11.7060592 38.9999249,11.1200397 C38.9999249,10.8492537 38.9762986,10.5918453 38.9520337,10.3320634 C38.9407526,10.2187864 38.9565035,10.0962315 38.9132949,10 C38.8526326,10.1324801 38.791119,10.2640972 38.730031,10.3963616 C38.4967472,10.8809713 38.3462622,11.3992404 38.1429903,11.902406 C38.0278384,12.2025361 37.911835,12.5020188 37.7962574,12.8017174 C37.7109045,13.0062632 37.6253388,13.2103776 37.5393473,13.4142761 L37.5393473,13.4142761 Z" id="Shape"></path>
                    <path d="M39.9803347,14.6485897 C39.9803347,14.7191202 39.8194872,14.9217439 39.7769992,14.9888811 L39.092422,16.051686 C38.6859679,16.6808859 38.3532174,17.3709213 37.9157643,17.9836398 C37.4614028,18.6024177 37.0063909,19.220226 36.5520293,19.837792 L36.5346873,19.837792 L36.5346873,19.8576666 L36.5169117,19.8576666 L36.5169117,19.837792 L36.4995697,19.837792 C36.5054226,19.766292 36.5110588,19.6938225 36.5164782,19.6218378 C36.5227646,19.3140243 36.5288344,19.0054837 36.5355544,18.6979126 C36.5405402,18.5999939 36.5448758,18.5013482 36.5498616,18.4029448 C36.5294787,17.7161375 36.4614964,17.032131 36.3465261,16.3570758 C36.3239815,16.194686 36.3007865,16.0327809 36.2780251,15.8703911 C36.1839445,15.5540946 36.0892135,15.2380404 35.9946994,14.9217439 C35.9476591,14.7256643 35.8997517,14.5290999 35.8520611,14.3325355 C35.8284326,14.2244372 35.8130415,14.0916169 35.7605818,14 C35.755596,14.192444 35.7081221,14.3533796 35.6788574,14.5322507 C35.6140415,14.9450117 35.5483586,15.3572878 35.4837594,15.7700488 C35.4516767,16.0475657 35.446474,16.333808 35.4427889,16.6333808 L35.4033357,17.8736026 C35.3961821,18.1302754 35.4273978,18.3837974 35.4553618,18.6201109 C35.4859272,18.8857515 35.494815,19.1470294 35.5255971,19.4058836 C35.5869446,19.9318326 35.5993008,20.4502681 35.6615154,20.9764595 C35.6948988,21.3182052 35.7280655,21.6589814 35.7605818,22 L35.7956995,22 C35.7987343,21.9910322 35.8015524,21.9810949 35.8041537,21.9711576 L36.4523126,21.3945527 C36.6961851,21.1701154 36.9400576,20.9451934 37.1839301,20.7209986 C37.3332884,20.5670918 37.48243,20.412458 37.6317884,20.2580665 L38.1741608,19.7061835 C38.3300224,19.4936226 38.4861008,19.2805768 38.6419624,19.0685006 C38.9480495,18.6523465 39.2122989,18.219711 39.4312422,17.7514467 C39.4765483,17.6227467 39.5218544,17.4940467 39.567594,17.3655891 C39.6235221,17.2136214 39.6790166,17.0611688 39.7345112,16.9087163 C39.7837192,16.747296 39.8153685,16.585391 39.8548216,16.4164571 C39.8869044,16.2749114 39.9200711,16.1503317 39.9387138,16.0032114 C39.9595242,15.8330657 40.0353957,14.7244524 39.9803347,14.6485897 L39.9803347,14.6485897 Z M1.93368625,19.7608684 C2.0960579,19.9430187 2.26671611,20.1076358 2.43087945,20.2858898 C2.59929804,20.4709623 2.76726872,20.6560348 2.93523939,20.8413508 C3.22370103,21.080971 3.51193871,21.3208347 3.80017639,21.5609419 C3.96993875,21.7026685 4.13007079,21.8534051 4.30722386,21.9785726 C4.30722386,22.0080381 4.31797399,21.9985409 4.34350553,21.9985409 C4.39680822,21.2015116 4.44966299,20.4042388 4.50229381,19.6076965 C4.58471142,18.5632545 4.59770115,17.4988442 4.59770115,16.3896268 C4.59770115,15.8042133 4.50229381,15.3093879 4.45503806,14.7697555 C4.43936079,14.5941801 4.41718866,14.1093389 4.34328157,14 C4.32961995,14.229636 4.23443657,14.437599 4.18650894,14.6535981 C4.09916419,15.0459031 3.96344388,15.4121518 3.87789082,15.7988559 C3.82391624,16.0409113 3.8075671,16.2924637 3.77330108,16.5459644 C3.68332711,17.2207162 3.62420337,17.899907 3.59614801,18.5810312 C3.5784551,18.8968721 3.56053822,19.2131999 3.54239739,19.5290407 C3.53724629,19.6374055 3.51619397,19.7365167 3.52582428,19.8458556 L3.50768345,19.8458556 L3.50768345,19.8853053 C3.48483944,19.8853053 3.48439152,19.880922 3.47140179,19.8653369 C3.39368735,19.8653369 2.75338314,18.7281152 2.6579758,18.5783526 L2.13637086,17.7394384 L1.22865734,16.4015591 C1.01410279,16.0616102 0.799100331,15.7214177 0.583873906,15.3814688 L0.0383051544,14.5924755 L0.0201643216,14.5924755 L0.0201643216,14.5729942 C-0.0149975397,14.5729942 0.00538290219,14.8094486 0.0107579638,14.8479242 L0.0611491662,15.7377333 C0.0965349883,16.1400225 0.172681694,16.6543292 0.31848024,16.9976874 L0.593728186,17.747231 C0.672786383,17.9388784 0.790813777,18.1044696 0.890700338,18.2866199 C0.961471983,18.4154401 1.03246759,18.5440167 1.10346319,18.6723499 L1.53996299,19.2392562 C1.67120407,19.4131269 1.80244516,19.5862671 1.93368625,19.7608684 L1.93368625,19.7608684 Z" id="Shape"></path>
                    <path d="M38.9975228,19.7250548 C38.9737818,19.7250548 38.9744475,19.731366 38.9633536,19.746092 L37.6562699,21.0408181 C37.1534943,21.5034039 36.650053,21.9652885 36.1472773,22.4283419 C35.6783321,22.801106 35.2089857,23.1733098 34.7392392,23.5449525 L33.9495752,24.2111322 C33.8213296,24.3142148 33.7077281,24.4502557 33.5626198,24.5210811 L33.5626198,24.5402484 L33.5271193,24.5402484 L33.5448696,24.4266472 C33.5215724,24.4329584 33.4971658,24.4390358 33.4729811,24.445347 L33.4729811,24.4266472 C33.6112111,24.4266472 33.9704317,23.2525347 34.0285637,23.0601607 L34.3644871,21.902878 L34.5595179,20.9017385 C34.606778,20.6712637 34.6518192,20.4337765 34.7041824,20.2004967 L34.7714115,19.8183199 C34.7809522,19.4845289 34.7481143,19.1404529 34.7336922,18.814843 C34.7259265,18.6395325 34.7059575,18.4674945 34.6990792,18.3027027 C34.6944198,18.2063988 34.7050699,18.0848503 34.6786664,18 C34.4645541,18.430095 34.2495543,18.8601899 34.0347763,19.2902849 C33.8033575,19.8984953 33.5710512,20.5055369 33.3387449,21.1128123 L33.1372796,21.9012418 C33.0108091,22.3706063 32.883673,22.8399708 32.7572025,23.308634 C32.7225895,23.4715559 32.687089,23.6337765 32.6518104,23.7971658 C32.5395401,24.246428 32.4967177,24.7076114 32.4230541,25.1837546 C32.3813411,25.4504602 32.3294216,25.7239445 32.3212121,26 C32.7427804,25.827962 33.1650144,25.6542878 33.5865827,25.4817823 C33.7929293,25.3983346 33.9994977,25.3141855 34.2058443,25.2298028 C34.4949514,25.0687509 34.7838366,24.9069978 35.0729438,24.7454785 C35.2697496,24.635851 35.4658898,24.5259898 35.6618081,24.4158948 C35.8160134,24.289905 35.9704405,24.1639153 36.124202,24.037458 C36.4665598,23.7667787 36.7933862,23.4965668 37.1131125,23.181008 C37.3289998,22.9545069 37.5437778,22.7277721 37.7596651,22.5008035 L38.2225027,21.6960117 C38.376708,21.4052301 38.5311351,21.1135135 38.6857841,20.8227319 C38.7616664,20.5651424 38.8371049,20.3068517 38.9123216,20.0487947 C38.9405001,19.9468809 39.0150511,19.8227611 38.9973009,19.706355 L38.9975228,19.7250548 L38.9975228,19.7250548 Z M4.78863725,24.6970096 C5.12319205,24.8905486 5.46244628,25.0993176 5.81512745,25.2645052 C6.0442807,25.3561198 6.27298639,25.446563 6.50146829,25.5381777 C6.71697081,25.6260434 6.93269712,25.7134405 7.14797586,25.8008377 C7.31760297,25.873942 7.49327221,25.962042 7.67878788,26 L7.59196028,25.2394341 C7.51990232,24.5730604 7.41785752,23.9406613 7.25494388,23.3218522 C7.17975297,23.0807486 7.10366693,22.8389421 7.02758089,22.5973699 C6.97075724,22.4082813 6.91369266,22.2192721 6.85638729,22.030343 C6.78768608,21.8391471 6.57106464,20.9389333 6.4605161,20.8616115 L6.42650117,20.8501303 C6.38219224,20.8501303 6.42941034,20.7892101 6.44462755,20.7742143 C6.36697503,20.5654453 6.28865116,20.3559734 6.21099864,20.1462672 C6.0187695,19.6099347 5.7992389,19.0846147 5.57858938,18.5670269 C5.49869904,18.3784085 5.41813735,18.1890871 5.33757566,18 L5.31944928,18 C5.32056819,18.405354 5.32123954,18.8104736 5.3216871,19.2155932 C5.35167395,19.8901678 5.44588637,20.5661483 5.54905009,21.2121372 C5.59738711,21.51791 5.61193297,21.8314149 5.68734766,22.1219576 L6.09015611,23.4687637 C6.22218777,23.8445948 6.40725587,24.1822335 6.48088031,24.5941481 L6.44462755,24.5941481 L6.44462755,24.5749348 C5.99523528,24.2030417 5.54610374,23.8308032 5.09723328,23.4582198 L3.84785574,22.4673286 C3.60460419,22.2541077 3.3606813,22.0404182 3.1167584,21.8271974 C2.87104525,21.6139765 2.60116359,21.4117682 2.3724579,21.1790997 L1.54155358,20.3205928 C1.37035999,20.1472044 1.21259335,19.9288287 1.01812638,19.7861348 L1.01812638,19.7673901 L1,19.7673901 C1.04587541,19.9321091 1.09130325,20.0972967 1.13717866,20.2624843 C1.17410276,20.4555546 1.17611681,20.6676039 1.24593694,20.8454442 C1.53170715,21.5757842 2.01149677,22.2051372 2.55551196,22.7930176 L3.07446352,23.409015 L3.7335029,23.95636 L4.30907141,24.430835 C4.46929966,24.5205752 4.62863278,24.6089096 4.78863725,24.6970096 L4.78863725,24.6970096 Z" id="Shape"></path>
                    <path d="M35.9727944,25.6897446 C35.9727944,25.7129954 35.977906,25.7052451 35.9550147,25.7118882 C35.7527711,25.7617114 35.5651957,25.8589219 35.3738421,25.9319959 L34.6033161,26.2300492 C33.7207783,26.5881117 32.8244613,26.9189376 31.8950296,27.1866541 C31.4087559,27.3077797 30.92226,27.4275768 30.4366531,27.5478167 C30.2933046,27.581475 29.9508239,27.6295267 29.8445904,27.7008292 C29.6921298,27.7008292 29.2169684,27.8724423 29.1236252,27.8084472 C29.1578511,27.8084472 30.0463895,26.9758467 30.1228421,26.8810719 C30.3159736,26.666943 30.5082162,26.4528141 30.7011255,26.2389066 L30.9342613,25.8921374 C31.0969451,25.6452359 31.2554064,25.4065275 31.3974214,25.1520972 C31.481208,25.0055064 31.5645502,24.8584726 31.6487813,24.7114389 L32.0337109,23.5021752 C32.0888279,23.3573558 32.3544115,22.1237341 32.2959609,22.0437956 L31.9968181,22.2847183 C31.7016758,22.5973864 31.4543163,22.9468129 31.1889549,23.2776388 C30.9718208,23.5471268 30.7535755,23.8225935 30.555999,24.1029319 L29.6556815,25.3013453 C29.4019531,25.6611785 29.1553607,26.0259548 28.9160477,26.3954621 C28.6135713,26.8591498 28.3144285,27.3153086 27.9788374,27.7621671 C27.8594915,27.9200511 27.7521468,28.0965359 27.6090205,28.2395837 L27.6090205,28.2572987 L27.5912409,28.2572987 L27.5912409,28.2754564 C27.8443788,28.3212937 28.0964054,28.3666882 28.3495433,28.4129684 L29.0896216,28.5323226 L29.645236,28.5668666 C29.8565917,28.5803742 30.0670584,28.5927747 30.2786363,28.6058394 L31.4654286,28.5219151 C31.6225563,28.4833851 31.7792396,28.4448552 31.9363673,28.4067682 L32.4906482,28.2661561 C32.7051153,28.1886534 32.9151375,28.0941001 33.1256042,28.0088471 C33.270064,27.9495022 33.4338591,27.8963575 33.5683177,27.8155332 C33.9992522,27.5551241 34.3835151,27.2296127 34.7897803,26.9184947 C35.1184818,26.6649501 35.4282923,26.3835045 35.6923203,26.0548931 C35.7887749,25.9337674 35.9094543,25.8334567 35.990574,25.707238 C36.0156878,25.7074595 35.9839067,25.6939519 35.9727944,25.6897446 Z M10.7728329,28.3263017 C11.3341187,28.2646701 11.8582243,28.1335668 12.4087591,28.0669262 C12.4087591,28.0486327 12.4013679,28.0427527 12.390617,28.0312104 L12.1820947,27.7724882 C12.0656267,27.6283181 11.9487109,27.4832769 11.8324669,27.3386712 C11.706368,27.1324339 11.5804931,26.9257611 11.4543942,26.7188704 L11.2013005,26.3055247 L10.473376,25.3581835 C9.977994,24.6704484 9.47144443,23.9903826 8.95391776,23.3182419 C8.77070477,23.079991 8.57136547,22.8554602 8.38456886,22.6198227 C8.21837811,22.4101009 8.02015869,22.1378764 7.75855384,22.0437956 C7.75855384,22.2347883 7.78968661,22.4253455 7.80850066,22.609587 C7.82261119,22.7550638 7.82552289,22.8957494 7.85687963,23.0316439 C7.91197791,23.2749037 8.02956571,23.5072746 8.11109325,23.7444366 C8.21681027,24.0443191 8.32185537,24.3433305 8.42690046,24.643213 C8.51559526,24.7976188 8.60339414,24.9524601 8.69186496,25.1068658 C8.79108666,25.2858806 8.88717268,25.4884157 9.03029383,25.6469592 C9.03029383,25.676795 9.06545818,25.6426036 9.08472018,25.6295368 L9.10286229,25.6295368 L9.10286229,25.6648171 C9.07217748,25.6648171 9.07284941,25.6929107 9.06657806,25.7175198 C9.08360029,25.7175198 9.19715651,25.8928324 9.21821032,25.9259349 C9.35841977,26.1509012 9.54745614,26.3499518 9.73201299,26.5533579 C9.90223532,26.7408662 10.0742495,26.9375212 10.271349,27.1063004 C10.4075269,27.227168 10.5437047,27.3478179 10.6798826,27.4691212 C10.7679055,27.5468685 10.8837014,27.6265758 10.9376798,27.7311101 C10.762306,27.7311101 10.5878281,27.6638162 10.4274608,27.6285359 C10.0424448,27.5429485 9.65653282,27.445601 9.28249165,27.3486891 C8.85290424,27.2245547 8.42309286,27.0993314 7.99328148,26.9756326 C7.6385023,26.8828585 7.30477695,26.7569819 6.95738901,26.6587633 C6.50495597,26.5307089 6.0673054,26.3856676 5.62853495,26.2364886 L4.18388491,25.7090264 C4.15252817,25.696613 4.02486142,25.6319324 4,25.6746172 C4,25.7294977 4.1695504,25.8897835 4.2109861,25.935735 C4.38524001,26.1275988 4.55322257,26.3288272 4.74897825,26.5074064 C4.95750061,26.6707412 5.16512705,26.8340759 5.37297748,26.9978461 C5.60143376,27.1655364 5.8265304,27.3079643 6.0643937,27.4562722 C6.21311427,27.5455618 6.36183483,27.6344159 6.51055539,27.7239233 C6.71258242,27.8247553 6.94081473,27.8752802 7.15538445,27.9519386 C8.22980092,28.333924 9.51587542,28.4637207 10.7728329,28.3263017 L10.7728329,28.3263017 Z M32.8494772,29.0698452 C32.8124837,29.0761781 32.7759414,29.0818558 32.7393991,29.0877519 L32.6117266,29.1052219 C32.5253333,29.1052219 32.4069091,29.1065322 32.3372081,29.1405987 C32.3006657,29.1469315 32.2641234,29.1526093 32.2275811,29.1585054 C32.161038,29.1585054 32.0805096,29.1517358 32.0261473,29.1759754 C31.9568973,29.1759754 31.862158,29.1665853 31.8066678,29.1938822 C31.7058381,29.1938822 31.4651551,29.1938822 31.38598,29.2292589 C31.3194369,29.2292589 31.2389085,29.222926 31.1845462,29.2471656 C30.7740091,29.2471656 30.3715925,29.1903882 29.9766197,29.1606892 L29.0077972,29.0827293 C28.651848,29.0438586 28.309433,28.9560719 27.9631833,28.8984209 C27.1389511,28.7606263 26.3296065,28.5900755 25.5119158,28.4562116 C25.1708542,28.4003077 24.7752047,28.397032 24.415872,28.397032 C24.2448901,28.397032 24.0387192,28.417996 23.8853317,28.379562 C23.6931462,28.4341558 23.3879502,28.3454956 23.2086222,28.4149388 C23.1499741,28.4149388 23.072378,28.4114448 23.0254595,28.4324088 C22.9668113,28.4324088 22.8901176,28.428478 22.8425224,28.4503155 C22.7667309,28.4503155 22.6640966,28.4387416 22.6045462,28.4682223 C22.5463492,28.4682223 22.4687531,28.4647283 22.421609,28.4856923 C22.363412,28.4856923 22.2853649,28.4821983 22.2386719,28.503599 C22.0083651,28.503599 21.7685844,28.5824324 21.5588044,28.6361526 C21.4408314,28.66607 21.2975945,28.6724028 21.1958625,28.7333294 C20.9928497,28.7333294 20.811266,28.8475395 20.6416374,28.9193849 C20.5085512,28.9735419 20.3750139,29.0281356 20.241251,29.0822926 C20.1521509,29.1194163 20.0422984,29.1871125 19.9337993,29.1713895 L19.6209339,29.0733392 C19.4190489,29.0043327 19.2167128,28.9351079 19.0148277,28.8656646 L17.7166733,28.5134259 C17.54118,28.4977029 17.3650099,28.4817615 17.1895166,28.4656018 L16.732061,28.4324088 C16.4250604,28.4278229 16.1297895,28.451189 15.8351953,28.465165 L15.2863839,28.4852555 C15.209239,28.486129 15.0932961,28.4728081 15.0308132,28.503599 C14.8891554,28.503599 14.6484724,28.484382 14.5368153,28.5389757 L14.4089172,28.5564457 L14.2625224,28.5739157 C14.2201152,28.5802486 14.1774825,28.5859264 14.1343987,28.5918225 C14.0919916,28.5977186 14.0493589,28.6033963 14.0065006,28.6097292 L13.8601058,28.6271992 C13.8176986,28.6330953 13.7750659,28.6392098 13.7319821,28.6446692 C13.689575,28.6510021 13.6469423,28.6566798 13.604084,28.662576 C13.5438568,28.662576 13.4691932,28.6566798 13.4211469,28.6804827 L13.3112943,28.6979527 C13.2688872,28.7042856 13.2262545,28.7099633 13.1833962,28.7158594 L13.0552726,28.7333294 C13.0067751,28.7392256 12.9576008,28.7449033 12.9091033,28.7512362 C12.6661646,28.7512362 12.3950297,28.8558378 12.1732945,28.9185114 L11.8114805,29.0169985 C11.7429072,29.0169985 11.6653112,29.0250783 11.6102722,29.0523752 C11.5435035,29.0523752 11.4622984,29.0617653 11.4090639,29.0877519 C11.345002,29.0877519 11.2764288,29.0980156 11.2261267,29.1231287 C11.1548467,29.1231287 11.0632653,29.1281513 11.0066473,29.1585054 L10.8970203,29.1759754 C10.8146874,29.1759754 10.7282941,29.1665853 10.6590442,29.1938822 C10.5334018,29.1938822 10.3630965,29.1700793 10.2566276,29.2113522 C10.1228647,29.2113522 9.93067915,29.1849288 9.81744309,29.2292589 C9.67285283,29.2292589 9.46487743,29.198468 9.34194187,29.2471656 C8.80914591,29.2471656 8.31447125,29.2342815 7.80581126,29.1698609 C7.52497681,29.1318637 7.24369122,29.0929929 6.96308234,29.0543406 C6.92247977,29.0508466 6.83225183,29.0287907 6.80315332,29.0615469 C6.79976977,29.0798904 6.83405639,29.1084976 6.8466883,29.1196347 C7.07992752,29.270095 7.31249002,29.4207737 7.5452781,29.571234 C7.74377955,29.7094654 7.98491371,29.7850231 8.20687444,29.8859123 C8.41552654,29.9811238 8.62530649,30.0979544 8.84952291,30.1639036 C9.03200891,30.2082337 9.21359263,30.2516903 9.39540192,30.2960204 C9.53660864,30.3292134 9.67736422,30.3617513 9.81789423,30.3940708 C10.0912849,30.4235514 10.3930973,30.414598 10.6777665,30.414598 C11.155749,30.414598 11.5947079,30.3479937 12.0499078,30.3130537 C12.3796909,30.2875038 12.7415049,30.2870671 13.0525657,30.2101991 C13.7980741,30.0245804 14.5555376,29.8374331 15.2866094,29.6142539 C15.9960266,29.397626 16.6808566,29.1556665 17.4453128,29.0449505 L17.8123149,28.9853341 C17.9530705,28.995161 18.0929238,29.0045511 18.2330027,29.0148147 C18.5422589,29.0327215 18.8539965,29.0582713 19.1330263,29.1298983 L19.6782286,29.2641989 L19.714771,29.2641989 L19.714771,29.2995756 C19.4941637,29.4091998 19.2728796,29.5183873 19.0515956,29.627138 C18.046682,30.0876907 17.0537236,30.6567758 16.1600159,31.3298073 L15.6466189,31.6990793 C15.5638348,31.7613162 15.4801484,31.8231163 15.3973642,31.8855715 L15.3790931,31.8855715 L15.3790931,31.9030415 L15.9644468,31.9026048 C16.0549003,31.9026048 16.1719711,31.9137419 16.2473114,31.8825143 C16.3361859,31.8453905 16.4182933,31.7370766 16.4904757,31.6676334 C16.709504,31.4547178 16.9278556,31.2411471 17.1462072,31.0282316 C17.2824514,30.9002639 17.41847,30.7718594 17.5544886,30.6430182 C17.7717124,30.493213 17.9889361,30.3427527 18.2063854,30.1922923 C18.4046613,30.0379013 18.6225618,29.8876593 18.8431691,29.7699552 C18.9922708,29.6992017 19.1409213,29.6284483 19.290023,29.5570397 C19.421079,29.4917456 19.6897327,29.3369177 19.8286837,29.3177007 C19.9617699,29.298047 20.2407998,29.4465419 20.3610286,29.5002622 C20.6037417,29.6085761 20.880967,29.6747438 21.1065369,29.8107913 C21.3289487,29.9446552 21.5290292,30.1235042 21.7342977,30.2824812 C22.159948,30.6122273 22.570034,30.9448123 22.9634278,31.3623452 C23.159448,31.5708933 23.4075748,31.7466851 23.5749476,31.9735766 C23.6050939,31.9697569 23.6351739,31.9654617 23.6651756,31.9606925 C23.7608172,31.9661519 23.8686396,31.9978163 23.9780409,32 C24.1855652,31.9973795 24.3921872,31.9941039 24.5992603,31.9910466 L24.5992603,31.9735766 C24.5225665,31.9735766 24.4217368,31.854999 24.3621864,31.8128527 L23.4118606,31.1385109 C23.1062135,30.9098724 22.7822952,30.7187943 22.465144,30.5115565 L21.5033142,29.9088417 C21.2060132,29.7647142 20.9084866,29.6205868 20.6111855,29.4760226 C20.4573469,29.4030853 20.2676426,29.338228 20.1359099,29.2286038 L20.1171876,29.2286038 L20.1171876,29.210697 C20.1789937,29.194974 20.2401231,29.1783775 20.3014781,29.1619994 C20.5209576,29.1207266 20.7397603,29.0783618 20.9587886,29.037089 C21.5319616,28.9739786 22.142128,28.9761624 22.7148498,29.0298826 L23.0791451,29.0597999 L24.9119001,29.6286666 C25.5951511,29.8009645 26.2777255,29.9723888 26.9605254,30.1438131 C27.3539192,30.2222097 27.7755092,30.2508168 28.1844673,30.2947102 C28.495077,30.3279032 28.8000474,30.4004036 29.120131,30.4004036 C29.4241991,30.374417 29.7275906,30.3479937 30.0321099,30.3211335 C30.1679029,30.3067208 30.2863271,30.2661031 30.4167064,30.2396797 C30.6537803,30.183339 30.8908542,30.1269982 31.1277026,30.0713126 C31.3061283,30.0038348 31.4841029,29.9365753 31.6616264,29.8686607 C31.8630603,29.7961602 32.0872767,29.7433135 32.2749508,29.6408956 C32.5824025,29.4443582 32.8896286,29.2476024 33.1970803,29.0515017 L33.1970803,29.033595 L33.0326399,29.0515017 C32.9744429,29.0523752 32.8961701,29.0490996 32.8494772,29.0698452 L32.8494772,29.0698452 Z M32.9393221,12.7646533 C32.9083738,12.5160335 32.8776514,12.2674137 32.8462513,12.0187939 C32.702353,11.1044936 32.512597,10.22209 32.1839125,9.39474099 C32.1315037,9.27632981 32.0779654,9.15726322 32.024653,9.03819663 C31.1339293,6.88516676 29.5795113,4.9499523 27.5882028,3.50586023 C27.2735241,3.27712128 26.9475504,3.04685305 26.6091522,2.86202674 C26.2486158,2.66431065 25.8916938,2.46004044 25.5106005,2.29378416 C25.0389213,2.08798465 24.5579802,1.91058635 24.0686807,1.73362499 C23.3742989,1.48177645 22.6541228,1.30227057 21.9203717,1.19815303 C21.3316284,1.11622032 20.7384796,1.06727402 20.1438941,1.05155911 C19.9988663,1.0471897 19.8890789,1 19.7406626,1 L19.6308752,1.05308841 C19.4930762,1.05308841 19.2260624,1.02381332 19.1178563,1.07100301 C18.9936113,1.07100301 18.6793844,1.06554124 18.5863135,1.10639529 C18.5273536,1.10639529 18.4512253,1.10311822 18.4031086,1.12409142 C18.3606394,1.1302086 18.3179443,1.13567037 18.2750233,1.14200603 C18.214708,1.14200603 18.1410646,1.13807355 18.0918184,1.15970216 C18.0202081,1.15970216 17.9291704,1.16450852 17.8717918,1.19509444 C17.7934045,1.19509444 17.6949121,1.19793456 17.6336932,1.23048671 C17.591224,1.23660389 17.5485289,1.24206566 17.5056079,1.24818284 C17.4687862,1.25408156 17.4321904,1.2597618 17.3955946,1.26587898 C17.3589988,1.27199616 17.322403,1.27745793 17.2855813,1.28379359 C17.1602068,1.28379359 17.0470309,1.32683234 16.9365658,1.35064565 C16.6826054,1.40380742 16.4310373,1.4671457 16.1825116,1.54049679 C15.1553443,1.84548205 14.2045312,2.2275875 13.276534,2.72417166 C12.9955143,2.87426111 12.7027479,3.02653526 12.4377672,3.20699215 C11.8565265,3.60133197 11.3057823,4.01467875 10.7624928,4.48985277 C10.7134725,4.53245458 10.6658076,4.56456979 10.5964563,4.54752906 L10.5804174,4.54359659 C10.5804174,4.59406335 10.4934459,4.61940596 10.5072258,4.72077642 C10.4859912,4.72077642 9.77824649,5.47996249 9.71025059,5.56516611 L9.19158418,6.19479899 C8.59791897,7.01471995 8.05011146,7.8392288 7.65727135,8.75615081 C7.26827154,9.66149386 6.90615384,10.6509482 6.75367133,11.6664005 C6.67460633,12.1922598 6.58085783,12.7375629 6.57182183,13.2964112 C6.54426203,14.9624697 6.74531303,16.3993522 7.23529014,17.8198494 C7.42964495,18.3835883 7.66276685,18.9341253 7.93309526,19.4677748 L8.19536516,19.9619558 C8.38376576,20.2503372 8.54686557,20.5524824 8.74113957,20.8375868 C9.12315347,21.401304 9.55044454,21.9350737 10.0190559,22.433953 C10.2187515,22.6456512 10.420932,22.8588787 10.6418622,23.0530993 C10.7277042,23.130001 10.8130944,23.2062473 10.8984846,23.283586 C10.9861338,23.358303 11.0914032,23.4273398 11.1668538,23.5199714 L11.1853776,23.5199714 L11.1853776,23.5374491 L11.2036755,23.5374491 C11.2100007,23.5145096 11.2158741,23.4904779 11.2221993,23.4666645 L11.2404972,23.4666645 L11.2404972,23.4845791 C11.2664757,23.4845791 11.2578915,23.4786804 11.2606023,23.5016199 C11.2651203,23.5413816 11.2691865,23.5686904 11.2904211,23.5992763 C11.3505105,23.6862277 11.4639123,23.7447779 11.5474953,23.8092268 C11.7763201,23.9847879 12.0111619,24.1528862 12.2516256,24.3132389 C13.1493523,24.9162184 14.2395457,25.4682941 15.2762008,25.8117302 C16.2351463,26.1287314 17.2257178,26.3753849 18.2939989,26.4918299 C21.2164673,26.8110157 24.1931516,26.1230512 26.4169113,24.8220575 C27.0173535,24.470101 27.6412893,24.0967344 28.1814162,23.6357609 C28.5383382,23.3314311 28.8837393,23.0233873 29.2182972,22.6906562 C29.3357652,22.5746482 29.4525555,22.4577663 29.5700235,22.3411029 C30.7578058,20.9935749 31.6842217,19.5525414 32.2659142,17.9068008 C32.3761534,17.5939506 32.4965581,17.2697399 32.5751713,16.9442184 C32.8916572,15.6213776 33.0217756,14.2546242 32.9393221,12.7646533 L32.9393221,12.7646533 Z M29.1885716,5.29927007 C29.3452554,5.40982473 29.4775064,5.56404202 29.5965323,5.71137653 C29.7514228,5.9021586 29.9199868,6.07874493 30.0692735,6.27017225 C30.8656933,7.28946897 31.4872729,8.36554863 31.9593416,9.54293421 C32.1691499,10.0666708 32.300056,10.6207346 32.4471012,11.1760889 C32.5026914,11.3875193 32.8223353,13.2802838 32.7037577,13.4011627 C32.6412187,13.4643982 32.2059112,13.4332106 32.096524,13.4299843 L31.0243945,13.4360067 C30.823104,13.4256826 30.5668958,13.4071851 30.3698642,13.4452555 C30.3698642,13.4203054 30.3348962,13.3968609 30.3277232,13.3716958 C30.3189812,13.3088904 30.3093426,13.2458699 30.3001523,13.1830646 C30.2394065,12.2547496 30.0502204,11.3982736 29.7722692,10.5828793 C29.7061437,10.396614 29.6391216,10.2101337 29.5716512,10.0236534 C29.4008457,9.67693334 29.2468517,9.32462103 29.0659593,8.98628937 C28.9998338,8.86196915 28.8261143,8.66688535 28.8261143,8.52578836 C28.8261143,8.40942636 29.1762432,8.18724161 29.2607493,8.09023743 C29.2847338,8.09023743 29.2791299,8.0956146 29.2791299,8.0726003 C29.2538005,8.0726003 29.2576111,8.06657787 29.2475242,8.05195196 C29.1459823,7.90203641 28.9787633,7.77879162 28.847409,7.64909424 C28.5129709,7.31936605 28.1776362,6.98963786 27.8431982,6.65969459 L27.8248175,6.65969459 C27.8248175,6.56978827 29.0330086,5.45671367 29.1885716,5.29927007 L29.1885716,5.29927007 Z M27.5198364,20.4592878 L27.5198364,20.4420989 C27.3651468,20.3565844 27.2543311,20.2003806 27.1288154,20.0807032 L26.2436467,19.2133105 C26.1769312,19.1441254 25.9641198,18.9892108 25.9562044,18.9032665 C25.957109,18.894887 25.9575613,18.8865074 25.9589182,18.8776981 C25.9880922,18.7752096 26.1536372,18.6258814 26.2262328,18.5356399 C26.4468528,18.2579651 26.6512282,17.9689706 26.838433,17.6699661 C27.0372228,17.3472453 27.1803786,17.0047573 27.3305451,16.658187 C27.4096992,16.4740514 27.4983518,16.2808916 27.5483319,16.0836495 C27.5987644,15.8982247 27.6476137,15.7121553 27.6966892,15.5267305 C27.7249586,15.3941614 27.7523232,15.2615924 27.7805926,15.1283788 L27.8167773,14.8136078 C27.8467051,14.5643345 27.8688027,14.3142687 27.8830405,14.0637439 C27.8875636,13.9603959 27.8733159,13.8471644 27.9002283,13.7539148 C27.906792,13.7312989 27.9215232,13.7115987 27.9418407,13.6982659 L27.9418407,13.6808622 C28.4970499,13.6808622 29.1194271,13.6546492 29.6848133,13.6901012 C29.8313614,13.6989105 30.0161296,13.6509965 30.1423238,13.7158845 C30.1653915,13.7158845 30.1604161,13.7105129 30.1595115,13.7326436 C30.138253,14.145391 30.1475253,14.5332146 30.1011637,14.935219 C30.0579682,15.2141082 30.0145465,15.4923528 29.9718033,15.7710271 C29.9148124,16.139943 29.7752751,16.5028427 29.674184,16.8549994 C29.417951,17.7451673 28.9559174,18.5685136 28.4448083,19.3377149 C28.3163525,19.5306598 28.1630198,19.7036227 28.0243871,19.8920555 C27.9214868,20.0308555 27.6917138,20.3658234 27.538155,20.4423138 C27.5379288,20.4646593 27.5435827,20.4592878 27.5198364,20.4592878 L27.5198364,20.4592878 Z M14.2161876,16.4957879 C14.1578826,16.2520032 13.969597,16.0548085 13.9110729,15.8062564 C13.8632891,15.6055945 13.9439516,15.3808791 13.9204981,15.1747998 C13.9005517,14.9997082 13.7416377,14.8590715 13.6850863,14.6969817 C13.6671126,14.6464912 13.6896893,14.5921001 13.6796065,14.5403094 C13.6541803,14.4107243 13.6256854,14.271171 13.5667228,14.1569714 L13.1094891,13.5747052 C13.1923435,13.5747052 13.2429768,13.4594221 13.3111454,13.4301679 C13.425125,13.3807609 13.5855733,13.3614748 13.7140196,13.3460893 L13.7140196,13.381411 C13.6796065,13.381411 13.6440974,13.4269174 13.625247,13.4518377 C13.5969712,13.4518377 13.6234934,13.5138132 13.6296308,13.5385167 C13.6730307,13.7268268 13.7157731,13.9147036 13.7589539,14.1025804 C13.7701326,14.2156965 13.7416377,14.3205781 13.7495286,14.4358612 L14.1760755,14.4358612 L14.0176,14.1359518 C13.9838445,14.0360542 14.0704252,13.9355066 14.0686716,13.8384261 C14.0647262,13.6488157 13.939787,13.4572551 13.9270739,13.2583268 L13.8735911,13.2583268 C13.8735911,13.2869308 13.8424659,13.2815134 13.8192316,13.2836804 C13.7653104,13.2875809 13.7392266,13.2446748 13.7153347,13.2041524 C13.687059,13.1501947 13.6579065,13.0958036 13.6296308,13.0420626 C13.6136298,12.9447654 13.8240538,12.8145302 13.8911264,12.7664234 C14.0651646,12.7768248 14.3167966,12.8015284 14.4029389,12.9712025 C14.4360368,13.0377287 14.4366944,13.1261413 14.4454621,13.2052359 C14.453353,13.276096 14.4871085,13.3781605 14.4461196,13.4436032 C14.3932945,13.5265983 14.2538886,13.5775222 14.1756372,13.6275794 C14.1773907,13.639281 14.1784867,13.6501159 14.1802402,13.6609508 C14.1951452,13.7153419 14.2291199,13.7989871 14.2812875,13.8295415 C14.3463874,13.8674635 14.4996024,13.7894524 14.5278781,13.8789485 C14.5607569,14.1173158 14.5927588,14.3552497 14.6256376,14.5929669 C14.731288,15.1635315 14.946315,15.7813362 15.2507721,16.2580707 C15.4430032,16.5586302 15.6529888,16.8405537 15.8794137,17.1270279 C15.8956339,17.1482642 15.914046,17.1790353 15.9122925,17.2104564 C15.9074703,17.2858672 15.7945866,17.3573773 15.7452685,17.4115517 C15.5747374,17.5968281 15.3919315,17.792506 15.1990429,17.96088 C15.1192572,18.0399746 15.0385946,18.1184191 14.9579321,18.1970803 C14.9208887,18.1970803 14.8963393,18.1619753 14.8757352,18.1379219 L14.441955,17.5292185 C14.3726904,17.4297543 14.2569573,17.3426419 14.2135573,17.2290924 C14.1947068,17.1799021 14.2058856,17.1088253 14.2085159,17.0537841 C14.2168452,16.8802094 14.2549845,16.6600447 14.2161876,16.4957879 L14.2161876,16.4957879 Z M11.8613721,20.4401681 C11.7029022,20.2629949 11.5441993,20.0853793 11.3852633,19.9084273 C11.0182857,19.443456 10.6865302,18.9543565 10.392496,18.4448131 C10.2797027,18.2499447 10.1189024,17.9997788 10.0729927,17.7803583 C10.1067841,17.7803583 10.1403424,17.7582393 10.1676086,17.7445255 C10.1981373,17.7535943 10.228433,17.7617784 10.2591948,17.7704048 C10.2981132,17.7993807 10.3281758,17.9203716 10.3901655,17.9811988 C10.689627,18.2413183 10.9890885,18.500553 11.2885501,18.7600088 C11.6658482,19.0763106 12.1885659,19.0132714 12.6376416,19.1924353 C12.8070646,19.2603406 12.9247518,19.4594116 13.1007,19.5060827 C13.1815662,19.5111701 13.2619664,19.5155939 13.3430657,19.5202389 C13.3430657,19.5868171 12.2498564,20.6188896 12.1144579,20.6861314 L12.1144579,20.6684362 C12.014249,20.6206591 11.9352471,20.5191329 11.8613721,20.4401681 L11.8613721,20.4401681 Z M19.6189643,8.23673751 C19.5876108,8.2941946 19.4727242,8.27475744 19.4194004,8.30017527 C19.3635591,8.30615593 19.3079466,8.31149581 19.2523342,8.31747648 L19.1040343,8.33499128 L18.9928095,8.35229249 C18.8030864,8.35229249 18.6216022,8.41893418 18.4511031,8.46442995 C17.743246,8.65025774 17.1042751,8.95228129 16.5298421,9.38139397 C16.3547659,9.52386194 16.1796897,9.66547553 16.0043846,9.80751631 L16.0043846,9.82481752 L15.9858471,9.82481752 C15.8572291,9.7284861 15.7439445,9.60716405 15.6283713,9.49951209 L14.9932909,8.89653295 C14.8832104,8.79208492 14.7722143,8.68742329 14.6614472,8.58297526 C14.536262,8.47318735 14.3911661,8.36318584 14.2966479,8.23118403 C14.2717024,8.23118403 14.2781104,8.23652391 14.2781104,8.21388282 C14.3053445,8.21388282 14.3133545,8.1927369 14.3307477,8.17650367 C14.6928007,7.82727559 15.123511,7.56903904 15.5423208,7.31635596 C15.622421,7.26936503 15.7018346,7.2221605 15.7812483,7.17495597 C16.5243495,6.80671791 17.2978888,6.50747109 18.1574786,6.34727472 C18.4016698,6.30113817 18.66211,6.25948711 18.917973,6.24111793 C19.0420139,6.2291566 19.1655971,6.21676808 19.2891803,6.20437956 L19.6418501,6.20437956 C19.6418501,6.7279013 19.6512333,7.24052968 19.6425367,7.76341063 C19.640477,7.88921818 19.6711439,8.13891092 19.6189643,8.23673751 L19.6189643,8.23673751 Z M14.4348099,8.71707783 C14.5847662,8.85833021 14.7319918,9.00665592 14.881948,9.1479083 C15.0705879,9.32559908 15.2528564,9.50050339 15.4430891,9.67969457 C15.5220494,9.75407178 15.6287709,9.83337888 15.6788321,9.92747568 C15.6547117,9.9334773 15.6299086,9.93883589 15.6051055,9.94483751 C15.3814228,9.94483751 15.0901573,9.90861345 14.8883194,9.95619771 C14.7586152,9.98663449 14.5834009,10.1218853 14.4719008,10.1949764 C14.357215,10.2674245 14.241619,10.3396583 14.1262506,10.411892 L13.6625013,10.8410078 C13.4861492,11.1157962 13.3091144,11.3905845 13.131852,11.6655873 C13.1006775,11.6655873 13.1134204,11.6932376 13.1134204,11.7176728 C13.1562,11.7176728 13.1837337,11.7676148 13.1837337,11.8040532 C13.1837337,11.91937 13.0244479,12.0957747 12.9771172,12.2089481 C12.9334274,12.3534156 12.8888274,12.4974545 12.8444549,12.641922 C12.8005375,12.7722429 12.6517191,13.3561146 12.5704833,13.4122726 C12.4926608,13.4647868 11.8769074,13.4388512 11.7289991,13.4388512 L11.7289991,13.4214894 C11.6939563,13.4214894 11.7123879,13.2943837 11.7169389,13.2654473 C11.7779226,12.8256144 11.8211574,12.4132175 11.9422146,12.0096086 C12.0860269,11.5299078 12.242127,11.0686406 12.4740016,10.6330945 C12.5381711,10.5066319 12.6016578,10.3799549 12.6649171,10.2534922 C12.8703031,9.92101453 13.096984,9.60062153 13.3437022,9.29409058 L13.5635166,9.01158582 L14.1094118,8.46715328 C14.2411639,8.50101956 14.3367354,8.62469577 14.4348099,8.71707783 L14.4348099,8.71707783 Z M13.8352789,8.45715207 C13.7254393,8.58626964 13.5959536,8.69135516 13.4912487,8.8254976 L13.0771176,9.34022006 C12.8536431,9.67645006 12.6420009,10.0096214 12.4569256,10.3635477 L12.2508647,10.7854192 C12.2316651,10.7854192 12.216484,10.8669096 12.2080004,10.8889754 L11.9532707,11.5865598 L11.8423148,12.0398913 C11.7217592,12.467443 11.6353609,12.9448066 11.6353609,13.4252288 L11.6172776,13.4252288 C11.6172776,13.4547226 11.424835,13.4429251 11.3819707,13.4429251 L9.37226277,13.4429251 C9.37226277,11.7071569 9.97146919,10.1389575 10.7403466,8.77874438 C10.8731811,8.56398539 11.0055691,8.34900792 11.1381803,8.13424894 C11.4005511,7.76536176 11.6895032,7.41527884 12.0028325,7.08667076 C12.1403553,6.9437894 12.2772083,6.80025261 12.4142846,6.65693431 C12.5676582,6.71220798 12.7609938,6.94662954 12.881103,7.06788208 C13.1164098,7.30536226 13.3660048,7.52470918 13.5977396,7.76655883 C13.7278951,7.90223058 13.9752575,8.06390062 14.0437956,8.23387264 C14.014773,8.23387264 13.8640783,8.42219639 13.8352789,8.45715207 L13.8352789,8.45715207 Z M11.7080292,13.6715328 C11.7080292,13.86499 11.3210112,14.1879774 11.174243,14.3397249 C11.0240295,14.4941972 11.048376,14.7696063 10.9716615,14.9595003 C10.9356011,15.0471114 10.7890625,15.0764549 10.7033903,15.1037023 C10.5621345,15.1470887 10.4227161,15.2240104 10.2727323,15.24497 C10.0136485,15.2793438 9.74928188,15.2183513 9.49157615,15.2183513 C9.49157615,15.155263 9.44793614,15.0383084 9.43920814,14.9628538 C9.42473803,14.7704447 9.40957887,14.577826 9.39487908,14.3854168 C9.3799496,14.1645026 9.3507797,13.8882551 9.39832434,13.6715328 L11.7080292,13.6715328 L11.7080292,13.6715328 Z M14.5109489,19.5010226 C14.6676505,19.5010226 15.0755257,19.4988777 15.1961521,19.4469707 C15.2940061,19.4038578 15.3555594,19.2886757 15.4150835,19.2106006 C15.4498059,19.1644849 15.5036932,19.1155807 15.4948999,19.0514477 C15.4680689,18.8650542 14.9839849,18.4452936 15.0137469,18.289358 C15.0297553,18.2031323 15.2320019,18.0414054 15.3057306,17.9777013 C15.5406703,17.749482 15.7753845,17.5206191 16.0103242,17.2919708 C16.0256562,17.2969041 16.0407627,17.3024809 16.0560946,17.3078432 C16.1789758,17.3640401 16.2802118,17.4925207 16.3848298,17.577245 C16.5550597,17.6995054 16.7248386,17.8215512 16.8946174,17.9429537 C17.1746512,18.1160486 17.4715951,18.2726277 17.7816163,18.3933866 L18.3694165,18.5960814 C18.3865523,18.6074495 18.4030116,18.6183886 18.4203727,18.6291132 C18.4627611,18.6840231 18.4690743,18.7698198 18.4832789,18.8391007 L18.6014251,19.4276664 L18.6390786,19.5076719 C18.7087488,19.5625818 18.7784191,19.6170628 18.8483148,19.6715437 C18.9682648,19.7783606 19.0855092,19.8890385 19.2054592,19.9928525 C19.2534843,20.0314611 19.3015094,20.0689971 19.3495345,20.1071767 C19.432282,20.1453562 19.54885,20.1414954 19.649635,20.1449273 L19.649635,21.3452238 L19.6311465,21.3452238 C19.6311465,21.3754672 19.518186,21.3619542 19.485042,21.3619542 C19.0437972,21.3619542 18.6072874,21.3224877 18.2032452,21.2450561 C17.1214402,21.0354975 16.1129131,20.6715048 15.2311,20.0820811 C14.9808283,19.914992 14.758064,19.7260246 14.5111744,19.5533587 L14.5109489,19.5010226 L14.5109489,19.5010226 Z M19.5113617,17.3425794 C19.3888841,17.4024676 19.2802888,17.5533687 19.1880387,17.6518945 C19.0615308,17.7843354 18.9343511,17.9163471 18.8076192,18.0485734 C18.7361926,18.1554706 18.723206,18.2992882 18.6493163,18.4061854 L18.6493163,18.4233577 C18.4905657,18.4233577 18.312335,18.3265491 18.1732882,18.2754617 C17.7047537,18.1032664 17.264864,17.8665981 16.8674573,17.5729022 C16.6977352,17.4471154 16.5537624,17.2932092 16.379562,17.1704276 L16.379562,17.1528261 C16.39434,17.0744777 17.9576649,15.5555925 18.0866358,15.4989241 L18.0866358,15.4817518 C18.324426,15.6642069 18.5429601,15.8468767 18.8136647,15.9668678 C18.9050192,16.0012123 18.9957019,16.0346982 19.0866085,16.0692573 C19.2256553,16.1027432 19.5910729,16.1347265 19.6739189,16.2381893 C19.7401956,16.32126 19.6788448,16.5307614 19.6483934,16.6134029 C19.401423,16.6134029 19.2659587,16.5069349 19.2507329,16.8222603 C19.2471504,16.8821485 19.2323725,16.9695123 19.2693173,17.0163067 C19.3199205,17.054515 19.3702998,17.0922939 19.420679,17.1294289 L19.5212137,17.2401899 C19.5212137,17.2627284 19.5149443,17.2573621 19.5395741,17.2573621 C19.5395741,17.1601243 19.7034747,17.1021679 19.7630342,17.0523684 C19.8528213,16.9763812 19.875436,16.8460868 19.9520125,16.7634454 C19.9864943,16.7248078 20.0355301,16.7089235 20.0807595,16.6926099 C20.3010849,16.6112563 20.3111607,16.7501369 20.4869284,16.7898477 C20.5520856,16.7907063 20.6176906,16.7907063 20.6828478,16.7911356 C20.7379292,16.8016536 20.7921149,16.8121716 20.8467484,16.8222603 C20.8467484,16.7782564 20.8948886,16.7325353 20.9192946,16.7003374 C20.9831083,16.7003374 21.0330398,16.7778271 21.0643869,16.8222603 C21.1488002,16.8151768 21.2332134,16.8076639 21.3176267,16.800795 C21.4383131,16.8078786 21.4998877,16.9710149 21.5182482,17.0661062 C21.4448064,17.0661062 21.1149901,17.1659199 21.0565501,17.2036989 C21.0238595,17.2384727 20.9900495,17.2728171 20.9573589,17.3067323 C20.9329529,17.3193969 20.9078753,17.3318467 20.8830215,17.3445113 C20.7742022,17.3445113 20.5017063,17.3664059 20.4408034,17.2987902 C20.4128149,17.2442683 20.3843786,17.1897464 20.3559423,17.1352245 L20.3559423,17.1180523 L20.0458299,17.1998351 C19.8711817,17.2384727 19.6685451,17.2646603 19.5113617,17.3425794 L19.5113617,17.3425794 Z M21.5097086,20.7540336 C21.5284965,20.9609729 21.5320752,21.1144705 21.347551,21.1815668 C21.2947659,21.1980466 21.2413098,21.214291 21.188972,21.2312417 C21.117399,21.2312417 21.027709,21.2361856 20.9713453,21.2693806 L20.8621964,21.2882147 C20.8141083,21.2945712 20.7655728,21.3006923 20.7177084,21.3075196 L20.5544324,21.3263537 L20.4090497,21.3456586 C20.3146628,21.3456586 20.1775557,21.3239994 20.1010621,21.3649635 L19.9194455,21.3456586 C19.8820934,21.3456586 19.887014,21.2835062 19.8861193,21.2496049 C19.885672,20.8491456 19.88433,20.4482156 19.8832117,20.0472855 C19.9093806,20.0472855 19.9364441,20.023272 19.9556794,20.0091465 C20.2220652,20.0115008 20.4880037,20.0133842 20.7537186,20.0150321 C20.8545918,20.0126779 21.0809415,19.9870165 21.1598955,20.0444604 C21.2580847,20.1153235 21.3088568,20.280357 21.3591816,20.386534 C21.4126377,20.5007155 21.497407,20.6203118 21.5097086,20.7540336 L21.5097086,20.7540336 Z M19.8952422,23.2776579 L19.8952422,21.6704161 L19.9135991,21.6704161 C19.9135991,21.6389649 20.0439105,21.6505975 20.0785847,21.6477971 C20.4171676,21.6169922 20.7654955,21.5917881 21.0902541,21.5357792 C21.2180726,21.5131602 21.3594887,21.5066976 21.4757491,21.4608133 L21.4943327,21.4608133 C21.4943327,21.5185457 22.0733684,22.3733286 22.1411303,22.4155507 C22.2934246,22.5101197 22.4992033,22.5527727 22.6714409,22.6115821 C22.9157464,22.6940876 23.1605051,22.7757314 23.4052639,22.8582369 C23.4358587,22.8569444 23.465547,22.8543594 23.4959152,22.8532823 C23.6305325,22.8250624 23.7968778,22.791457 23.9115518,22.7236 C24.126169,22.5969336 24.320163,22.3664352 24.513477,22.19927 C24.6378961,22.0906987 24.7618618,21.9816967 24.8858276,21.8726946 C24.9819181,21.7654159 25.0172721,21.5142373 25.0580652,21.3729223 C25.1589149,21.0299752 25.2586314,20.6865971 25.3594811,20.3438654 L25.4471863,20.0084579 C25.4573846,19.8490477 25.2833339,19.6642182 25.339991,19.5127786 C25.3660533,19.4416903 25.6674692,19.1504437 25.7397636,19.1198541 L25.7397636,19.1021898 C25.8981769,19.1715547 26.0656554,19.3697403 26.1882614,19.4972684 C26.578289,19.8785602 26.9676367,20.2592057 27.3576642,20.6396358 C27.3576642,20.7725494 26.4493374,21.5097135 26.2979495,21.6258244 C25.3830504,22.3205509 24.3777266,22.8778401 23.2910431,23.2490072 C22.97331,23.3571475 22.6533106,23.4599024 22.3208467,23.5393921 C22.1884956,23.570197 21.9083829,23.6003557 21.8068533,23.662181 C21.7089498,23.662181 21.5922362,23.6759678 21.5124629,23.7143124 C21.4757491,23.7201287 21.4390353,23.7257296 21.4023215,23.7319767 L21.2921801,23.7492103 C21.2495739,23.7550266 21.2067411,23.7606275 21.1639084,23.7668746 L21.0165999,23.7841082 C20.958583,23.7841082 20.8797163,23.7810923 20.8328042,23.8017725 L20.7040792,23.8190061 C20.6190935,23.8190061 20.5182439,23.8093122 20.4468559,23.8366704 C20.3507654,23.8366704 20.2127487,23.816421 20.1345619,23.8539039 C20.0683864,23.8539039 19.9890664,23.856489 19.9321827,23.8366704 L19.9108796,23.8295616 C19.8596616,23.6761832 19.8952422,23.4484852 19.8952422,23.2776579 L19.8952422,23.2776579 Z M25.6208933,9.08526019 C25.661735,9.14232064 25.7090845,9.21565308 25.7782012,9.24407482 C25.8908526,9.28941943 26.0183147,9.25774329 26.10875,9.3534226 C26.195146,9.44519663 26.2582038,9.55367656 26.328667,9.65412899 C26.5120241,9.91918163 26.6756541,10.1965049 26.818319,10.4840005 C26.8872114,10.6209022 26.9742805,10.7595396 27.0124294,10.9096758 C27.029933,10.9806217 26.9996383,11.0799893 26.9751782,11.1387854 L26.9751782,11.1565761 L27.011083,11.1565761 C27.011083,11.1311918 27.0312794,11.1175233 27.0474366,11.1038549 L27.0474366,11.0860642 L27.0837902,11.0860642 C27.0837902,11.1090619 27.0777313,11.1038549 27.1021915,11.1038549 L27.1376475,11.2303425 C27.1472969,11.3077972 27.1214903,11.3865536 27.1021915,11.4559808 L27.1385451,11.4559808 C27.1385451,11.487223 27.1924023,11.4685644 27.2125988,11.4889587 C27.2336929,11.5256249 27.2538893,11.5620741 27.274759,11.5989573 C27.4062604,12.0524034 27.5189118,12.5038969 27.5593047,13.0037725 C27.5689541,13.1263548 27.6001464,13.2682466 27.5754619,13.3914798 C27.6066542,13.3914798 27.583316,13.4094875 27.5754619,13.4266273 C27.3663163,13.4266273 27.1591904,13.4437671 26.9386001,13.4437671 C26.8342518,13.4437671 26.6843491,13.4103553 26.592343,13.444201 C26.4581488,13.444201 25.9812879,13.4559169 25.9016241,13.401243 C25.8385662,13.3585019 25.7070648,13.0306755 25.6920297,12.9493156 C25.6684671,12.8200075 25.7696739,12.0756182 25.8345269,12.006408 C25.9305723,11.9018333 26.1215411,11.8864291 26.2438419,11.8204733 C26.308695,11.784675 26.3248521,11.7011454 26.379607,11.654499 C26.4496214,11.5935333 26.5589067,11.6137106 26.6356532,11.5633759 L26.9017977,11.2800263 C26.9017977,11.2596321 26.8957388,11.2559437 26.8838453,11.2448788 L26.8838453,11.2624525 C26.8176458,11.2624525 26.7633397,11.3416429 26.6984867,11.3553114 C26.5849377,11.3785261 26.4662274,11.3394733 26.35582,11.3327475 L26.35582,11.3151738 L26.3378676,11.3151738 C26.3378676,11.2266542 26.5539698,11.0533032 26.5517257,10.9274665 C26.5499305,10.8500118 26.450519,10.7825373 26.3966618,10.73025 C26.3221593,10.6582193 26.2236454,10.5267416 26.1280488,10.4900754 C26.056688,10.4618706 25.9671504,10.4718508 25.8829984,10.470766 C25.6927029,10.4675116 25.4539358,10.4994047 25.2883249,10.4384389 C25.1853229,10.400471 25.0872579,10.183728 25.006472,10.1034529 C24.9070606,10.0040853 24.7513234,9.91491476 24.6274518,9.85503383 L24.6274518,9.83724312 C24.5971571,9.83724312 24.6090506,9.82639513 24.6090506,9.80209562 C24.7194579,9.80209562 24.8150545,9.82465945 24.9185052,9.83724312 C24.9185052,9.67560801 24.6761477,9.70207712 24.5726969,9.64371491 L24.5547445,9.64371491 C24.5547445,9.56886375 25.4115233,8.8316341 25.5190133,8.69343066 C25.5719729,8.72380504 25.6137123,8.76437654 25.6464754,8.81666387 C25.6704868,8.81666387 25.6648767,8.81058899 25.6648767,8.83445458 C25.6316647,8.83445458 25.5838664,8.93121868 25.5558158,8.95747083 C25.5555914,9.00563592 25.5950867,9.04946181 25.6208933,9.08526019 L25.6208933,9.08526019 Z M25.9932222,8.16121059 C26.0010762,8.0849328 26.2521802,7.85130483 26.3215199,7.78832117 C26.4480817,7.81251212 26.5353734,7.90164817 26.6361291,7.97487485 L27.0063897,8.23661663 L27.2588401,8.46871905 C27.3842798,8.57245685 27.4771816,8.72174338 27.6174318,8.80673863 C27.6872203,8.84880038 28.0096836,8.87865769 28.0956289,8.84662102 C28.1811254,8.81393053 28.3743341,8.57594383 28.4562402,8.6217105 C28.5325363,8.66420813 28.6714401,8.95798659 28.7187886,9.04537914 C29.134378,9.81164402 29.4344013,10.6001384 29.6632896,11.4662183 C29.7166969,11.6717324 30.0256961,13.263105 29.8950951,13.3988795 C29.8174526,13.4777725 27.9232894,13.4337494 27.6860983,13.4263395 L27.6860983,13.4086867 C27.6549066,13.4086867 27.6672487,13.3814446 27.6672487,13.3557281 C27.6632095,13.1308176 27.6264078,12.9152783 27.5983578,12.7010467 C27.5487653,12.3240165 27.4489071,11.9770615 27.3578006,11.6235684 C27.3192037,11.4936783 27.2797093,11.3633522 27.2411124,11.23368 C27.2209164,10.9967829 27.5072512,10.8507655 27.4130031,10.5983949 L27.4130031,10.5630892 L27.3946023,10.5630892 L27.3946023,10.5807421 C27.3744062,10.5807421 27.193764,10.8093575 27.1399079,10.8457529 L27.1399079,10.8634058 L27.1219559,10.8634058 L27.1219559,10.7396178 C27.097945,10.74572 27.073261,10.7513864 27.0492502,10.7572707 C27.0160389,10.6905821 26.9826033,10.6236756 26.9498408,10.5567691 C26.8297866,10.3359993 26.7534905,10.0709885 26.5943907,9.87375594 L26.5943907,9.85610308 C26.6298459,9.85610308 26.6583448,9.8914088 26.6850484,9.90927959 C26.6850484,9.93216293 26.6789896,9.92693245 26.7030004,9.92693245 C26.7030004,9.91690737 26.8629979,9.74953211 26.8852135,9.71466226 L26.9031655,9.71466226 C26.9009431,9.70988249 26.8983161,9.70529006 26.8953115,9.70093226 C26.7537149,9.45684333 26.6332119,9.21275441 26.4566089,8.98348516 C26.40006,8.91069436 26.3522627,8.82875022 26.2759666,8.76990735 C26.1877773,8.70147528 26.0654791,8.69733448 25.9752702,8.63674813 C25.9508105,8.63674813 25.9568693,8.64219654 25.9568693,8.61909527 C25.9871634,8.61909527 26.0212722,8.54848383 26.0369803,8.52363906 C26.1514244,8.34057237 25.975719,8.32074014 25.9932222,8.16121059 L25.9932222,8.16121059 Z M25.4881734,18.405853 C25.4698538,18.405853 25.4648377,18.3985661 25.4528427,18.3877462 L25.4528427,18.4235182 C25.4264536,18.4235182 25.4103149,18.3471163 25.3911229,18.3226059 C25.3165357,18.2276557 25.1789202,18.1216647 25.1444618,18.0081661 C25.1274507,17.9529625 25.1346477,17.8770023 25.1291955,17.8149534 C25.1176366,17.6950512 25.0184052,17.1851905 24.9562492,17.116738 C24.8522197,17.003681 24.5758983,17.2136756 24.4749221,17.2443688 L24.3386152,17.2598258 L24.3386152,17.241719 L24.3211679,17.241719 C24.3211679,17.2176502 24.323785,17.2185335 24.3364343,17.2037389 C24.4105852,17.1118801 24.6585548,16.9217588 24.687779,16.8380701 C24.7436104,16.677538 24.6127557,16.4688683 24.6528845,16.2950873 C24.680582,16.1712104 24.7802497,16.0539579 24.8419695,15.9462004 C24.9191737,15.7852266 24.9952875,15.6249153 25.0716194,15.4643832 C25.1324668,15.297889 25.19266,15.1318366 25.2530712,14.9655632 C25.2964713,14.808785 25.3394353,14.651565 25.3834897,14.4943451 C25.3928676,14.4833044 25.4018093,14.4713804 25.4111873,14.4596772 C25.4781412,14.3936537 25.6083416,14.3768718 25.6986313,14.3514781 C25.9385316,14.2843505 26.4096084,14.2011035 26.5321756,13.9643903 C26.5688149,13.9643903 26.4410135,13.7678654 26.4257471,13.7316519 C26.3963048,13.7316519 26.4078636,13.7203903 26.4078636,13.6958799 C26.4874669,13.6958799 26.6126512,13.8345514 26.6710996,13.7334184 C26.6595408,13.6320645 26.4137521,13.5773025 26.3376383,13.642222 C26.2384069,13.642222 26.1106055,13.5521297 26.0364545,13.4989134 L26.0190072,13.4989134 L26.0190072,13.4631414 C26.1509523,13.4631414 26.308196,13.4770528 26.4257471,13.4452555 C26.6817861,13.4532048 26.9343356,13.4452555 27.2038962,13.4452555 C27.3192664,13.4452555 27.4309291,13.4664537 27.5399746,13.4452555 L27.5399746,13.4631414 C27.5663636,13.4631414 27.5637465,13.4768319 27.5698531,13.5002383 C27.6082371,13.6495089 27.5846833,13.8453713 27.5774863,14.0003831 C27.5609114,14.3366836 27.5452088,14.6663596 27.4769463,14.9819035 C27.3526343,15.5551379 27.2017153,16.0985624 26.9978001,16.6280755 C26.7864698,17.175033 26.4687111,17.6734113 26.1339412,18.1629571 C26.0299117,18.3131109 25.9149777,18.5467326 25.7535903,18.6385915 C25.7535903,18.7068231 25.5115092,18.4378711 25.4881734,18.405853 L25.4881734,18.405853 Z M25.4890511,18.9139256 L25.4890511,18.9515901 C25.4844984,18.9515901 25.2257876,19.2849903 25.200253,19.3284672 C25.1547262,19.3284672 25.1291916,19.2561607 25.11395,19.2175662 C25.0133952,18.9701898 25.0068631,18.7158385 25.0393257,18.4233577 C25.2180678,18.5242612 25.3283218,18.7718702 25.4890511,18.9139256 Z M24.4781078,14.8639832 L24.7448468,14.6482656 C24.8067192,14.6245325 24.8674459,14.6001636 24.9293183,14.5766423 L25.0218978,14.5766423 C25.0218978,14.7188294 24.9584213,14.8622879 24.9148814,14.9902775 C24.8012194,15.3206347 24.6458509,15.6202659 24.4645875,15.9169305 L24.4457967,15.9169305 L24.4457967,15.9343066 L24.4270058,15.9343066 C24.4109648,15.84785 24.393778,15.7613935 24.3772787,15.6747251 C24.348634,15.5278761 24.3692582,15.2947825 24.1190185,15.3842057 C24.0768536,15.3986151 24.0470632,15.5196119 23.9897739,15.5643235 C23.9123187,15.6234445 23.5211474,15.7141391 23.4051939,15.7281247 L23.4051939,15.7107486 L23.3868613,15.7107486 C23.3868613,15.6690037 23.4093187,15.6270468 23.4310887,15.5948375 C23.4968568,15.4954549 23.7152436,15.5009644 23.8240932,15.4255268 C24.0420217,15.23884 24.2601793,15.0515176 24.4781078,14.8639832 L24.4781078,14.8639832 Z M19.8856377,3.32582043 C19.8878933,2.77570829 19.8896979,2.22559614 19.8912768,1.67548399 C19.9084199,1.52456827 19.8569906,1.35860523 19.9221795,1.22627737 C22.1257445,1.22627737 24.2090822,1.8155568 25.939633,2.73543459 C26.3797144,2.96933183 26.7999459,3.24239635 27.2217564,3.52165682 C27.7446209,3.86708122 28.2372594,4.28265267 28.7032811,4.72522076 C28.7741091,4.79249112 28.988849,4.95624131 28.9926837,5.0494019 C28.9978717,5.1894747 27.819058,6.23194386 27.6604844,6.43065693 C27.5912353,6.43065693 26.7591183,5.60062046 26.7410729,5.51210684 C26.7410729,5.45368786 26.7406218,5.3948263 26.7397195,5.33596474 C26.7300201,5.14079221 26.7340803,4.93676832 26.7277644,4.74336606 C26.7250576,4.66591664 26.7338547,4.57784559 26.6959595,4.51787761 C26.6192667,4.3972778 26.4985883,4.29238916 26.3905416,4.19303262 L26.049033,3.8646471 C25.9644454,3.80512169 25.8295562,3.85336161 25.7402317,3.80622811 C25.6339896,3.7327618 25.527973,3.65863165 25.4212798,3.58516534 C25.3403012,3.54356394 25.2586459,3.50218382 25.1767651,3.4608037 C25.119471,3.42871752 25.0405225,3.37671577 24.9701456,3.37317522 L24.9525514,3.37317522 C24.9469122,3.37383907 24.9410474,3.37383907 24.9354083,3.37428164 C24.8156321,3.3860097 24.7102923,3.44044557 24.6002156,3.47806386 L23.5806523,3.8465018 C23.5806523,3.98790231 23.571404,4.123992 23.5806523,4.25941784 L23.5621558,4.25941784 L23.5621558,4.27734185 C23.4563648,4.23994484 23.3503483,4.2016627 23.2445573,4.16360185 C22.9411938,4.05370002 22.6312008,3.96228321 22.3163487,3.88987348 C21.5505484,3.71528036 20.7585823,3.59534441 19.903683,3.59534441 L19.903683,3.5774204 C19.873457,3.57697783 19.8856377,3.3678644 19.8856377,3.32582043 L19.8856377,3.32582043 Z M19.9150505,3.71532847 C20.1377248,3.72345119 20.3594846,3.73093264 20.581473,3.73862785 C20.8537574,3.76791239 21.125356,3.79655566 21.3971833,3.82519894 C22.0367693,3.92176468 22.6655725,4.07280625 23.2757402,4.2764374 C23.3788471,4.31063832 23.6083799,4.35980215 23.6771941,4.44060184 C23.7629259,4.5408533 23.7990476,4.79436766 23.8294539,4.92817878 L24.0983091,5.93560979 C24.1268863,6.04719031 24.1412893,6.16539726 24.1984439,6.26329741 C24.1984439,6.31053743 24.3024652,6.26564872 24.3244126,6.25688473 L25.0463893,5.95955044 C25.1584123,5.91359294 25.2866672,5.82723561 25.4220093,5.84732865 C25.4220093,5.9766509 25.5813563,6.08630762 25.5502642,6.22439385 C25.5171145,6.36590018 25.2349995,6.49094732 25.2212824,6.62924731 C25.2123663,6.71047451 25.3810866,6.94560587 25.4512724,6.99605223 L26.4233577,7.51184494 L26.4233577,7.54647337 C26.3993527,7.54647337 26.1563314,7.7875899 26.1085502,7.82392838 L26.1085502,7.8412426 L26.0710568,7.8412426 C26.0710568,7.79849144 26.0017854,7.71876054 25.978695,7.68520088 L25.978695,7.66788666 C25.9215404,7.66788666 25.8460963,7.94363162 25.8118036,7.99728432 L25.8118036,8.01459854 L25.7935141,8.01459854 L25.7935141,7.99728432 C25.7537345,7.99728432 25.7118974,7.92738618 25.6618299,7.91648464 C25.5502642,7.89211648 25.3957182,7.93444012 25.2930685,7.89168896 C25.1716722,7.8412426 25.0836541,7.72688326 24.9782611,7.64907615 L24.4272909,7.26217818 L24.2446248,7.08732595 C24.1646084,7.0170003 24.0669883,6.92102395 24.0212647,6.8323153 C23.9403338,6.6752048 24.0395541,6.40972012 23.9266167,6.2724889 C23.853916,6.1835665 23.7391496,6.12948629 23.6488454,6.06450453 L23.0061992,5.59381429 C22.9069788,5.51942728 22.7823818,5.45337674 22.69665,5.36253053 L22.6596138,5.36253053 C22.6596138,5.54614675 22.9355561,6.30668983 22.8555397,6.41720157 C22.8228473,6.46123526 22.582798,6.36803774 22.5443901,6.35392986 C21.998239,6.15176761 21.4259452,6.01786962 20.8423265,5.95570283 L19.9342544,5.88259836 C19.8805291,5.88259836 19.8903597,5.73617564 19.8878449,5.69128693 C19.873442,5.43413872 19.8972183,5.17827305 19.8972183,4.91171959 C19.896761,4.51541636 19.8757281,4.09239367 19.9150505,3.71532847 L19.9150505,3.71532847 Z M19.8982224,6.8189434 C19.8948109,6.6230052 19.8629699,6.38627441 19.9182368,6.20437956 C20.8357131,6.20437956 21.6638071,6.38738896 22.446414,6.65287519 C22.5908358,6.70146964 22.7736942,6.74493716 22.895145,6.83298675 C22.9724732,6.88938307 22.9836175,6.99571131 23.0604908,7.06637389 L23.5376513,7.4843308 C23.6998131,7.63345782 23.8647041,7.81089446 24.0502918,7.92145799 C24.0502918,7.95088216 24.0614361,7.93951373 24.0871364,7.93951373 C24.0871364,7.90407099 24.1878905,7.83786661 24.2176846,7.81468393 C24.2768179,7.76831858 24.3314025,7.6954269 24.416691,7.70501204 C24.4912899,7.71303681 24.5667986,7.78525977 24.6250222,7.82627527 C24.8224565,7.96846173 25.0104701,8.12280393 25.187926,8.28836843 C25.2882252,8.38332824 25.3887519,8.47784223 25.4890511,8.5719104 L25.4890511,8.58996613 C25.4774519,8.63811477 24.3643807,9.7457563 24.280002,9.78030741 C24.214273,9.80638792 24.1410387,9.78498852 24.0684866,9.78922382 C23.9672777,9.79546531 23.8173974,9.88529818 23.7605385,9.75311234 C23.6686544,9.54246206 23.9035956,9.46065396 24.0318695,9.38553318 L24.0500643,9.38553318 C24.0500643,9.3215579 23.9513572,9.30751455 23.9047328,9.3215579 C23.8337728,9.34251148 23.7737297,9.39801615 23.6986759,9.41272824 C23.6884413,9.41116787 23.6772969,9.40871585 23.6675172,9.40715548 C23.5715392,9.37728549 23.4894349,9.25914301 23.4148359,9.19472191 C23.2660929,9.06587973 23.0052239,9.06476518 22.795528,9.07836271 L22.795528,9.04225124 L22.8141778,9.04225124 C22.8719465,8.95687657 22.9497296,8.93993538 23.0184152,8.87952668 C23.0366101,8.85589818 23.0543501,8.83160095 23.0720901,8.80730373 L22.8833183,8.78189195 C22.8278239,8.79704985 22.9037875,8.9918735 22.6301822,8.9704741 C22.540345,8.96334097 22.460515,8.90672174 22.3827319,8.87061027 L21.9226292,8.67355752 C21.3055956,8.46669671 20.6419378,8.3329505 19.9182368,8.35546445 C19.9182368,8.28257276 19.8832117,8.22149532 19.8832117,8.13790394 C19.8834391,7.69475817 19.9050455,7.25807679 19.8982224,6.8189434 L19.8982224,6.8189434 Z M19.8915976,10.0834125 C19.8915976,9.72973389 19.8897291,9.377789 19.8897291,9.02671098 C19.8897291,8.84315352 19.8820217,8.65049403 19.9016406,8.46715328 C20.8772167,8.46715328 21.7827251,8.62253782 22.5345516,9.02952827 L22.5345516,9.06485279 C22.4911096,9.06485279 22.4086633,9.17082634 22.3832053,9.205284 L22.3640535,9.205284 L22.3640535,9.2228379 C22.4549079,9.2228379 22.5793949,9.1322511 22.6861314,9.11751449 L22.6861314,9.15262229 C22.6679138,9.15262229 22.4813001,9.34874921 22.4588785,9.38125644 C22.4320192,9.38125644 22.5277784,9.49589858 22.5537034,9.52190436 C22.5537034,9.6174756 22.2383987,9.88836914 22.1459093,9.92499395 L21.9282323,9.96140204 C21.867507,9.96140204 21.7880969,9.95576745 21.738816,9.97895594 C21.5879368,9.97895594 21.509461,10.0355185 21.3980533,10.1018333 L21.3980533,10.1193872 C21.3405978,10.1193872 21.2726321,10.0925145 21.2275552,10.0667254 L21.2084034,10.0667254 L21.2084034,10.0316176 C21.2317593,10.0316176 21.3448019,9.83722444 21.3597497,9.8029835 C21.3922144,9.8029835 21.3090673,9.52558852 21.3032284,9.46924266 L21.2653918,9.46924266 C21.2653918,9.48614642 21.082048,9.66081857 21.0568236,9.69766009 L21.0381389,9.69766009 C21.0404745,9.70264453 21.0423429,9.70762897 21.0439778,9.7123967 C21.1201181,9.89313687 21.0864856,9.85456163 20.9430803,9.94363142 L20.8295707,9.96118533 C20.6854647,9.96118533 20.2968225,10.0277168 20.1856484,10.0840626 L20.1478118,10.0840626 C20.1478118,10.2834403 20.073073,10.2461653 19.9014071,10.2773723 L19.9014071,10.2596016 C19.8673074,10.2596016 19.8915976,10.1189537 19.8915976,10.0834125 L19.8915976,10.0834125 Z M20.2031193,10.698018 C20.2748952,10.7313141 20.3593508,10.7573815 20.4195792,10.8123641 C20.506299,10.8910044 21.1307723,11.7770771 21.1280552,11.8416979 C21.1239796,11.9216526 20.9829184,11.9659015 20.9335583,12.0204459 L20.9154445,12.0204459 C20.9181616,12.025046 20.9206522,12.0287699 20.9229164,12.03337 C21.0119005,12.1827647 21.0909219,12.3391692 21.166547,12.4936021 C21.2023218,12.5667661 21.2774941,12.6429968 21.2793054,12.7310565 C21.2802111,12.7945821 21.2186242,12.8659936 21.1722076,12.9089282 C21.1722076,13.0513131 21.2974192,13.1674117 21.2836075,13.3150539 C21.2738713,13.4177902 21.1964348,13.5111071 21.1545466,13.6022335 C21.0589963,13.8059535 20.9419359,14.0074831 20.8785376,14.2234701 C20.8785376,14.2565473 20.8232905,14.3021104 20.8090259,14.3316827 C20.7859308,14.3765887 20.7585337,14.4515052 20.7125699,14.4815155 C20.671361,14.5075829 20.6029814,14.5047352 20.5475079,14.5060496 C20.332633,14.5088973 20.1607783,14.4848013 20.0335288,14.6495298 C20.0040939,14.6495298 20.0215284,14.6898357 20.0201699,14.7191889 C20.0140565,14.7835907 20.0070374,14.8473354 20.0006976,14.9117372 C19.9606208,15.057408 19.8394847,15.2519278 19.9232611,15.4138086 C19.9232611,15.4536764 19.9726212,15.4622195 19.9785082,15.5040588 C19.9991126,15.6644061 19.9037887,15.8138009 19.7581991,15.8578307 L19.7581991,15.875355 L19.7396324,15.875355 C19.7396324,15.8081055 19.6823475,15.7791904 19.6565354,15.7285889 C19.6187228,15.6549868 19.5881558,15.4834677 19.6112509,15.3956271 C19.6112509,15.3673692 19.5958541,15.3691216 19.5745704,15.3601404 L19.5745704,15.3781028 C19.5505696,15.3781028 19.553966,15.3820458 19.546494,15.3995701 C19.530418,15.4475429 19.5136628,15.4950775 19.4975868,15.5428313 C19.433962,15.6492914 19.3558463,15.6116142 19.3356947,15.7686758 C19.4206031,15.7686758 19.466114,15.6941975 19.4826429,15.6267289 L19.5009831,15.6267289 C19.5141156,15.6635299 19.5267953,15.6994548 19.5399278,15.7353796 C19.5537395,15.8286965 19.5077758,15.9458903 19.4643027,16.0173019 L19.4643027,16.0352643 C19.3902625,16.0199305 19.3162223,16.0035015 19.2421822,15.9881677 C18.6303886,15.8692215 18.0962579,15.4414094 17.7914932,14.9165564 C17.749605,14.8442686 17.6404694,14.7259796 17.6526962,14.6344151 C17.6585832,14.5855661 17.7181323,14.5627845 17.7582091,14.5478888 C17.9493097,14.4756011 18.1766379,14.4368285 18.3804181,14.3989322 C18.5552163,14.3658551 18.7223161,14.2994818 18.9134167,14.2940055 C18.9134167,14.4044086 18.8479806,14.536498 18.8033754,14.6315674 L18.8033754,14.6672732 C18.9134167,14.6672732 19.0393076,14.7117411 19.1436884,14.6799783 C19.2107094,14.6589491 19.3037691,14.4596101 19.3359211,14.4006847 C19.4267165,14.4006847 19.0950075,14.2302608 19.0789315,14.223032 C19.0789315,14.1286198 19.334789,13.8410022 19.3961495,13.7461519 C19.4534344,13.6561207 19.4631705,13.57989 19.4631705,13.4589723 C19.4631705,13.3702555 19.4724539,13.2697098 19.4287543,13.2026793 C19.3789414,13.1266677 19.2675415,13.0721233 19.1939542,13.0243695 L18.6931076,12.6773883 L18.6747674,12.6773883 C18.5794435,12.7917344 18.4836668,12.9060805 18.3876636,13.0204266 C18.1927139,13.2653287 17.9968584,13.5095737 17.8019086,13.7544759 C17.692773,13.8981752 17.5349565,14.0348648 17.4810679,14.2052887 L17.4441611,14.2052887 L17.3891404,14.0101117 C17.3282327,14.0221597 17.2668722,14.0337695 17.2055117,14.0453794 C17.2055117,14.137601 17.258721,14.2313561 17.2886088,14.3145965 C17.3753286,14.560594 17.4987289,14.7941053 17.6375259,15.016445 C17.7138303,15.1314482 17.7901347,15.2457943 17.866439,15.3599213 L17.8847793,15.3599213 C17.882515,15.3649596 17.879798,15.3693407 17.8773073,15.3739408 C17.7976066,15.5152305 17.5508061,15.7088741 17.421066,15.8350491 C17.1362265,16.1106188 16.8511605,16.3853123 16.5665474,16.6604439 C16.4304675,16.7901237 16.294614,16.9189274 16.1585341,17.047731 L16.1585341,17.0656934 C16.1041927,17.0656934 15.9289417,16.8510207 15.8929405,16.8043622 C15.2197864,15.9362519 14.7445255,14.935395 14.7445255,13.7433042 L14.7630922,13.7433042 L14.7630922,13.7255608 L15.3169216,13.9121946 C15.4396426,13.9516243 15.5888551,13.9255569 15.717463,13.9573197 C15.8741474,13.9956542 15.9993591,14.1321247 16.1404203,14.2044124 C16.193856,14.2315751 16.2656319,14.2225939 16.3068408,14.2721001 C16.379296,14.3588454 16.4331846,14.4909348 16.4709971,14.5962997 C16.5629247,14.5962997 16.8079138,14.5667275 16.8796898,14.5231358 C16.9668624,14.4692485 17.0069392,14.3194157 17.0510916,14.2370515 C17.1108671,14.1273055 17.1699634,14.0166833 17.2290597,13.9069374 C17.3117039,13.8274208 17.3938953,13.7474662 17.4765395,13.6681687 C17.5311073,13.6158148 17.5883922,13.5415556 17.6556397,13.5141739 C17.7323969,13.5021259 17.8089277,13.4892017 17.8852321,13.4771538 C17.9019874,13.429181 17.9180634,13.3812082 17.9345922,13.3327973 C17.9776125,13.1923838 18.0419165,13.0725614 18.0715778,12.9268906 C18.0801819,12.6132055 18.0881067,12.2995204 18.0962579,11.9858354 C18.1216172,11.8508982 18.3684177,11.5989863 18.4657794,11.4817925 C18.535744,11.3948282 18.6052557,11.3076447 18.6747674,11.2202423 C18.7934128,11.093191 18.982702,11.0587996 19.1314616,10.9860737 C19.2387858,10.9328437 19.3363739,10.82025 19.4230938,10.7367905 C19.4620384,10.6984561 19.5222668,10.6607788 19.5360786,10.6112726 C19.56257,10.5113841 19.4960018,10.3709706 19.4430189,10.2986828 C19.3764507,10.2077755 18.7728083,9.73812412 18.6856357,9.71709496 C18.5760472,9.69037039 18.2432061,9.97514036 18.135429,10.0380088 C18.006821,10.1111728 17.8501366,10.1249732 17.7031884,10.1617742 C17.5397114,10.201642 17.3049112,10.2927684 17.1321509,10.2877302 C17.0049014,10.2833491 16.8778784,10.2417289 16.7626293,10.2156614 C16.6765888,10.1957276 16.5878312,10.1874035 16.5160552,10.1424975 L16.3242754,9.97754995 C16.3242754,9.88817599 16.5636039,9.71271388 16.6324364,9.65269313 C17.1602272,9.18807998 17.8340606,8.85161332 18.5112903,8.66826527 C18.6763523,8.62883558 18.8411879,8.58896779 19.0064763,8.54888094 L19.4643027,8.46739292 C19.5338144,8.46892629 19.6434029,8.45556401 19.6784983,8.51755624 C19.7323869,8.61306371 19.702952,8.80889782 19.702952,8.92937742 C19.7017821,9.34959674 19.7002726,9.76981511 19.6984235,10.1900322 C19.6902723,10.2822538 19.6359309,10.339865 19.6293647,10.4393154 C19.6708,10.4393154 19.7063483,10.4730497 19.7407645,10.4896978 L20.2031193,10.698018 L20.2031193,10.698018 Z M19.6396922,4.45727469 C19.6396922,4.93029652 19.6459709,5.44695184 19.6309469,5.91888826 L19.6127835,5.91888826 C19.6127835,5.94602352 19.3176848,5.93430108 19.2670067,5.95427263 C19.1672203,5.95427263 19.0438887,5.94059646 18.9580051,5.97185628 C18.9158481,5.97793458 18.8734669,5.98336163 18.8306373,5.98943993 C18.7824258,5.99551823 18.7335417,6.00094528 18.6853303,6.00724066 C18.6368946,6.01310187 18.5880105,6.01874601 18.539799,6.02482431 C18.4913634,6.0309026 18.4424792,6.03632966 18.3942678,6.04262504 C18.3346202,6.04262504 18.2760938,6.05130832 18.2305732,6.07779233 C18.0789875,6.07779233 17.8776208,6.11513045 17.7576528,6.18329422 C17.5179411,6.18329422 17.1876368,6.32092425 16.9775247,6.39950796 C16.5768093,6.54864334 16.184615,6.70429118 15.8130507,6.90682875 C15.4793828,7.08830936 15.1822658,7.30908182 14.8656401,7.52095392 C14.7160726,7.6203775 14.5813049,7.7293527 14.4416038,7.84939909 C14.3801623,7.90106462 14.3124421,7.94621769 14.2658003,8.01459854 C14.2238676,8.01459854 14.1920256,7.99419283 14.1635473,7.97053088 C13.6646151,7.48643787 13.1650102,7.00169361 12.6654053,6.5176006 C12.6523994,6.49936571 12.6387209,6.48026248 12.6432056,6.45486388 C12.6636114,6.33546875 13.3962008,5.81056431 13.5269322,5.71656777 C14.7196604,4.84997615 16.0785498,4.25082965 17.5585284,3.93562648 C17.9235562,3.85665631 18.2938648,3.80261451 18.6667184,3.77390034 C18.8548551,3.75588253 19.042319,3.73721347 19.2304557,3.71897858 C19.3356239,3.73482557 19.5441663,3.67816715 19.6145774,3.76565123 C19.674225,3.83902496 19.6396922,4.33353792 19.6396922,4.45727469 L19.6396922,4.45727469 Z M12.352262,3.48609713 C13.3469395,2.77604569 14.4717386,2.26493299 15.6358664,1.8819315 C16.0880334,1.73294948 16.560876,1.58352339 17.0433822,1.4980419 C17.4373428,1.42765844 17.838495,1.34661755 18.2461644,1.30221158 L19.0482439,1.22627737 L19.649635,1.22627737 L19.649635,3.58512244 L19.6314315,3.58512244 C19.6314315,3.62175737 19.2936547,3.59755611 19.2305041,3.62109128 C19.1594878,3.62109128 19.0711669,3.61265414 19.0118369,3.6390757 C18.9143018,3.6390757 18.7828318,3.62109128 18.7019272,3.65728214 L18.5742776,3.67526656 C18.519667,3.6814834 18.4650564,3.68703414 18.4104458,3.69347301 C18.3621277,3.69968984 18.3129107,3.70524059 18.2645927,3.71145743 L18.1007608,3.72944184 C18.0128894,3.72944184 17.8949035,3.74409581 17.8272582,3.78361712 C17.6746631,3.78361712 17.5281358,3.83024339 17.3917216,3.86288178 C17.2105851,3.90506745 17.0323702,3.94392267 16.8597737,3.99410142 C15.5111384,4.38398582 14.261836,4.98724091 13.1633309,5.8560437 C12.9815202,5.99903092 12.804429,6.13913175 12.6273377,6.29899324 C12.5805928,6.34273312 12.5340727,6.38691705 12.487103,6.43065693 C12.3608019,6.43065693 12.0935919,6.10560524 11.9989784,6.01213068 C11.5906348,5.61114478 11.1822911,5.21082497 10.7737227,4.8100611 C10.7732733,4.60490552 12.1396626,3.63752149 12.352262,3.48609713 L12.352262,3.48609713 Z M6.92272142,11.9538759 L7.01792041,11.4891036 C7.10970316,10.9489866 7.2593341,10.438876 7.43697814,9.94037384 C7.93347045,8.54320977 8.58278218,7.33637891 9.50858092,6.15013646 C9.86774073,5.68886862 10.2952252,5.28410938 10.6999347,4.84671533 C10.8978484,4.9827302 11.0538563,5.16539752 11.2280841,5.33295208 L11.9748723,6.05398424 C12.1071943,6.18101906 12.3155845,6.32053835 12.3991683,6.48086506 C12.450184,6.48086506 12.2821054,6.64294398 12.2602415,6.66900802 C12.0737153,6.88496723 11.8502937,7.0680726 11.6692335,7.28687914 C11.4009454,7.60950379 11.1709192,7.9446129 10.9276835,8.27884591 C10.7878457,8.46917913 10.685131,8.67615829 10.5616912,8.8732813 C9.98685333,9.78596082 9.61972232,10.8999248 9.41247094,11.9880438 C9.35063287,12.311058 9.30654029,12.636982 9.28037666,12.9644598 C9.26876147,13.1059503 9.27855467,13.2746 9.24097612,13.4084246 C9.24097612,13.4579244 9.0512614,13.4428116 9.00092892,13.4439068 L6.80292557,13.4439068 C6.80247007,12.9447475 6.82843343,12.4306945 6.92272142,11.9538759 L6.92272142,11.9538759 Z M8.72518407,20.7018228 C8.33529067,20.1172222 7.96428879,19.5250799 7.67294988,18.8913497 C6.96053522,17.3441946 6.51237404,15.5972884 6.57519399,13.7066563 L6.59363028,13.7066563 C6.59363028,13.6831688 6.58725725,13.6889868 6.61206657,13.6889868 C6.78277296,13.6889868 7.01470605,13.7191542 7.16606571,13.6715328 C7.35634643,13.7060098 7.58714147,13.6889868 7.7935824,13.6889868 L9.03040709,13.6889868 C9.03040709,14.065217 9.04019426,14.4263635 9.07023858,14.7892339 C9.08275705,14.9439494 9.16082677,15.1529662 9.1055179,15.3087591 C9.06910054,15.4089578 8.76114621,15.5238093 8.66236412,15.5789725 C8.31685438,15.7709663 8.28567202,15.9605897 8.17323341,16.290276 C8.14387191,16.3745291 8.08036913,16.4973534 8.08879065,16.5915187 C8.11997301,16.77791 8.15047256,16.9636548 8.18119971,17.1491841 L8.199636,17.1491841 L8.199636,17.1664226 C8.28908614,17.1664226 8.39811062,17.0043807 8.54855986,17.0220502 C8.69240844,17.0675167 8.83534659,17.1121213 8.97828474,17.1571569 C9.10984246,17.2047782 9.27144451,17.2282657 9.38911812,17.3028222 L9.59260013,17.5267072 L9.78993672,17.7016779 L10.0362091,18.210429 C10.1295286,18.3847533 10.2226205,18.5588621 10.3154848,18.7331864 C10.5166907,19.0956258 10.768881,19.4401803 11.0135601,19.7823644 C11.1860812,20.0220556 11.3763062,20.2498857 11.582809,20.464147 L11.9173935,20.8252935 C11.9354365,20.8471013 11.9439138,20.8746506 11.9410648,20.9022203 C11.9267255,20.9968165 11.6042042,21.2541011 11.5204443,21.323917 C11.1093833,21.7147999 10.6974119,22.1054674 10.2854405,22.4963503 C10.053735,22.4967812 8.87745417,20.9304483 8.72518407,20.7018228 L8.72518407,20.7018228 Z M19.6076748,26.3064405 C19.5714234,26.3602474 19.4097376,26.3386802 19.3421275,26.3393472 C18.5692825,26.351576 17.8280186,26.2328451 17.123006,26.1061098 C16.5852394,26.0091684 16.0688232,25.8372976 15.566196,25.6827695 C15.1309564,25.5489192 14.7195137,25.367043 14.3087383,25.1869454 C13.2255001,24.7090996 12.2185011,24.0744789 11.3201078,23.3034812 C11.1306218,23.1322774 10.9409134,22.9617406 10.7514273,22.7909815 C10.6724748,22.7122722 10.5930775,22.6464588 10.540146,22.5535196 C10.5643877,22.5535196 10.5603845,22.5495174 10.5768422,22.5366215 C11.1239497,21.9954396 11.6708349,21.4540354 12.2174976,20.9124088 C12.4169917,21.0122406 12.594468,21.2216873 12.7641603,21.3762154 C13.0111896,21.6014052 13.27473,21.8077967 13.5525734,21.9936609 C14.0374085,22.3167247 14.51357,22.64468 15.0373254,22.8865888 C15.5030953,23.0998327 15.9779267,23.2927121 16.4604721,23.4646796 C17.0838634,23.6883562 17.8491467,23.8337683 18.5481544,23.9015828 C18.7347492,23.9142563 18.9208992,23.9271522 19.107494,23.9402704 C19.2202515,23.9438279 19.5342824,23.9255958 19.6081196,23.98674 C19.6463727,24.0180903 19.6372542,24.0770111 19.6430367,24.1257042 C19.6452607,24.2751184 19.6468175,24.4240879 19.6485967,24.5730575 L19.6394782,25.5822706 C19.6397006,25.7316848 19.6768417,26.2001607 19.6076748,26.3064405 L19.6076748,26.3064405 Z M19.6227502,23.8189243 C19.6227502,23.8673294 19.4507946,23.8522165 19.4067491,23.8502453 C19.2343486,23.839951 19.0683992,23.848055 18.9011151,23.832285 C18.4370796,23.7886985 17.9861689,23.7389792 17.5490502,23.6531204 C16.284409,23.4040859 15.1154223,22.9044837 14.059219,22.2298785 C13.6870563,21.9920144 13.3173406,21.7405706 12.9772111,21.4448833 C12.8363988,21.3224468 12.4884835,21.0782309 12.4157416,20.9192168 C12.3937188,20.8721259 12.4281989,20.8302916 12.4580075,20.7972184 C12.6971437,20.5284714 12.9763213,20.2993685 13.2316965,20.0485818 L13.6968442,19.6065839 C13.7718106,19.5608071 13.889043,19.5787674 13.9757994,19.5562075 C14.0683395,19.5616832 14.1815677,19.5404376 14.263875,19.575482 C14.3715419,19.6208207 14.4758721,19.7307726 14.5619611,19.8137841 C14.6331458,19.8676649 14.7041081,19.9206696 14.7750704,19.9745504 C15.1040201,20.2188417 15.4474244,20.4436684 15.8034672,20.6478415 C16.8705708,21.2560814 18.2428788,21.6163819 19.6223053,21.6163819 L19.6223053,21.6343422 C19.6523364,21.6343422 19.6405464,21.822925 19.6405464,21.8654164 L19.6405464,23.2685078 C19.6409913,23.4202939 19.6696877,23.6914502 19.6227502,23.8189243 L19.6227502,23.8189243 Z M28.7215294,22.6854082 C28.4865005,22.9185056 28.2443658,23.1445016 27.9954595,23.3630843 C26.8621474,24.3511413 25.487705,25.0762459 24.105225,25.5798704 C23.7026715,25.7259061 23.2806936,25.8673092 22.8575993,25.9586366 C22.6224973,26.0142272 22.3878419,26.0698178 22.1529632,26.1249673 C22.0848662,26.1249673 22.008285,26.1335706 21.9540307,26.1607041 C21.9120562,26.1671014 21.8694119,26.172837 21.8272141,26.1787931 C21.7613498,26.1787931 21.6798567,26.1882788 21.6278351,26.2145299 L21.483157,26.2321777 C21.4347076,26.2385751 21.3862583,26.2443106 21.3380323,26.2502667 L21.1938007,26.2679146 C21.1393231,26.2743119 21.0848455,26.2800474 21.0308145,26.2860036 C20.9640572,26.2860036 20.8856898,26.279165 20.8314355,26.3040926 C20.762892,26.3040926 20.6686726,26.2946069 20.614195,26.3217404 C20.5396233,26.3217404 20.438036,26.3100487 20.3786465,26.3398294 C20.2879994,26.3398294 19.9682786,26.3583596 19.9240714,26.3067398 C19.850616,26.2209273 19.8986187,25.4618506 19.8986187,25.3014761 C19.8986187,24.8638103 19.8794176,24.4095997 19.9077728,23.97789 L19.9258575,23.97789 C19.9258575,23.9472269 20.1509124,23.959801 20.1975756,23.9589186 C20.9039979,23.9481093 21.605285,23.8300896 22.245843,23.6637589 C23.0333118,23.4586031 23.7589352,23.1786646 24.4711625,22.8334292 C24.6808118,22.7317337 24.9025177,22.6249644 25.0978778,22.5003267 C25.3568696,22.3335549 25.6245688,22.1617093 25.880658,21.9876577 C25.9963112,21.900301 26.1117412,21.8114002 26.2273944,21.7240435 C26.4086886,21.5960968 26.5797124,21.4423402 26.7489501,21.290569 C26.9608322,21.099752 27.1903524,20.9076115 27.3680743,20.6861314 C27.5399913,20.7271626 27.8769038,21.1553427 28.0146606,21.3004959 C28.3142872,21.616833 28.636464,21.9139781 28.9273832,22.2406833 C28.96132,22.2786261 29.0001688,22.3220838 28.9914613,22.3803216 C28.9767256,22.4692225 28.7891799,22.6183465 28.7215294,22.6854082 L28.7215294,22.6854082 Z M32.7291043,13.9176928 C32.7028353,14.1923555 32.7243073,14.4693934 32.69781,14.7390897 C32.6511029,15.1968725 32.585035,15.6527051 32.499765,16.1054934 C32.1785986,17.8156574 31.4869259,19.3856829 30.4925893,20.77843 C30.2389461,21.1347811 29.9648833,21.4777576 29.6716277,21.8058239 C29.5334302,21.9610775 29.3950043,22.1154673 29.2568068,22.270073 C29.2456139,22.2679137 29.2339642,22.2651066 29.2229998,22.2625155 C29.1654366,22.2316375 29.1256905,22.1806781 29.0820612,22.134685 C28.976757,22.030175 28.8714528,21.9250172 28.7656918,21.8205072 C28.5185353,21.5767224 28.2709219,21.332074 28.0228517,21.0878574 C27.8841974,20.9647774 27.7498831,20.8419134 27.6329292,20.7037183 C27.6084877,20.6749996 27.5874725,20.649304 27.5918126,20.6091411 C27.6020918,20.5121886 27.8430808,20.2971225 27.9166338,20.2139895 C28.0641968,20.0267784 28.2110744,19.8395673 28.3584089,19.6521402 C28.7099559,19.1596044 29.0258685,18.6508738 29.2814768,18.1110493 C29.6035568,17.4304386 29.8721854,16.7180862 30.0318548,15.9644913 C30.0937582,15.6693153 30.1330474,15.3652861 30.1915243,15.0670871 C30.2472602,14.781412 30.2518287,14.4810536 30.2570825,14.1793997 C30.2589099,14.0606383 30.2374379,13.7952606 30.2753565,13.7067294 C30.2753565,13.6836249 30.461295,13.6808178 30.4980715,13.6715328 L31.9791831,13.6797382 C32.1107562,13.6732603 32.2548927,13.6715328 32.3887501,13.6793063 C32.4846889,13.6847046 32.5957037,13.65577 32.6841044,13.6890232 C32.7224799,13.6890232 32.7332159,13.8716998 32.7291043,13.9176928 L32.7291043,13.9176928 Z" id="Shape"></path>
                </g>
            </g>
        </g>
    </g>
</svg>