<?xml version="1.0" encoding="UTF-8"?>
<svg width="174px" height="139px" viewBox="0 0 174 139" version="1.1" xmlns="http://www.w3.org/2000/svg" xmlns:xlink="http://www.w3.org/1999/xlink">
    <!-- Generator: Sketch 53 (72520) - https://sketchapp.com -->
    <title>un-1@1x</title>
    <desc>Created with Sketch.</desc>
    <g id="Page-1" stroke="none" stroke-width="1" fill="none" fill-rule="evenodd">
        <g id="Splash" transform="translate(-100.000000, -235.000000)" fill="#FFFFFF" fill-rule="nonzero">
            <g id="un-1" transform="translate(100.000000, 235.000000)">
                <path d="M106.314487,7 C106.715654,7.28440732 106.964751,7.92979316 106.989008,8.4508751 C106.990874,8.54932379 107.038454,8.61197295 106.91997,8.61197295 C106.453496,8.89439141 105.340491,9.29713604 104.791919,9.33591885 C104.643394,9.31094395 104.495051,9.2847565 104.346903,9.25735879 L104.346903,9.33890215 L104.12113,9.65910899 L103.574424,10.0519093 C103.337455,10.2856006 102.455821,11.7106205 102.455821,12 L102.304683,12 C102.217181,10.9799956 102.129173,9.96004057 102.04066,8.94013524 C102.029464,8.83870326 101.935237,8.69252188 102.07891,8.69252188 C102.472614,8.44590294 103.742354,8.25198886 103.742354,7.64439141 C103.975591,7.69112967 104.283463,7.8959825 104.535358,7.82836118 C104.651977,7.79355609 104.650111,7.64439141 104.801248,7.64439141 C105.112852,7.45047733 105.92918,7.07955449 106.31542,7.07955449 L106.314487,7 L106.314487,7 Z M113.099998,10 L113.267398,10 C113.408965,10.5480954 114.040331,11.4086051 113.997964,11.9446424 C113.951464,12.5124692 112.680465,13.6119485 112.680465,14 C112.415932,13.8585914 110,11.1224993 110,10.9767059 C110.7223,10.7629488 111.446666,10.5491916 112.169999,10.333242 C112.464498,10.2466429 112.765198,10.0887914 113.099998,10.0887914 L113.099998,10 L113.099998,10 Z M113.40052,20.5119595 C113.36552,20.4579595 113.56852,20.4639595 113.60352,20.5249595 L113.40052,20.5119595 Z M106.461,30.378 C106.461,30.484 106.484,30.46 106.379,30.46 C106.436,30.518 106.461,30.521 106.461,30.622 L106.541,30.622 L106.541,30.54 L106.621,30.54 C106.567171,30.4864919 106.513835,30.4324896 106.461,30.378 L106.461,30.378 Z M101.945642,35 C102.696148,35.0623715 103.39327,35.3139136 104.063177,35.5017135 C104.378242,35.574366 104.691215,35.6490747 105,35.7224126 L105,35.7779301 L104.916262,35.7779301 L104.916262,35.8334476 C103.67484,36.1220014 102.822802,34.8937629 101.501829,35.7080192 C101.389829,35.7758739 101.094651,35.9061001 101.094651,36 L101.010913,36 C101.010913,35.9218643 100.955436,35.888965 101.094651,35.888965 C101.379361,35.5921864 101.664072,35.2967786 101.945642,35 Z M99.418,36.419 L99.418,36.581 C99.5,36.538 99.582,36.54 99.582,36.419 L99.418,36.419 Z M120.328336,39 C120.517525,39.4869232 121.107721,43.1462896 120.982802,43.6257708 C120.927584,43.8330853 120.656022,44 120.47498,44 C120.370881,43.1377844 120.264971,42.2787582 120.156346,41.4154795 C120.08755,40.9264299 119.942717,40.3034233 120.024186,39.7856687 C120.124664,39.5251967 120.227858,39.2636615 120.328336,39 L120.328336,39 Z M106.378,40.419 C106.45,40.51 106.478,40.581 106.622,40.581 C106.542,40.528 106.46,40.475 106.378,40.419 Z M84.4586753,43.338 C84.4866753,43.447 84.5146753,43.556 84.5396753,43.662 C84.5487361,43.5480562 84.5202907,43.4342748 84.4586753,43.338 Z M72.5005,57.4185 C72.5005,57.5255 72.5255,57.5005 72.4185,57.5005 L72.4185,57.5815 C72.4845,57.5135 72.4725,57.5005 72.5815,57.5005 L72.5005,57.4185 Z M56.4732612,60.419 L56.4732612,60.5 C56.3892612,60.518 56.5212612,60.581 56.5542612,60.581 C56.5262633,60.5275047 56.4992587,60.4734954 56.4732612,60.419 Z M56.4651649,61.338 C56.4651649,61.455 56.4091649,61.662 56.5461649,61.662 L56.4651649,61.338 Z M54.4661583,61.1755 C54.4661583,61.3225 54.4011583,61.8245 54.5481583,61.8245 C54.5191583,61.6095 54.4941583,61.3935 54.4661583,61.1755 Z M85.6615,67.2179655 L85.6615,67.2979655 C85.4465,67.4069655 85.2305,67.5169655 85.0135,67.6219655 L85.0135,67.7019655 L85.1755,67.7019655 C85.2975,67.7389655 85.8245,67.8619655 85.8245,67.7019655 L85.9055,67.7019655 C85.9055,67.5729655 85.8425,67.2979655 85.9865,67.2979655 L85.6615,67.2179655 L85.6615,67.2179655 Z M86.4241649,67.379 C86.4241649,67.49 86.3681649,67.621 86.5051649,67.621 C86.5051649,67.512 86.4781649,67.539 86.5871649,67.539 L86.4241649,67.379 L86.4241649,67.379 Z M103.459,74.379 C103.459,74.484 103.486,74.459 103.379,74.459 C103.449,74.551 103.479,74.621 103.621,74.621 C103.569198,74.5388831 103.515179,74.4581868 103.459,74.379 L103.459,74.379 Z M101.459,76.378 C101.459,76.483 101.486,76.458 101.379,76.458 C101.436,76.517 101.459,76.52 101.459,76.622 L101.541,76.622 L101.541,76.54 L101.621,76.54 L101.459,76.378 L101.459,76.378 Z M61.297,80.257 C61.358,80.409 61.477,80.743 61.703,80.743 L61.703,80.661 C61.556,80.523 61.465,80.366 61.297,80.257 L61.297,80.257 Z M114.166511,85 C114.423334,85.1555731 114.49946,85.5426087 114.602356,85.8300395 C114.746244,86.2265613 114.97797,86.7065613 114.99972,87.1562055 C115.014778,87.5290119 114.418314,89.7449802 114.240128,90.0219763 C114.068634,90.2828458 113.142568,91 112.87738,91 C112.669914,90.6869565 112.057556,90.1101976 112.006526,89.7497233 C111.929563,89.2175494 112.555306,87.8287747 112.7268,87.3003953 C112.836389,86.952253 112.894948,86.5367589 113.086519,86.2350988 C113.37764,85.7655336 113.808466,85.4041107 114.166511,85 Z M51.4981129,86.297 C51.4631129,86.399 51.3411129,86.623 51.4981129,86.623 L51.4981129,86.703 L51.5801129,86.703 L51.5801129,86.297 L51.4981129,86.297 L51.4981129,86.297 Z M55.4595,90.419 C55.5075,90.472 55.5405,90.499 55.5405,90.581 C55.5125,90.528 55.4875,90.476 55.4595,90.419 Z M46.4185,97.419 L46.4185,97.501 L46.5005,97.501 L46.5005,97.581 C46.5655,97.513 46.5815,97.526 46.5815,97.419 L46.4185,97.419 L46.4185,97.419 Z M46.4346954,97.419 C46.4346954,97.526 46.4066954,97.501 46.5166954,97.501 L46.5166954,97.581 C46.5726954,97.522 46.5976954,97.501 46.5166954,97.501 L46.4346954,97.419 Z M24.419,108.379 C24.447,108.484 24.437,108.621 24.581,108.621 C24.528,108.541 24.475,108.459 24.419,108.379 Z M98.4600372,112.257 C98.4620372,112.384 98.4330372,112.743 98.5420372,112.743 L98.5420372,112.663 C98.5120372,112.528 98.4870372,112.394 98.4600372,112.257 L98.4600372,112.257 Z M143.030965,8.14876033 C144.299218,10.0165289 145.637875,11.8580457 147.169166,13.5848323 C148.221317,14.7729703 149.073012,16.2022363 150.251304,17.3028683 L153.090939,19.8385999 C153.978814,20.5892076 155.109192,21.1424404 155.921773,22 L156,22 C156,20.7535246 155.388853,19.2659212 155.056389,18.1312591 C154.749348,17.114244 154.439374,16.0952844 154.130378,15.0782693 C153.65515,14.1740399 153.175033,13.2668935 152.699804,12.3626641 L151.744459,10.6008751 C151.271186,9.90568789 150.566167,9.36412251 150.000978,8.72532815 C149.137549,7.75206612 148.25163,6.71463296 147.247392,5.86387944 C145.971317,4.95089937 144.692308,4.03305785 143.416232,3.11716091 L141.95339,2.06222654 L139.682855,0.83033544 C139.146023,0.534759358 138.60528,0.140982013 138,0 C138.825293,1.52260574 139.577249,3.07535246 140.496415,4.54642684 C141.342243,5.74914925 142.185137,6.94992708 143.030965,8.14876033 L143.030965,8.14876033 Z M20.4890302,20.8031311 C21.1565954,20.5132157 21.8138759,20.2001046 22.4596765,19.8643669 C28.2176435,16.8269604 32.8706928,11.5279856 35.6760797,5.76641729 C36.3909513,4.28641643 37.0489612,2.77953948 37.6486627,1.24909947 C37.7842355,0.899972291 38.0689382,0.422831809 37.9846894,0 L36.1960979,0.823358271 C34.7115766,1.56622333 33.2532016,2.3895816 31.8722966,3.32543641 C27.4322901,6.32889997 23.3631718,10.6251039 21.3111819,15.4847603 C20.5916781,17.1828761 20,18.933361 20,21 C20.1868967,21 20.3321532,20.8700471 20.4890302,20.8031311 L20.4890302,20.8031311 Z" id="Shape"></path>
                <path d="M156.817688,16.0500156 C157.103637,17.1716161 157.385811,18.291341 157.667042,19.4129415 C157.829363,21.110347 157.989796,22.8077524 158.15023,24.5042201 C158.188922,25.3454204 158.233277,26.2203814 158.389936,27.0137543 L158.31255,27.0137543 L158.31255,27.0906533 L157.929398,27.0906533 L157.929398,27.0137543 L157.8539,27.0137543 C157.8539,26.9002813 157.925623,26.8646452 158.006783,26.7858706 L157.929398,26.7858706 C157.196122,26.2016255 156.685567,25.3594873 156.043833,24.70397 C155.490809,24.214442 154.937786,23.7221007 154.38665,23.2325727 C151.953724,20.9631135 149.256555,18.9459206 146.672632,16.9803063 L144.945614,15.7180369 C144.632297,15.5042201 144.317092,15.2875899 144,15.0737731 C144.001887,15.1450453 144.009437,15.345733 144.046243,15.43201 C144.152884,15.6458268 144.262356,15.8577681 144.368997,16.0687715 L145.423139,18.16005 L148.320378,21.5876837 C150.054947,23.4773367 151.76026,25.3763676 153.54579,27.2660206 L155.82772,29.7108471 C157.061411,30.7938512 158.295805,31.8760646 159.530901,32.9574867 C160.221708,33.5426696 161.189971,34.2075649 161.757151,34.923101 L161.832649,34.923101 L161.832649,35 L161.910035,35 L162.267707,32.9387309 C162.391335,32.2588309 162.513075,31.5789309 162.634816,30.8999687 C162.783925,30.1797437 162.963233,29.452954 162.975501,28.6849015 C163.019856,25.918412 163.069874,23.104095 162.481933,20.6348859 C162.262988,19.7130353 161.895879,18.8474523 161.628804,17.9546733 C160.65771,14.7239762 159.162848,11.2025633 156.425098,9.0268834 C155.835269,8.55892466 155.313389,8.14723351 154.561239,8 L155.87585,11.8740231 C156.191054,13.2666458 156.504371,14.6564551 156.817688,16.0500156 L156.817688,16.0500156 Z M13.0985497,36 C13.4749689,36 16.5659302,33.1926922 17.1133596,32.7440872 C17.9281154,32.0481382 18.7399228,31.3503083 19.5546786,30.6543593 C20.6809875,29.4966387 21.8063137,28.3351562 22.9326227,27.1746142 C25.0397836,25.0914696 27.0319549,22.972587 28.8305111,20.7634191 C29.3317481,20.1436483 32.2055068,16.3629524 31.9883041,15.8654429 C31.9883041,15.8908356 28.5012672,18.3511094 28.0933979,18.6247867 C26.9769171,19.3639974 25.9636322,20.2273503 24.8648421,21.0154655 C23.6835802,21.8574679 22.5595809,22.7706346 21.4996746,23.7494166 C20.7802521,24.3569612 20.0568984,24.9645059 19.3345274,25.572991 C18.5020809,26.3667491 17.8996137,27.3438991 17.0032841,28.0680623 L17.0032841,28.145181 L16.9236758,28.145181 L16.9236758,28.0680623 C16.8067205,28.0680623 16.8686381,27.8150754 16.8588099,27.6843499 L16.8656896,26.0018461 C16.7959096,25.243826 16.7634766,24.2836044 16.8873116,23.5556794 C16.9993528,22.4957679 17.1094284,21.4349159 17.2195039,20.3740639 C17.3856001,19.3846877 17.7305691,18.4047163 17.9939642,17.4501376 C18.4431119,15.8099551 18.8942251,14.2167961 19.5016064,12.6706608 C19.6981699,12.1656275 20.9109669,9.3479745 20.6691937,9 C19.9743417,9.5501759 19.2696615,10.1135184 18.6170706,10.7803128 C18.2239435,11.1781323 17.9153388,11.6549514 17.5929746,12.0960326 C16.2258753,13.957226 14.9521437,15.7610505 14.0066732,17.8253858 C13.6656355,18.6003344 13.3216493,19.3743425 12.9806116,20.1502316 C12.568811,21.5063917 12.4046805,23.0036226 12.2857596,24.4811035 C12.1530792,26.0855481 11.9299796,27.895956 12.0213816,29.5888049 C12.1393197,31.8318297 12.8842955,33.8359748 13.0985497,36 L13.0985497,36 Z" id="Shape"></path>
                <path d="M8.44587444,49.7148494 C8.87812772,51.046228 9.34680145,52.3384759 9.84997877,53.6391089 C10.1461346,54.4114762 10.4959626,55.17639 10.6608131,56 L10.7384462,56 L11.262709,55.0086866 C12.0208295,53.3726468 13.0262257,51.8232538 14.0412062,50.305538 C15.1395705,48.6499329 16.2350594,46.9924643 17.3334236,45.3368591 C18.1279645,43.9132436 18.921547,42.4868331 19.716088,41.0613542 L21.3482994,38.0725071 C21.5016487,37.6802674 21.6521226,37.2861645 21.8025966,36.8939249 L23.9811148,30.9795851 C24.0031588,30.8519442 24.0184937,30.7149864 23.9523618,30.612501 L23.9523618,30.6888992 C23.556529,31.0336229 23.1578209,31.3764832 22.7600712,31.7184118 C21.9703224,32.3938838 21.1882411,33.0637657 20.5230886,33.8529033 C18.3119837,36.4597594 15.7913049,38.9371112 13.7287571,41.6147754 C13.2428316,42.2399364 12.7760747,42.8548489 12.3054841,43.467898 C11.9537392,43.9216288 11.4994419,44.3753597 11.2828361,44.8943085 L11.1275699,44.8943085 L11.1275699,44.818842 C11.0231008,44.818842 11.0595212,44.4200806 11.0595212,44.2877812 C11.0326851,42.632176 11.1611151,41.0054531 11.0298098,39.3787302 C10.8937123,37.738032 10.7461136,36.0637931 10.5314246,34.4631573 L10.4729602,33.412216 C10.2534791,31.9718302 10.0675431,30.547283 10.018663,29.0202505 C10.0263304,27.3106075 10.0311226,25.5981695 10.0359148,23.8894583 C10.0359148,23.2922478 10.1375087,22.5198805 9.96019856,22 C8.74778083,23.7096429 7.67912804,25.5068643 7.11556944,27.5258269 C6.86254313,28.734223 6.60759996,29.9416874 6.35553208,31.1482202 L6.20985027,33.1056915 C6.14467682,33.7625298 6.07662808,34.4156414 6.00857934,35.0724797 C5.95969926,36.0237306 6.13221719,36.9591428 6.20985027,37.8684679 C6.55680301,42.0433508 7.22578924,45.9797221 8.44587444,49.7148494 L8.44587444,49.7148494 Z M160.425945,38.9242161 C160.052122,38.4815625 159.681168,38.0379691 159.305434,37.5953155 C158.601769,36.7382028 157.895235,35.8782707 157.19157,35.0183386 L155.181917,33.1058119 C154.448888,32.373653 153.675881,31.6812381 152.866323,31.0316368 C152.588107,30.8051411 152.364387,30.5551499 152.059402,30.3859829 L152.059402,30.3089179 C151.893046,30.3089179 152.124414,30.8605902 152.167438,30.9799469 L154.344402,36.998532 C154.88936,38.3875808 155.651346,39.6187405 156.352143,40.9260253 C158.005183,44.0133226 159.81215,46.9878419 161.630589,49.9961946 C162.463323,51.3702064 163.372543,52.7254218 164.190937,54.112591 C164.515999,54.7150134 164.837238,55.3155562 165.162301,55.9170387 C165.162301,56.0316964 165.209148,55.9941037 165.317184,55.9941037 C165.352558,55.839034 165.382196,55.6839642 165.416615,55.5298343 C165.453901,55.1698846 165.428087,54.8080552 165.396537,54.4697213 L165.473023,54.4697213 C165.527518,54.6219716 165.577234,54.7751617 165.627905,54.9274119 L165.706303,54.9274119 L165.706303,54.850347 C165.80669,54.850347 165.886044,54.3550637 165.926198,54.235707 C166.277075,53.293071 166.626039,52.3466757 166.97596,51.4012203 C167.434872,50.1362273 167.788617,48.7838313 168.107943,47.4549307 C168.37851,46.3854195 168.647165,45.3140286 168.916776,44.2445174 C169.045845,43.3864649 169.17109,42.5274726 169.299203,41.6675405 C169.549692,40.1572554 169.745686,38.6328729 169.822172,37.0154487 C169.88336,36.2795723 169.94168,35.5408766 170,34.8050002 L169.630002,30.6171778 C169.493284,30.0551675 169.357523,29.4903377 169.222717,28.9283275 C169.103209,28.3992107 168.981789,27.8682144 168.864192,27.3400375 C168.623263,26.6520918 168.240837,26.0083175 167.967401,25.3457468 C167.636602,24.5525417 167.228362,23.8025681 166.796219,23.0619927 L166.092554,22 L166.092554,27.0308379 C166.092554,28.1886918 166.14705,29.3766199 165.986431,30.4555293 L165.368811,35.0286765 C165.088684,36.7109481 164.702433,38.4204744 164.561891,40.1403387 C164.558066,41.6149108 164.550418,43.0866635 164.542769,44.5612356 L164.387886,44.5612356 C164.387886,44.4512771 162.969083,42.6458895 162.789342,42.4034169 C161.999631,41.2446231 161.213744,40.0848895 160.425945,38.9242161 L160.425945,38.9242161 Z" id="Shape"></path>
                <path d="M1.5031998,56.3408619 C1.7409018,57.2160603 1.97668685,58.0912587 2.21534733,58.9664571 C2.55752319,60.3762361 3.03388567,61.6951837 3.47095064,63.0302161 C3.65306105,63.5912892 3.79970784,64.1731779 4.06137174,64.6992431 C4.40163065,65.3871017 4.82144306,66.0390062 5.18566387,66.7155109 C5.80004686,67.8594189 6.39526034,69.0014345 7.15820709,70.0734343 L10.014465,74 C10.211911,74 10.3183018,73.8448297 10.3959384,73.6896594 L12.9809476,68.0183738 L13.7822334,66.2244537 C14.6937439,63.8486449 15.6014205,61.4699976 16.5100556,59.0904041 C16.7947229,58.1820901 17.0765148,57.2728299 17.3583067,56.3645159 C17.7714097,55.0739531 18.1816374,53.781498 18.5947405,52.4918813 L18.8861171,49.6761079 C18.9417087,48.9598645 19.1171098,47.5803626 18.8765324,46.9142657 C18.8765324,47.1299902 18.2286027,47.9143572 18.0829144,48.1300818 C17.2022933,49.428368 16.374783,50.7610024 15.602379,52.1247711 C15.1260165,52.9479307 14.7713805,53.799475 14.3247307,54.6406116 C12.8553873,57.3929923 11.7224689,60.1728116 10.9183077,63.2516176 C10.707443,64.0549078 10.3796443,64.8591442 10.3259696,65.7144732 L10.2483331,65.7144732 L10.2483331,65.790166 L10.09306,65.790166 C9.51701606,64.2081858 8.93905515,62.6233671 8.36396966,61.0404407 L7.62498481,58.4914846 C7.023062,56.9445123 6.36650607,55.4703943 5.83455199,53.8903064 C5.47512356,52.7889757 5.11377818,51.6866988 4.75147433,50.5853681 L3.68756618,48.0458735 L3.10193745,46.5253937 L2.44346457,45.2045538 C2.15879726,44.4779026 1.87508842,43.6150043 1.38626575,43 C1.26262237,44.7144427 1.13610357,46.426993 1.01246019,48.1414357 C1.01054323,49.3686058 1.00479238,50.5948297 1,51.8219998 C1.01246019,52.6158283 1.15814851,53.368972 1.21949096,54.1268465 C1.27699951,54.8714748 1.32300635,55.6530033 1.5031998,56.3408619 L1.5031998,56.3408619 Z M166.558147,58.1203658 C165.980832,59.9435241 165.452331,61.7724157 164.809305,63.5497084 C164.609357,64.0962737 164.451651,64.8578341 164.090242,65.3174458 L164.090242,65.3957996 L163.940047,65.3957996 C163.722263,64.5654408 163.507295,63.7312598 163.289511,62.8989899 C162.691544,60.8015934 162.114229,58.7529291 161.234645,56.810329 C160.695818,55.718154 160.153235,54.6240678 159.610653,53.5309372 C158.963872,52.1578353 158.300195,50.7455564 157.500402,49.457497 C156.860193,48.4283871 155.813516,47.6410273 155.261546,46.5631853 L155.186448,46.5631853 L155.186448,46.485787 C155.052211,46.485787 155.070985,46.6052288 155.055966,46.7208483 C154.852263,48.3232784 155.248404,49.7718675 155.542225,51.1401919 C155.732785,51.9629064 155.919592,52.7865765 156.109214,53.6102465 L157.511667,59.0252562 C157.843975,59.8871476 158.17159,60.747128 158.500143,61.6099749 C159.420092,64.1545613 160.404813,66.6609262 161.464632,69.1319365 C161.875793,70.0597597 162.284138,70.9866274 162.696238,71.9144507 C162.945938,72.5718579 163.20221,73.3697286 163.636839,73.9210715 C163.636839,74.0214026 163.609616,73.9975142 163.711937,73.9975142 C164.856241,72.3721513 165.998668,70.7448774 167.142033,69.1176035 C167.347614,68.7573672 167.549439,68.3933089 167.750326,68.0330727 C169.635283,64.8024131 171.259275,61.2908267 172.176408,57.5709339 C172.334114,56.9221265 172.580059,56.2991185 172.674871,55.6264227 C173.023137,53.183123 172.999669,50.5554052 172.999669,47.9601756 C172.999669,46.7609808 172.895471,45.621029 172.788456,44.4705664 C172.738704,43.9689112 172.808169,43.426168 172.617608,43 C172.350072,43.5866977 172.078781,44.1695733 171.809367,44.7553155 C170.780526,46.9014442 170.116849,49.1966362 169.220367,51.4249409 C168.712518,52.7540883 168.200913,54.0803691 167.691187,55.4076055 C167.314758,56.3134515 166.937391,57.2173864 166.558147,58.1203658 L166.558147,58.1203658 Z" id="Shape"></path>
                <path d="M173.914456,64.5943588 C173.914456,64.8764807 173.214769,65.6869755 173.029947,65.9555246 L170.052036,70.206744 C168.28396,72.7235435 166.836496,75.4836853 164.933575,77.9345593 C162.957102,80.4096707 160.9778,82.8809041 159.001328,85.3511679 L158.92589,85.3511679 L158.92589,85.4306662 L158.848566,85.4306662 L158.848566,85.3511679 L158.773128,85.3511679 C158.798588,85.065168 158.823106,84.7752901 158.84668,84.4873512 C158.874026,83.2560972 158.900429,82.0219347 158.929662,80.7916503 C158.95135,80.3999758 158.97021,80.0053928 158.991898,79.6117793 C158.903232,76.8645498 158.60751,74.1285241 158.107389,71.4283031 C158.009319,70.7787439 157.908421,70.1311237 157.809409,69.4815645 C157.400158,68.2163783 156.988079,66.9521617 156.576942,65.6869755 C156.372317,64.902657 156.16392,64.1163996 155.956466,63.3301421 C155.853682,62.897749 155.786731,62.3664677 155.558531,62 C155.536842,62.7697761 155.330331,63.4135183 155.20303,64.1290029 C154.921081,65.7800467 154.63536,67.4291514 154.354354,69.0801951 C154.214793,70.1902627 154.192162,71.3352319 154.176132,72.5335232 L154.00451,77.4944103 C153.973392,78.5211016 154.10918,79.5351895 154.230824,80.4804435 C154.363783,81.543006 154.402445,82.5881177 154.536347,83.6235344 C154.803209,85.7273306 154.856959,87.8010725 155.127592,89.9058382 C155.27281,91.2728209 155.417085,92.6359257 155.558531,94 L155.711293,94 C155.724494,93.9641288 155.736753,93.9243797 155.748069,93.8846305 L158.56756,91.5782107 C159.628405,90.6804617 160.68925,89.7807738 161.750096,88.8839943 C162.399805,88.2683673 163.048571,87.6498319 163.698279,87.0322659 L166.057599,84.8247341 C166.735597,83.9744903 167.414538,83.1223074 168.092537,82.2740025 C169.424015,80.6093859 170.5735,78.8788439 171.525904,77.0057867 C171.722985,76.4909868 171.920067,75.9761869 172.119034,75.4623565 C172.362321,74.8544854 172.603722,74.2446754 172.845124,73.6348653 C173.059179,72.9891841 173.196853,72.3415639 173.368474,71.6658285 C173.508034,71.0996455 173.652309,70.601327 173.733405,70.0128458 C173.82393,69.3322629 174.153971,64.8978096 173.914456,64.5943588 L173.914456,64.5943588 Z M8.41153518,85.0434735 C9.11785187,85.7720747 9.86021506,86.4305432 10.5743256,87.1435593 C11.3069465,87.8838493 12.0376189,88.6241392 12.7682914,89.3654033 C14.0230995,90.323884 15.2769334,91.2833387 16.5307673,92.2437676 C17.2692336,92.8106738 17.9658079,93.4136205 18.7364238,93.9142903 C18.7364238,94.0321523 18.7831868,93.9941637 18.894249,93.9941637 C19.1261158,90.8060465 19.356034,87.6169552 19.5849781,84.4307862 C19.9434947,80.2530181 20,75.9953767 20,71.5585072 C20,69.2168532 19.5849781,67.2375516 19.3794155,65.0790218 C19.3112195,64.3767204 19.2147707,62.4373555 18.8932748,62 C18.8338468,62.918544 18.4197991,63.7503962 18.2113139,64.6143925 C17.8313642,66.1836124 17.2409809,67.6486073 16.8688251,69.1954237 C16.6340356,70.1636451 16.5629169,71.169855 16.4138597,72.1838574 C16.0224729,74.8828647 15.7652847,77.5996281 15.6432438,80.3241249 C15.5662797,81.5874882 15.4883413,82.8527996 15.4094286,84.1161629 C15.3870214,84.5496222 15.2954437,84.9460669 15.3373356,85.3834225 L15.258423,85.3834225 L15.258423,85.5412211 C15.1590516,85.5412211 15.1571031,85.5236879 15.1005978,85.4613477 C14.76254,85.4613477 11.9772167,80.9124607 11.5621947,80.3134102 L9.29321325,76.9577537 L5.34465941,71.6062365 C4.41134715,70.2464407 3.47608644,68.8856708 2.53985149,67.525875 L0.166627422,64.369902 L0.0877147988,64.369902 L0.0877147988,64.2919767 C-0.0652392976,64.2919767 0.0234156245,65.2377946 0.0467971425,65.391697 L0.265998873,68.9509332 C0.419927199,70.5600898 0.75116537,72.6173167 1.38538904,73.9907494 L2.58271761,76.9889238 C2.92662077,77.7555136 3.44003993,78.4178783 3.87454647,79.1464794 C4.18240313,79.6617602 4.49123401,80.176067 4.80006489,80.6893996 L6.69883899,82.9570247 C7.26973772,83.6525076 7.84063645,84.3450684 8.41153518,85.0434735 L8.41153518,85.0434735 Z" id="Shape"></path>
                <path d="M169.989244,86.115851 C169.886158,86.115851 169.889048,86.1418846 169.840877,86.2026297 L164.165383,91.5433747 C161.982278,93.4515413 159.796283,95.3568152 157.613178,97.2669102 C155.576968,98.8045624 153.539017,100.339903 151.499328,101.872929 L148.070524,104.62092 C147.513668,105.046136 147.020398,105.607305 146.390323,105.899459 L146.390323,105.978524 L146.236176,105.978524 L146.31325,105.50992 C146.212091,105.535953 146.106115,105.561023 146.001102,105.587056 L146.001102,105.50992 C146.601311,105.50992 148.161085,100.666706 148.4135,99.8731629 L149.872115,95.0993718 L150.718959,90.9696713 C150.924167,90.0189627 151.119741,89.039328 151.347108,88.0770489 L151.639024,86.5005698 C151.68045,85.1236815 151.537865,83.7043682 151.475242,82.3612272 C151.441523,81.6380716 151.354815,80.9284149 151.324949,80.2486486 C151.304718,79.8513952 151.350962,79.3500073 151.236315,79 C150.306617,80.7741417 149.373065,82.5482834 148.440476,84.3224251 C147.435631,86.8312929 146.426933,89.3353397 145.418234,91.8403506 L144.543451,95.0926224 C143.994303,97.0287509 143.442264,98.9648795 142.893116,100.898115 C142.742823,101.570168 142.588676,102.239328 142.435493,102.913309 C141.948003,104.766516 141.762064,106.668897 141.442209,108.632988 C141.261086,109.733148 141.035646,110.861271 141,112 C142.830494,111.290343 144.663878,110.573937 146.494372,109.862352 C147.390351,109.51813 148.287293,109.171015 149.183271,108.822936 C150.438605,108.158598 151.692975,107.491366 152.948308,106.825099 C153.80286,106.372885 154.654521,105.919708 155.505219,105.465566 C156.174795,104.945858 156.845334,104.42615 157.512982,103.904514 C158.999536,102.787962 160.418651,101.673338 161.806936,100.371658 C162.744341,99.4373411 163.67693,98.5020599 164.614335,97.5658145 L166.624025,94.2460482 C167.2936,93.0465741 167.964139,91.8432432 168.635642,90.6437692 C168.96513,89.5812126 169.292693,88.5157633 169.619291,87.4512783 C169.741645,87.0308839 170.065354,86.5188897 169.98828,86.0387144 L169.989244,86.115851 L169.989244,86.115851 Z M21.4506618,106.625165 C22.9033339,107.423513 24.3764115,108.284685 25.9077902,108.966084 C26.9027978,109.343994 27.895862,109.717072 28.8879544,110.094983 C29.8236891,110.457429 30.7603954,110.817942 31.6951583,111.178455 C32.4316971,111.480011 33.1944714,111.843423 34,112 L33.6229854,108.862666 C33.3101022,106.113874 32.8670129,103.505228 32.1596247,100.95264 C31.8331379,99.958088 31.5027643,98.9606361 31.1723907,97.9641508 C30.9256565,97.1841603 30.677876,96.4044976 30.4290501,95.6251647 C30.1307422,94.8364819 29.1901491,91.1230999 28.7101357,90.8041473 L28.5624393,90.7567876 C28.3700452,90.7567876 28.5750712,90.5054916 28.6411459,90.4436341 C28.3039705,89.582462 27.96388,88.7183903 27.6267046,87.8533521 C26.7920255,85.6409806 25.8388005,83.4740357 24.880717,81.338986 C24.5338248,80.5609349 24.1840174,79.7799842 23.8342101,79 L23.7555034,79 C23.7603619,80.6720851 23.7632769,82.3432036 23.7652203,84.0143221 C23.8954264,86.7969423 24.3045066,89.5853616 24.7524543,92.2500659 C24.9623388,93.5113786 25.0254984,94.8045866 25.3529569,96.0030753 L27.1019936,101.55865 C27.675289,103.108954 28.4788742,104.501713 28.7985592,106.200861 L28.6411459,106.200861 L28.6411459,106.121606 C26.6898374,104.587547 24.739661,103.052063 22.7906182,101.515157 L17.3656894,97.4277304 C16.3094656,96.5481944 15.2503267,95.6667252 14.1911878,94.7871892 C13.1242754,93.9076531 11.9524208,93.0735436 10.9593567,92.1137861 L7.35148266,88.5724453 C6.60814207,87.8572182 5.9231027,86.9564186 5.07870665,86.367806 L5.07870665,86.2904841 L5,86.2904841 C5.19919585,86.9699499 5.39644832,87.6513487 5.59564416,88.3327476 C5.75597252,89.1291626 5.76471771,90.0038661 6.06788407,90.7374572 C7.30872843,93.7501098 9.39202546,96.346191 11.7541967,98.7711976 L14.007539,101.312187 L16.8691573,103.569985 L19.3683364,105.527194 C20.0640643,105.897373 20.7559055,106.261752 21.4506618,106.625165 L21.4506618,106.625165 Z" id="Shape"></path>
                <path d="M155.883526,111.112742 C155.883526,111.215496 155.90541,111.181245 155.807407,111.210603 C154.941551,111.430789 154.138494,111.860397 153.319262,112.183337 L150.020447,113.50054 C146.242082,115.082945 142.404725,116.544982 138.425595,117.728116 C136.343736,118.263414 134.260926,118.792839 132.181921,119.324222 C131.56821,119.47297 130.101965,119.685328 129.647153,120.000439 C128.994431,120.000439 126.960146,120.758858 126.560521,120.476041 C126.70705,120.476041 130.511105,116.796484 130.838418,116.377641 C131.665262,115.431329 132.488301,114.485017 133.314193,113.539684 L134.312306,112.007188 C135.008796,110.916042 135.687208,109.861105 136.29521,108.736688 C136.653922,108.088851 137.01073,107.439056 137.371345,106.789262 L139.019325,101.445097 C139.255294,100.805089 140.392324,95.3532766 140.142083,95 L138.861378,96.064723 C137.597799,97.4465141 136.538792,98.9907539 135.402713,100.452791 C134.473108,101.643754 133.538745,102.861139 132.692871,104.100054 L128.838387,109.396268 C127.752112,110.986498 126.696388,112.598574 125.671829,114.231558 C124.376852,116.280759 123.096147,118.296686 121.659398,120.271512 C121.148448,120.969258 120.688878,121.749207 120.076119,122.381386 L120.076119,122.459675 L120,122.459675 L120,122.53992 C121.083747,122.742492 122.162736,122.943106 123.246482,123.147634 L126.414943,123.675103 L128.793667,123.827765 C129.698533,123.88746 130.599594,123.942262 131.505412,124 L136.586366,123.629108 C137.259069,123.458831 137.929869,123.288554 138.602572,123.120234 L140.975587,122.498819 C141.893775,122.156307 142.792933,121.738442 143.693993,121.361679 C144.312461,121.099413 145.013709,120.864547 145.58936,120.507356 C147.434299,119.356516 149.079424,117.917966 150.818747,116.543025 C152.226,115.422521 153.552376,114.178714 154.682746,112.726463 C155.095693,112.191166 155.612351,111.747857 155.959645,111.190052 C156.067163,111.191031 155.9311,111.131336 155.883526,111.112742 Z M47.996191,122.764624 C50.3991956,122.492252 52.6430227,121.91286 55,121.618351 C55,121.537506 54.9683563,121.51152 54.9223291,121.46051 L54.0295927,120.317125 C53.5309645,119.679986 53.0304185,119.038998 52.5327491,118.399934 C51.9928882,117.488498 51.4539861,116.575138 50.9141251,115.660815 L49.8305676,113.834093 L46.7141411,109.647456 C44.5932868,106.60811 42.4246215,103.602659 40.2089604,100.63223 C39.4245798,99.579315 38.5711584,98.5870339 37.7714354,97.545668 C37.0599313,96.6188331 36.2113044,95.4157764 35.0913086,95 C35.0913086,95.8440646 35.2245958,96.6862043 35.3051434,97.500433 C35.3655542,98.1433465 35.3780199,98.7650862 35.5122659,99.3656522 C35.7481554,100.440704 36.2515782,101.467633 36.600618,102.515736 C37.053219,103.841023 37.5029433,105.162461 37.9526676,106.487748 C38.3323922,107.170122 38.7082812,107.85442 39.0870469,108.536794 C39.5118398,109.327924 39.9232081,110.222998 40.5359454,110.923658 C40.5359454,111.055513 40.6864928,110.90441 40.7689583,110.846663 L40.8466292,110.846663 L40.8466292,111.002579 C40.7152598,111.002579 40.7181365,111.126734 40.6912873,111.235491 C40.7641638,111.235491 41.2503263,112.010259 41.3404629,112.156551 C41.9407346,113.150757 42.7500466,114.030432 43.5401806,114.929356 C44.2689449,115.758022 45.0053805,116.62711 45.8492129,117.373005 C46.4322244,117.907162 47.0152359,118.440357 47.5982473,118.976439 C47.9750952,119.320032 48.4708468,119.672287 48.7019418,120.134261 C47.9511227,120.134261 47.2041393,119.836865 46.5175665,119.680949 C44.8692166,119.302708 43.2170311,118.872495 41.6156674,118.444207 C39.7764963,117.895613 37.9363663,117.342207 36.0962363,116.795538 C34.577338,116.385536 33.1485763,115.829242 31.6613217,115.39518 C29.7243428,114.829262 27.8506513,114.188273 25.9721653,113.528998 L19.7872573,111.197955 C19.6530112,111.143096 19.106438,110.85725 19,111.045889 C19,111.288425 19.7258876,111.996785 19.9032842,112.199861 C20.6493088,113.047775 21.3684841,113.937075 22.2065631,114.72628 C23.0992995,115.448114 23.9882002,116.169948 24.8780598,116.893707 C25.8561383,117.63479 26.8198333,118.264229 27.8381855,118.919655 C28.4748955,119.314257 29.1116054,119.706935 29.7483153,120.1025 C30.6132435,120.548112 31.5903631,120.771399 32.5089897,121.11018 C37.1088352,122.798309 42.6148416,123.371927 47.996191,122.764624 L47.996191,122.764624 Z M142.511824,126.050606 C142.353446,126.078593 142.196999,126.103685 142.040552,126.129742 L141.493954,126.206949 C141.124083,126.206949 140.61708,126.212739 140.318672,126.363291 C140.162225,126.391278 140.005778,126.41637 139.849332,126.442427 C139.564444,126.442427 139.219682,126.41251 138.986943,126.519633 C138.690467,126.519633 138.284864,126.478135 138.047297,126.59877 C137.615619,126.59877 136.585195,126.59877 136.246227,126.755112 C135.961339,126.755112 135.616577,126.727125 135.383838,126.834248 C133.626226,126.834248 131.90338,126.583328 130.212403,126.452078 L126.064632,126.107546 C124.540724,125.935762 123.07476,125.547801 121.592378,125.293021 C118.063634,124.684058 114.598628,123.930334 111.09789,123.338742 C109.63772,123.091682 107.943845,123.077206 106.405452,123.077206 C105.673436,123.077206 104.790767,123.169853 104.134076,123 C103.311282,123.241269 102.004662,122.849448 101.236914,123.156342 C100.985826,123.156342 100.653618,123.140901 100.452748,123.233548 C100.201661,123.233548 99.873316,123.216177 99.6695489,123.312685 C99.3450666,123.312685 98.9056636,123.261536 98.6507133,123.391821 C98.4015573,123.391821 98.0693494,123.37638 97.8675137,123.469027 C97.6183577,123.469027 97.2842183,123.453586 97.0843141,123.548163 C96.0983131,123.548163 95.0717518,123.896556 94.1736313,124.133965 C93.6685593,124.26618 93.0553266,124.294167 92.6197865,124.563424 C91.7506377,124.563424 90.9732324,125.068159 90.2470103,125.385669 C89.6772349,125.625008 89.1055282,125.866277 88.5328557,126.105616 C88.151396,126.269679 87.6810899,126.568852 87.2165781,126.499367 L85.8771233,126.066047 C85.0128031,125.761083 84.1465515,125.455154 83.2822313,125.14826 L77.7245076,123.591592 C76.9731768,123.522106 76.2189488,123.451656 75.467618,123.38024 L73.509136,123.233548 C72.1947899,123.213282 70.9306613,123.316545 69.6694298,123.37831 L67.3198309,123.467097 C66.9895544,123.470957 66.4931738,123.412088 66.2256692,123.548163 C65.6191964,123.548163 64.5887723,123.463237 64.1107404,123.704506 L63.5631767,123.781712 L62.9364238,123.858918 C62.7548683,123.886905 62.5723471,123.911997 62.3878944,123.938054 C62.2063389,123.964111 62.0238176,123.989203 61.8403307,124.01719 L61.2135778,124.094397 C61.0320223,124.120454 60.849501,124.147476 60.6650483,124.171603 C60.4834928,124.19959 60.3009716,124.224682 60.1174846,124.250739 C59.8596371,124.250739 59.5399835,124.224682 59.334285,124.329875 L58.8639789,124.407081 C58.6824234,124.435068 58.4999021,124.46016 58.3164152,124.486218 L57.7678857,124.563424 C57.5602557,124.589481 57.3497286,124.614573 57.1420986,124.64256 C56.1020172,124.64256 54.9412207,125.104831 53.9919171,125.381808 L52.4429008,125.817058 C52.1493217,125.817058 51.8171137,125.852766 51.5814778,125.9734 C51.2956244,125.9734 50.9479649,126.014898 50.7200548,126.129742 C50.44579,126.129742 50.1522109,126.175101 49.9368551,126.286085 C49.6316873,126.286085 49.2396046,126.308282 48.9972087,126.442427 L48.5278684,126.519633 C48.1753802,126.519633 47.8055091,126.478135 47.5090328,126.59877 C46.9711263,126.59877 46.242007,126.493576 45.7861868,126.675976 C45.2135143,126.675976 44.3907201,126.559201 43.9059282,126.755112 C43.2869012,126.755112 42.3965065,126.619036 41.8701886,126.834248 C39.5891559,126.834248 37.47133,126.777309 35.2936295,126.492611 C34.091307,126.324688 32.887053,126.152904 31.6856963,125.982086 C31.5118665,125.966645 31.1255782,125.869172 31.0010002,126.013933 C30.9865143,126.095 31.1333039,126.221425 31.1873843,126.270644 C32.1859397,126.935581 33.1815979,127.601484 34.1782218,128.266421 C35.0280562,128.877315 36.0604118,129.211231 37.0106812,129.657096 C37.903973,130.07787 38.8020934,130.594185 39.76202,130.885638 C40.5432881,131.081549 41.3206935,131.273599 42.0990645,131.46951 C42.7036058,131.616201 43.3062156,131.759998 43.9078597,131.902829 C45.0783134,132.033114 46.3704479,131.993546 47.5891877,131.993546 C49.6355502,131.993546 51.514843,131.699198 53.4636678,131.544786 C54.8755517,131.431872 56.424568,131.429941 57.7562971,131.090235 C60.9480046,130.26992 64.1908953,129.442849 67.3207966,128.456541 C70.3579888,127.499186 73.2899174,126.429881 76.5627454,125.940587 L78.1339733,125.677122 C78.7365831,125.72055 79.3353301,125.762048 79.9350427,125.807407 C81.2590461,125.886543 82.5936723,125.999457 83.788269,126.316002 L86.1224164,126.909524 L86.2788632,126.909524 L86.2788632,127.065866 C85.3343882,127.550335 84.387016,128.032873 83.4396438,128.513481 C79.1373573,130.548827 74.886254,133.063816 71.0600679,136.038181 L68.8620872,137.670125 C68.5076676,137.945172 68.1493851,138.218288 67.7949656,138.4943 L67.7167422,138.4943 L67.7167422,138.571506 L70.2227879,138.569576 C70.6100419,138.569576 71.1112511,138.618795 71.4338018,138.480789 C71.8142959,138.316726 72.1658183,137.838048 72.474849,137.531154 C73.4125639,136.590204 74.3473817,135.64636 75.2821995,134.70541 C75.865495,134.139876 76.4478246,133.572411 77.0301543,133.003016 C77.9601435,132.340974 78.8901327,131.676036 79.8210877,131.011098 C80.6699563,130.328789 81.6028427,129.664817 82.5473177,129.144641 C83.1856592,128.831956 83.8220693,128.519271 84.4604108,128.203691 C85.0214946,127.915134 86.1716682,127.230895 86.7665522,127.145968 C87.3363275,127.059111 88.5309243,127.715363 89.0456535,127.952772 C90.0847691,128.431449 91.2716401,128.723868 92.237361,129.32511 C93.1895618,129.916702 94.0461562,130.707099 94.9249622,131.409675 C96.7472775,132.86694 98.502958,134.336751 100.187175,136.181977 C101.026387,137.103625 102.08868,137.880511 102.805245,138.883226 C102.934308,138.866345 103.063088,138.847363 103.191533,138.826286 C103.600999,138.850413 104.062613,138.990349 104.530988,139 C105.419451,138.988419 106.304051,138.973943 107.190583,138.960432 L107.190583,138.883226 C106.862238,138.883226 106.430561,138.359189 106.17561,138.17293 L102.107028,135.192774 C100.798477,134.182339 99.4117014,133.337897 98.0538978,132.42204 L93.936064,129.758429 C92.6632439,129.121479 91.3894581,128.484529 90.1166379,127.845648 C89.4580163,127.523313 88.645845,127.236685 88.081864,126.752217 L88.0017092,126.752217 L88.0017092,126.67308 C88.2663167,126.603595 88.5280271,126.530249 88.7907032,126.457868 C89.7303496,126.275469 90.6670988,126.088244 91.6048138,125.905845 C94.0587106,125.626938 96.6709855,125.636588 99.1229508,125.873997 L100.68259,126.006213 L108.529072,128.520236 C111.454241,129.281682 114.376512,130.039267 117.299749,130.796851 C118.983966,131.143314 120.788899,131.269739 122.539751,131.463719 C123.869548,131.610411 125.175203,131.930816 126.545561,131.930816 C127.847353,131.815972 129.146247,131.699198 130.44997,131.580493 C131.031334,131.516798 131.538338,131.337294 132.096524,131.22052 C133.111497,130.97153 134.12647,130.722541 135.140477,130.476446 C135.904362,130.178238 136.666316,129.880994 137.426338,129.580855 C138.288727,129.26045 139.248653,129.026902 140.052133,128.574281 C141.368411,127.705712 142.683722,126.836178 144,125.96954 L144,125.890404 L143.295989,125.96954 C143.046833,125.9734 142.711728,125.958924 142.511824,126.050606 L142.511824,126.050606 Z M142.896473,53.9921774 C142.763975,52.8934384 142.632445,51.7946993 142.498013,50.6959603 C141.881949,46.6553426 141.069556,42.7556879 139.662375,39.0993392 C139.438,38.5760382 139.208789,38.0498407 138.980546,37.5236432 C135.167135,28.0086402 128.512283,19.4562408 119.986993,13.0742855 C118.639775,12.063407 117.2442,11.0457699 115.795433,10.2289569 C114.251886,9.35517934 112.723814,8.4524368 111.092258,7.71769127 C109.072882,6.80819022 107.013853,6.02420419 104.919039,5.24214915 C101.946217,4.12914108 98.8629633,3.33584089 95.7215914,2.87570854 C93.2010341,2.51361885 90.6616157,2.29730778 88.1160465,2.22785801 C87.4951462,2.20854801 87.0251189,2 86.3897116,2 L85.9196843,2.23461651 C85.3297323,2.23461651 84.1865795,2.1052395 83.7233221,2.31378751 C83.1913982,2.31378751 81.8461142,2.28965001 81.4476549,2.47019852 C81.1952328,2.47019852 80.8693085,2.45571602 80.6633089,2.54840403 C80.4814876,2.57543803 80.2986992,2.59957553 80.1149437,2.62757503 C79.8567188,2.62757503 79.541433,2.61019603 79.3305977,2.70578053 C79.0240161,2.70578053 78.6342609,2.72702153 78.3886088,2.86219154 C78.0530132,2.86219154 77.6313426,2.87474304 77.3692491,3.01860255 C77.1874279,3.04563655 77.0046395,3.06977405 76.8208839,3.09680805 C76.663241,3.12287655 76.5065653,3.14797955 76.3498895,3.17501355 C76.1932137,3.20204756 76.036538,3.22618506 75.878895,3.25418456 C75.3421355,3.25418456 74.8576011,3.44438807 74.3846724,3.54962757 C73.2974044,3.78456829 72.2203784,4.06448262 71.1563778,4.38864711 C66.7588177,5.73648517 62.6881491,7.42514475 58.715161,9.61972635 C57.5120458,10.2830249 56.2586396,10.9559784 55.124191,11.7534815 C52.6357542,13.496209 50.2778805,15.3229351 47.9519223,17.4228977 C47.7420542,17.6111702 47.5379888,17.7530987 47.2410786,17.6777897 L47.172412,17.6604107 C47.172412,17.8834412 46.8000653,17.9954392 46.8590605,18.4434313 C46.7681498,18.4434313 43.7381178,21.7985439 43.4470103,22.1750889 L41.2264698,24.9576601 C38.6848406,28.5811817 36.3395397,32.2249789 34.657693,36.2771826 C32.9922875,40.2782148 31.4419711,44.6509645 30.7891554,49.1386087 C30.4506584,51.4625673 30.0492976,53.8724554 30.0106122,56.3422045 C29.8926218,63.7051079 30.7533714,70.0552017 32.8510859,76.332883 C33.6831674,78.8242452 34.6812206,81.2572633 35.8385641,83.6156498 L36.9614071,85.7996109 C37.7679972,87.074071 38.4662682,88.4093575 39.2980038,89.6693351 C40.9335008,92.1606016 42.7628407,94.5195194 44.769083,96.7242439 C45.6240298,97.6598135 46.4896151,98.6021415 47.4354726,99.460471 C47.8029836,99.800327 48.1685604,100.137287 48.5341372,100.479074 C48.9093854,100.809275 49.36007,101.114373 49.6830929,101.523745 L49.7623979,101.523745 L49.7623979,101.600985 L49.8407358,101.600985 C49.8678156,101.499607 49.8929611,101.393402 49.9200408,101.288163 L49.9983787,101.288163 L49.9983787,101.367334 C50.1095992,101.367334 50.0728481,101.341265 50.0844537,101.442643 C50.1037964,101.618364 50.1212048,101.739051 50.2121154,101.874221 C50.4693732,102.25849 50.9548746,102.517244 51.3127143,102.802067 C52.2923702,103.577934 53.2977867,104.32082 54.3272722,105.029475 C58.1706643,107.694255 62.8380549,110.134074 67.2762346,111.65184 C71.3817201,113.052781 75.6226044,114.14283 80.196183,114.657442 C92.7080006,116.068037 105.451931,113.027678 114.972401,107.278125 C117.543045,105.722704 120.21427,104.072665 122.526688,102.03546 C124.054761,100.690518 125.533509,99.329163 126.965835,97.8587065 C127.468745,97.3460259 127.968753,96.8294834 128.471663,96.3139064 C133.556856,90.3587021 137.523074,83.9902638 140.013445,76.717152 C140.485407,75.3345559 141.000889,73.9017538 141.337452,72.4631588 C142.692407,66.617056 143.249477,60.5768877 142.896473,53.9921774 L142.896473,53.9921774 Z M126.838572,21 C127.509375,21.4885803 128.075574,22.1701212 128.585154,22.8212447 C129.248279,23.6643783 129.969943,24.444776 130.609077,25.2907612 C134.018749,29.7953951 136.679887,34.550973 138.700931,39.7542577 C139.599173,42.0688353 140.159615,44.5174399 140.789152,46.9717477 C141.027148,47.9061337 142.395623,56.2709318 141.887963,56.8051382 C141.620217,57.0845985 139.756557,56.9467695 139.288243,56.9325113 L134.698189,56.9591266 C133.836414,56.9135004 132.739523,56.8317535 131.895981,57 C131.895981,56.8897368 131.746274,56.7861273 131.715565,56.6749135 C131.678138,56.3973543 131.636873,56.1188446 131.597527,55.8412853 C131.337459,51.7387321 130.527506,47.9536609 129.337527,44.3501439 C129.054428,43.5269717 128.767489,42.702849 128.478631,41.8787263 C127.74737,40.3464473 127.088084,38.7894542 126.313638,37.2942466 C126.030538,36.7448314 125.286802,35.8826869 125.286802,35.2591292 C125.286802,34.7448842 126.785791,33.762971 127.147583,33.3342751 C127.250267,33.3342751 127.226275,33.3580387 127.226275,33.2563304 C127.117833,33.2563304 127.134148,33.2297151 127.090963,33.165078 C126.656237,32.502548 125.94033,31.9578856 125.37797,31.3847068 C123.946157,29.9275209 122.510505,28.4703351 121.078692,27.0121987 L121,27.0121987 C121,26.6148708 126.172568,21.6957991 126.838572,21 L126.838572,21 Z M119.6943,87.9974976 L119.6943,87.921534 C119.032035,87.5436148 118.557605,86.853295 118.020241,86.3243981 L114.230613,82.491082 C113.944986,82.1853283 113.033888,81.5007059 113,81.1208876 C113.003873,81.0838553 113.005809,81.046823 113.011619,81.0078916 C113.13652,80.5549583 113.845259,79.8950241 114.156059,79.4962149 C115.100588,78.2690716 115.975571,76.9919023 116.777041,75.6704952 C117.62811,74.2442776 118.240996,72.7307017 118.883896,71.1990845 C119.222775,70.3853238 119.602319,69.5316822 119.816296,68.6599992 C120.03221,67.8405413 120.241346,67.0182347 120.451451,66.1987768 C120.572479,65.6129071 120.689634,65.0270374 120.810662,64.438319 L120.965578,63.0472345 C121.093706,61.9456072 121.188311,60.840478 121.249267,59.73332 C121.268632,59.2765885 121.207634,58.7761779 121.322852,58.3640751 C121.350953,58.2641276 121.414021,58.1770653 121.501006,58.1181428 L121.501006,58.0412296 C123.877995,58.0412296 126.542547,57.925385 128.963107,58.08206 C129.590516,58.1209914 130.381555,57.9092427 130.921824,58.1960055 C131.020583,58.1960055 130.999282,58.1722669 130.995409,58.2700701 C130.904396,60.0941474 130.944093,61.8080774 130.745607,63.5846774 C130.560676,64.8171877 130.374777,66.0468494 130.191783,67.2784102 C129.94779,68.9087802 129.350396,70.5125629 128.9176,72.0688683 C127.820603,76.0028362 125.842521,79.6414954 123.654335,83.040869 C123.104384,83.8935611 122.447928,84.6579454 121.854407,85.4906969 C121.413865,86.1041035 120.43015,87.5844452 119.772726,87.9224835 C119.771758,88.0212363 119.795963,87.9974976 119.6943,87.9974976 L119.6943,87.9974976 Z M62.7380532,70.4813854 C62.4884351,69.4040142 61.6823373,68.5325406 61.4317807,67.4341008 C61.2272064,66.5473046 61.5725428,65.5542077 61.4721325,64.6434699 C61.3867368,63.869678 60.7063865,63.2481545 60.4642757,62.5318224 C60.3873257,62.3086868 60.4839824,62.0683133 60.4408153,61.8394318 C60.3319593,61.2667491 60.2099654,60.650014 59.957532,60.1453254 L58,57.5720841 C58.3547206,57.5720841 58.5714942,57.0626072 58.8633411,56.9333227 C59.3513164,56.7149755 60.0382356,56.6297434 60.5881463,56.5617493 L60.5881463,56.7178484 C60.4408153,56.7178484 60.2887922,56.9189577 60.2080886,57.029089 C60.0870332,57.029089 60.2005813,57.3029807 60.2268569,57.4121543 C60.4126629,58.2443638 60.5956536,59.0746578 60.7805212,59.9049519 C60.8283804,60.4048522 60.7063865,60.8683612 60.7401694,61.3778381 L62.5663234,61.3778381 L61.88785,60.0524321 C61.7433342,59.6109493 62.1140078,59.1665935 62.1065005,58.7375604 C62.089609,57.899605 61.5547129,57.0530306 61.5002849,56.1738957 L61.2713119,56.1738957 C61.2713119,56.3003073 61.138057,56.2763657 61.0385851,56.2859423 C60.8077353,56.3031802 60.696064,56.1135629 60.5937768,55.9344799 C60.4727214,55.6960217 60.3479123,55.4556482 60.2268569,55.2181477 C60.1583526,54.7881569 61.0592303,54.2126013 61.346385,54 C62.0914859,54.0459678 63.1687853,54.1551415 63.5375821,54.9049918 C63.6792827,55.1989945 63.6820979,55.5897211 63.7196345,55.9392682 C63.7534174,56.2524241 63.8979332,56.7034835 63.7224497,56.9926978 C63.4962919,57.3594829 62.8994605,57.5845337 62.5644466,57.805754 C62.5719539,57.8574678 62.576646,57.9053509 62.5841533,57.9532341 C62.6479655,58.1936076 62.7934197,58.5632656 63.0167623,58.6982962 C63.2954713,58.8658872 63.9514228,58.5211284 64.0724782,58.9166434 C64.2132403,59.970073 64.3502488,61.0215873 64.4910109,62.072144 C64.9433266,64.5936714 65.8639109,67.3239695 67.1673682,69.4308288 C67.9903574,70.7591078 68.8893582,72.0050277 69.8587401,73.2710586 C69.9281827,73.3649096 70.0070095,73.5008978 69.9995022,73.639759 C69.9788571,73.9730258 69.4955738,74.2890547 69.2844306,74.5284705 C68.5543444,75.3472727 67.7717069,76.2120426 66.9459025,76.956147 C66.6043197,77.3056941 66.2589833,77.6523682 65.9136469,78 C65.7550549,78 65.6499525,77.8448585 65.5617415,77.7385579 L63.7046199,75.0484817 C63.408081,74.6089142 62.9125983,74.2239336 62.7267923,73.722118 C62.6460886,73.5047285 62.6939478,73.1906149 62.7052087,72.9473684 C62.7408685,72.1802801 62.9041525,71.2072942 62.7380532,70.4813854 L62.7380532,70.4813854 Z M52.6564994,87.913001 C51.9780502,87.1300098 51.2986032,86.3450635 50.6181585,85.5630499 C49.0470354,83.5081764 47.6267074,81.3466721 46.3678734,79.0948192 C45.8849772,78.2336266 45.1965507,77.1280547 45,76.1583578 C45.1446693,76.1583578 45.2883409,76.0606061 45.4050741,76 C45.5357754,76.0400782 45.6654789,76.0762463 45.7971779,76.1143695 C45.963797,76.2424242 46.0925029,76.7771261 46.3578962,77.0459433 C47.6399658,78.1955034 48.9220353,79.3411535 50.2041049,80.487781 C51.8194128,81.8856305 54.0572976,81.6070381 55.9799031,82.398827 C56.7052452,82.6989247 57.2090935,83.5786901 57.9623717,83.7849462 C58.3085804,83.8074291 58.6527936,83.8269795 59,83.8475073 C59,84.14174 54.3196978,88.7028348 53.7400228,89 L53.7400228,88.9217986 C53.3110034,88.7106549 52.9727765,88.2619746 52.6564994,87.913001 L52.6564994,87.913001 Z M85.8686911,33.9817109 C85.7344589,34.2356342 85.2426006,34.1497345 85.0143078,34.2620649 C84.7752373,34.2884956 84.5371465,34.3120944 84.2990557,34.3385251 L83.6641471,34.4159292 L83.1879655,34.4923894 C82.3757135,34.4923894 81.5987342,34.7869027 80.8687852,34.9879646 C77.8382719,35.8092035 75.1026777,37.1439528 72.6433863,39.040354 C71.8938414,39.6699705 71.1442964,40.2958112 70.3937716,40.9235398 L70.3937716,41 L70.314408,41 C69.7637619,40.5742773 69.2787622,40.0381121 68.7839645,39.5623599 L66.0650269,36.8975811 C65.5937443,36.4359882 65.1185426,35.9734513 64.6443207,35.5118584 C64.1083715,35.0266667 63.48718,34.540531 63.0825237,33.9571681 C62.9757258,33.9571681 63.0031601,33.980767 63.0031601,33.880708 C63.119756,33.880708 63.1540489,33.7872566 63.2285135,33.7155162 C64.7785529,32.1721534 66.6225316,31.0309145 68.4155607,29.9142183 C68.7584898,29.7065487 69.0984795,29.4979351 69.4384692,29.2893215 C72.6198712,27.6619469 75.9315863,26.339469 79.6117052,25.6315044 C80.657149,25.4276106 81.7721584,25.2435398 82.8675718,25.1623599 C83.398622,25.1094985 83.9277125,25.0547493 84.4568031,25 L85.9666709,25 C85.9666709,27.3136283 86.0068425,29.579115 85.9696102,31.8899115 C85.9607921,32.4458997 86.0920849,33.5493805 85.8686911,33.9817109 L85.8686911,33.9817109 Z M63.6740301,36.1045052 C64.3160301,36.7287496 64.9463397,37.3842536 65.5883397,38.008498 C66.3959543,38.7937766 67.1762913,39.5667408 67.9907253,40.3586502 C68.3287739,40.6873495 68.7856753,41.0378357 69,41.4536829 C68.8967344,41.4802061 68.7905463,41.5038876 68.6843581,41.5304109 C67.7267162,41.5304109 66.4797358,41.370324 65.6156174,41.5806157 C65.0603215,41.7151266 64.3101849,42.3128477 63.8328252,42.6358634 C63.3418267,42.9560373 62.8469314,43.275264 62.3530103,43.5944906 L60.3675838,45.4909053 C59.6125762,46.7052927 58.8546459,47.9196801 58.0957415,49.1350148 C57.9622756,49.1350148 58.016831,49.2572113 58.016831,49.365199 C58.1999812,49.365199 58.3178599,49.5859106 58.3178599,49.7469448 C58.3178599,50.2565707 57.6359175,51.0361657 57.4332832,51.536319 C57.2462361,52.1747723 57.0552923,52.8113311 56.8653226,53.4497844 C56.6773014,54.0257185 56.0401723,56.6060549 55.6923817,56.8542371 C55.3592042,57.0863158 52.7230098,56.9716973 52.0897776,56.9716973 L52.0897776,56.8949693 C51.9397503,56.8949693 52.0186608,56.333244 52.0381448,56.2053639 C52.2992313,54.2615863 52.48433,52.4390579 53.0026062,50.6553672 C53.6183027,48.5353991 54.2866062,46.4968955 55.2793195,44.572063 C55.5540448,44.0131796 55.8258476,43.4533489 56.0966761,42.8944654 C56.9759852,41.4251287 57.9464627,40.0091984 59.0027248,38.6545294 L59.9438053,37.4060406 L62.2809192,35 C62.844983,35.1496671 63.2541484,35.6962362 63.6740301,36.1045052 L63.6740301,36.1045052 Z M61.1072879,34.9558011 C60.637037,35.5264174 60.0826762,35.9908277 59.6344086,36.5836507 L57.8614098,38.8583919 C56.9046595,40.3443115 55.9985663,41.816714 55.2062127,43.38084 L54.3240143,45.2452395 C54.241816,45.2452395 54.176822,45.6053747 54.1405018,45.7028912 L53.0499403,48.7857641 L52.5749104,50.789197 C52.0587814,52.6786998 51.6888889,54.7883388 51.6888889,56.9114949 L51.6114695,56.9114949 C51.6114695,57.0418388 50.7875747,56.9897012 50.6040621,56.9897012 L42,56.9897012 C42,49.3187255 44.5653524,42.3882959 47.8571087,36.3770316 C48.4258065,35.4279354 48.9925926,34.4778737 49.5603345,33.5287776 C50.6836093,31.8985342 51.9206857,30.3513936 53.2621266,28.8991579 C53.8508961,28.2677144 54.4367981,27.6333745 55.0236559,27 C55.6802867,27.244274 56.5080048,28.2802661 57.0222222,28.816124 C58.0296296,29.8656332 59.0982079,30.8350051 60.0903226,31.9038245 C60.6475508,32.5034061 61.7065711,33.2178834 62,33.96905 C61.8757467,33.96905 61.2305854,34.8013195 61.1072879,34.9558011 L61.1072879,34.9558011 Z M52,58 C52,58.8549556 50.3430793,60.2823517 49.7147278,60.9529778 C49.0716263,61.6356455 49.1758598,62.8527763 48.8474257,63.6919851 C48.693042,64.0791698 48.0656738,64.2088489 47.6988896,64.3292652 C47.0941381,64.5210049 46.4972534,64.8609494 45.8551351,64.9535773 C44.7459325,65.105487 43.6141131,64.8359398 42.5108104,64.8359398 C42.5108104,64.5571298 42.3239766,64.0402661 42.2866099,63.7068056 C42.2246597,62.8564814 42.1597595,62.0052309 42.0968261,61.1549066 C42.0329092,60.1786085 41.9080256,58.9577726 42.1115761,58 L52,58 L52,58 Z M64,83.762584 C64.6708789,83.762584 66.4170945,83.7531048 66.9335264,83.5237092 C67.3524637,83.3331781 67.6159888,82.8241474 67.8708262,82.4791061 C68.0194814,82.2753042 68.2501865,82.0591794 68.21254,81.7757526 C68.0976701,80.9520139 66.0251854,79.0969428 66.1526041,78.4078081 C66.2211399,78.026746 67.087008,77.3120175 67.4026589,77.0304865 C68.4084946,76.0219042 69.4133649,75.0104782 70.4192006,74 C70.4848405,74.0218021 70.5495152,74.0464479 70.6151551,74.0701458 C71.14124,74.3184997 71.5746567,74.8863012 72.0225528,75.2607279 C72.7513492,75.8010399 73.4782151,76.3404039 74.205081,76.8769242 C75.4039753,77.6418922 76.6752666,78.3338707 78.0025449,78.8675472 L80.5190645,79.7633275 C80.5924268,79.8135671 80.6628932,79.8619108 80.7372208,79.9093066 C80.918696,80.151973 80.9457242,80.5311393 81.0065377,80.8373161 L81.5123514,83.4383968 L81.6735554,83.7919693 C81.971831,84.0346358 82.2701066,84.2754064 82.5693475,84.5161769 C83.0828836,84.988239 83.5848361,85.4773635 84.0983722,85.9361547 C84.3039796,86.1067795 84.5095871,86.2726648 84.7151946,86.4413938 C85.0694572,86.6101228 85.5685139,86.5930603 86,86.6082269 L86,91.9127633 L85.9208459,91.9127633 C85.9208459,92.0464194 85.437234,91.9867007 85.2953359,91.9867007 C83.4062569,91.9867007 81.537449,91.8122842 79.8076434,91.4700866 C75.176166,90.543973 70.858409,88.93536 67.0831469,86.3304876 C66.0116713,85.5920613 65.0579615,84.7569475 64.0009653,83.9938754 L64,83.762584 L64,83.762584 Z M85.4080174,74.2236573 C84.8836601,74.4883246 84.4187364,75.1552102 84.0237908,75.5906305 C83.4821786,76.175934 82.9376906,76.7593403 82.3951198,77.3436953 C82.0893246,77.8161121 82.0337255,78.4516929 81.7173856,78.9241097 L81.7173856,79 C81.0377342,79 80.2746841,78.5721687 79.67939,78.3463952 C77.6734769,77.5854031 75.7901989,76.5394819 74.0888017,75.2415353 C73.3621786,74.6856392 72.7457952,74.0054729 72,73.4628576 L72,73.3850701 C72.063268,73.0388208 78.7562527,66.3263281 79.3084096,66.0758903 L79.3084096,66 C80.3264488,66.8063339 81.2620479,67.6136165 82.4210022,68.1438996 C82.8121133,68.2956801 83.2003486,68.4436661 83.5895425,68.5963952 C84.1848366,68.7443812 85.749281,68.8857268 86.1039651,69.3429656 C86.3877124,69.7100846 86.1250545,70.6359457 85.9946841,71.0011675 C84.937342,71.0011675 84.3573856,70.530648 84.2922004,71.9241827 C84.2768627,72.18885 84.2135948,72.5749416 84.3717647,72.7817426 C84.5884096,72.9505984 84.8040959,73.1175569 85.0197821,73.2816696 L85.4501961,73.7711617 C85.4501961,73.8707677 85.4233551,73.847052 85.5288017,73.847052 C85.5288017,73.4173234 86.2305011,73.1611938 86.4854902,72.9411121 C86.8698911,72.6052977 86.9667102,72.0294804 87.2945534,71.6642586 C87.4421786,71.4935055 87.6521133,71.4233071 87.8457516,71.3512113 C88.7890196,70.9916813 88.8321569,71.6054437 89.5846623,71.7809399 C89.8636166,71.7847344 90.144488,71.7847344 90.4234423,71.7866316 C90.6592593,71.8331144 90.8912418,71.8795972 91.1251416,71.9241827 C91.1251416,71.729714 91.3312418,71.5276562 91.4357298,71.3853619 C91.7089325,71.3853619 91.9227015,71.7278167 92.0569063,71.9241827 C92.4183007,71.892878 92.779695,71.859676 93.1410893,71.8293199 C93.6577778,71.8606246 93.9213943,72.581582 94,73.0018243 C93.6855773,73.0018243 92.2735512,73.4429364 92.0233551,73.6098949 C91.8833987,73.7635727 91.7386492,73.9153532 91.5986928,74.0652364 C91.4942048,74.1212055 91.386841,74.1762259 91.2804357,74.232195 C90.8145534,74.232195 89.6479303,74.328955 89.3871895,74.0301372 C89.2673638,73.7891856 89.1456209,73.5482341 89.023878,73.3072825 L89.023878,73.2313923 L87.6962092,73.5928196 C86.9484967,73.7635727 86.0809586,73.8793053 85.4080174,74.2236573 L85.4080174,74.2236573 Z M93.96344,89.3000841 C94.0438758,90.2146221 94.0591969,90.8929825 93.2692027,91.189505 C93.0432164,91.2623351 92.8143575,91.3341248 92.5902864,91.4090358 C92.2838644,91.4090358 91.8998793,91.4308848 91.658572,91.5775854 L91.1912784,91.6608198 C90.9854012,91.6889114 90.7776087,91.7159626 90.572689,91.7461351 L89.8736638,91.8293695 L89.2512441,91.9146847 C88.8471501,91.9146847 88.2601605,91.8189652 87.932672,92 L87.1551261,91.9146847 C86.9952122,91.9146847 87.0162787,91.6400112 87.0124484,91.4901893 C87.0105333,89.7204178 87.0047878,87.9485655 87,86.1767132 C87.1120355,86.1767132 87.2279014,86.0705894 87.3102523,86.0081636 C88.4507167,86.0185679 89.5892659,86.0268913 90.7268576,86.0341743 C91.1587211,86.02377 92.1277807,85.9103631 92.4658025,86.1642281 C92.8861751,86.4773975 93.1035433,87.2067389 93.3189962,87.6759729 C93.5478552,88.1805814 93.9107737,88.7091199 93.96344,89.3000841 L93.96344,89.3000841 Z M87.0515058,100.452875 L87.0515058,93.3499034 L87.1300963,93.3499034 C87.1300963,93.2109095 87.6879919,93.2623182 87.8364406,93.249942 C89.2859987,93.1138041 90.7772778,93.0024185 92.1676504,92.7548951 C92.7148732,92.6549337 93.3203111,92.6263733 93.818051,92.4235944 L93.8976117,92.4235944 C93.8976117,92.678734 96.3766084,96.4563231 96.6667141,96.6429177 C97.3187242,97.0608516 98.199714,97.2493502 98.9371063,97.5092499 C99.9830392,97.873871 101.030913,98.234684 102.078786,98.5993052 C102.20977,98.5935931 102.336873,98.5821689 102.466887,98.5774089 C103.043217,98.4526951 103.755383,98.304181 104.246331,98.0042968 C105.165161,97.4445129 105.995698,96.4258586 106.823324,95.6870963 C107.355993,95.2072815 107.886721,94.7255628 108.417449,94.243844 C108.828837,93.7697413 108.980196,92.6596937 109.154842,92.035173 C109.586604,90.5195677 110.013516,89.0020584 110.445278,87.4874051 L110.820766,86.0051203 C110.864428,85.3006304 110.119273,84.4838029 110.361837,83.8145375 C110.473416,83.5003731 111.763852,82.213251 112.073363,82.0780651 L112.073363,82 C112.75157,82.3065483 113.468587,83.1824006 113.993494,83.7459925 C115.6633,85.4310562 117.330194,87.1132638 119,88.7945194 C119,89.3819117 115.111226,92.6397015 114.463096,93.1528367 C110.546185,96.2230798 106.242142,98.6859384 101.589778,100.326257 C100.229483,100.804168 98.8594861,101.258279 97.4361248,101.609571 C96.869497,101.745709 95.6702641,101.878991 95.2355908,102.152219 C94.8164414,102.152219 94.3167611,102.213148 93.975232,102.382606 C93.818051,102.408311 93.66087,102.433063 93.503689,102.460671 L93.032146,102.536832 C92.8497384,102.562537 92.6663605,102.587289 92.4829827,102.614898 L91.8523182,102.691059 C91.6039334,102.691059 91.2662853,102.67773 91.0654429,102.769124 L90.5143392,102.845285 C90.1504942,102.845285 89.7187316,102.802444 89.4131019,102.92335 C89.0017146,102.92335 88.4108304,102.833861 88.0760931,102.999511 C87.7927792,102.999511 87.4531906,103.010935 87.2096571,102.92335 L87.1184533,102.891933 C86.8991761,102.2141 87.0515058,101.207822 87.0515058,100.452875 L87.0515058,100.452875 Z M111.564449,37.7316338 C111.739303,37.9838041 111.942018,38.3078862 112.237924,38.4334919 C112.720213,38.6338859 113.26591,38.4938978 113.653086,38.9167386 C114.022969,39.3223206 114.292935,39.8017319 114.594606,40.2456668 C115.379603,41.4170285 116.080144,42.6426184 116.690928,43.9131635 C116.985874,44.5181806 117.358639,45.1308683 117.521963,45.7943736 C117.596901,46.1079086 117.467202,46.5470494 117.362482,46.8068904 L117.362482,46.8855138 L117.516199,46.8855138 C117.516199,46.7733316 117.602665,46.7129258 117.671838,46.6525199 L117.671838,46.5738965 L117.827477,46.5738965 C117.827477,46.6755317 117.801537,46.6525199 117.906257,46.6525199 L118.058053,47.2115135 C118.099365,47.5538132 117.98888,47.9018659 117.906257,48.2086891 L118.061896,48.2086891 C118.061896,48.3467596 118.292472,48.2643008 118.378939,48.3544302 C118.469248,48.5164712 118.555714,48.6775534 118.645062,48.8405533 C119.208052,50.8444927 119.690341,52.8398026 119.863273,55.0489301 C119.904585,55.5906649 120.038127,56.2177349 119.932446,56.7623462 C120.065988,56.7623462 119.966072,56.8419285 119.932446,56.9176755 C119.037042,56.9176755 118.150284,56.9934225 117.205882,56.9934225 C116.75914,56.9934225 116.11737,56.8457638 115.723469,56.9953401 C115.148949,56.9953401 113.107389,57.0471165 112.766328,56.8054932 C112.496362,56.6166052 111.933371,55.1678241 111.869002,54.8082656 C111.768125,54.2368073 112.201416,50.9470867 112.479068,50.6412223 C112.890263,50.1790697 113.707848,50.1109933 114.231448,49.8195112 C114.5091,49.6613055 114.578273,49.2921587 114.812692,49.0860119 C115.112442,48.8165827 115.580319,48.9057532 115.90889,48.6833063 L117.048321,47.4310839 C117.048321,47.3409546 117.022382,47.3246546 116.971463,47.2757547 L116.971463,47.3534193 C116.688046,47.3534193 116.455548,47.7033896 116.177896,47.7637954 C115.691764,47.8663894 115.183536,47.6938013 114.710855,47.6640778 L114.710855,47.5864132 L114.633996,47.5864132 C114.633996,47.1952136 115.559183,46.4291142 115.549576,45.8729971 C115.54189,45.5306974 115.116284,45.2325035 114.885708,45.0014273 C114.566744,44.6830981 114.144982,44.1020516 113.735709,43.9400106 C113.430196,43.8153636 113.046862,43.8594695 112.686587,43.8546754 C111.871884,43.840293 110.849663,43.9812399 110.140641,43.7118108 C109.699664,43.5440168 109.279823,42.586153 108.933958,42.2313886 C108.508353,41.7922478 107.841603,41.3981717 107.311278,41.1335366 L107.311278,41.0549131 C107.181579,41.0549131 107.232498,41.006972 107.232498,40.8995839 C107.705179,40.8995839 108.114452,40.9993014 108.557351,41.0549131 C108.557351,40.3405903 107.519757,40.4575666 107.076859,40.1996433 L107,40.1996433 C107,39.8688495 110.668084,36.61077 111.128276,36 C111.355009,36.1342352 111.533706,36.313535 111.673973,36.5446113 C111.776772,36.5446113 111.752753,36.5177642 111.752753,36.6232347 C111.610565,36.6232347 111.405928,37.0508697 111.285836,37.1668872 C111.284876,37.3797458 111.453965,37.573428 111.564449,37.7316338 L111.564449,37.7316338 Z M113.158483,33.6479307 C113.192108,33.3108321 114.267146,32.2783471 114.564007,32 C115.10585,32.1069084 115.479567,32.5008322 115.910928,32.8244469 L117.496106,33.9811767 L118.576909,35.0069197 C119.113948,35.4653738 119.511684,36.125124 120.11213,36.5007481 C120.410912,36.6866339 121.791458,36.818584 122.159411,36.6770026 C122.525443,36.5325317 123.352618,35.480784 123.703278,35.6830432 C124.029921,35.8708553 124.624603,37.1691665 124.827314,37.5553852 C126.606556,40.9417817 127.89103,44.4264182 128.870959,48.2539323 C129.099608,49.1621723 130.422512,56.1950126 129.863376,56.7950481 C129.530969,57.1437044 121.421583,56.9491504 120.406108,56.9164036 L120.406108,56.8383894 C120.272569,56.8383894 120.325408,56.717997 120.325408,56.6043466 C120.308115,55.6103873 120.150558,54.6578429 120.030469,53.7110773 C119.818151,52.044847 119.390634,50.5115299 119.000584,48.9493186 C118.835341,48.3752878 118.666255,47.7993307 118.501013,47.2262631 C118.414548,46.1793311 119.640419,45.534028 119.236919,44.4187131 L119.236919,44.2626846 L119.158141,44.2626846 L119.158141,44.3406989 C119.071677,44.3406989 118.298302,45.3510316 118.067731,45.5118758 L118.067731,45.58989 L117.990874,45.58989 L117.990874,45.0428271 C117.888077,45.069795 117.782399,45.0948366 117.679602,45.1208414 C117.537417,44.8261209 117.39427,44.5304372 117.254006,44.2347536 C116.740024,43.2590939 116.413381,42.087917 115.732235,41.2162762 L115.732235,41.138262 C115.884028,41.138262 116.006039,41.2942905 116.120364,41.3732679 C116.120364,41.4743975 116.094424,41.4512821 116.197221,41.4512821 C116.197221,41.4069777 116.88221,40.6672871 116.97732,40.5131848 L117.054177,40.5131848 C117.044663,40.4920613 117.033416,40.4717658 117.020552,40.4525071 C116.414342,39.3737915 115.898439,38.2950759 115.142357,37.2818538 C114.900257,36.9601654 114.695625,36.5980252 114.368982,36.3379777 C113.991422,36.035552 113.467832,36.0172524 113.081625,35.7494998 C112.976908,35.7494998 113.002847,35.7735783 113.002847,35.6714855 C113.132543,35.6714855 113.278572,35.3594285 113.345822,35.2496307 C113.835786,34.440594 113.083547,34.3529484 113.158483,33.6479307 L113.158483,33.6479307 Z M110.996242,78.9226407 C110.917811,78.9226407 110.896336,78.8904374 110.844983,78.8426204 L110.844983,79.0007093 C110.732005,79.0007093 110.662911,78.6630626 110.580745,78.5547424 C110.261419,78.1351236 109.672252,77.666712 109.524727,77.1651212 C109.451898,76.9211568 109.482711,76.5854618 109.459368,76.3112458 C109.409882,75.7813551 108.985047,73.5280999 108.718942,73.2255841 C108.273566,72.725945 107.090565,73.6539856 106.65826,73.7896298 L106.074696,73.8579398 L106.074696,73.7779195 L106,73.7779195 C106,73.671551 106.011204,73.6754544 106.065359,73.610072 C106.382818,73.2041152 107.444438,72.3639018 107.569554,71.9940518 C107.808582,71.2846033 107.24836,70.3624179 107.420162,69.594418 C107.538742,69.0469619 107.965444,68.5287815 108.229682,68.052563 C108.560212,67.3411628 108.886075,66.6326902 109.212871,65.9232418 C109.473374,65.1874451 109.731075,64.4536002 109.989711,63.7187795 C110.175518,63.0259206 110.359457,62.33111 110.548065,61.6362994 C110.588214,61.5875065 110.626496,61.5348102 110.666645,61.4830898 C110.953292,61.1913083 111.510713,61.1171432 111.897265,61.0049195 C112.924338,60.7082588 114.941136,60.3403605 115.465877,59.2942412 C115.622739,59.2942412 115.075589,58.4257279 115.01023,58.2656873 C114.88418,58.2656873 114.933666,58.2159186 114.933666,58.1075984 C115.274468,58.1075984 115.810413,58.7204369 116.060645,58.2734941 C116.011159,57.8255755 114.958876,57.5835628 114.633014,57.870465 C114.208179,57.870465 113.66103,57.4723151 113.343571,57.2371334 L113.268875,57.2371334 L113.268875,57.0790445 C113.833765,57.0790445 114.506964,57.1405235 115.01023,57 C116.106397,57.0351309 117.187624,57 118.341681,57 C118.835609,57 119.313665,57.0936823 119.780516,57 L119.780516,57.0790445 C119.893494,57.0790445 119.88229,57.1395476 119.908434,57.2429885 C120.072765,57.9026683 119.971925,58.7682539 119.941113,59.453306 C119.870152,60.9395371 119.802925,62.3964925 119.510676,63.7909929 C118.978466,66.3243192 118.332344,68.7259048 117.459332,71.0660112 C116.554574,73.4832105 115.194169,75.6857211 113.760936,77.8491973 C113.31556,78.5127805 112.823498,79.5452378 112.132559,79.9511946 C112.132559,80.2527346 111.096149,79.06414 110.996242,78.9226407 L110.996242,78.9226407 Z M111,81.1679938 L111,81.3344464 C110.980509,81.3344464 109.872903,82.8078603 109.763583,83 C109.568671,83 109.459352,82.6804521 109.394099,82.5098895 C108.963598,81.4166453 108.935633,80.2925764 109.074613,79 C109.839853,79.4459286 110.311878,80.5402004 111,81.1679938 Z M106.671899,63.2698611 L107.813875,62.3165288 C108.078767,62.2116435 108.338753,62.1039488 108.603644,62 L109,62 C109,62.6283752 108.728241,63.2623693 108.541836,63.8280006 C108.055221,65.2879663 107.390049,66.612143 106.614015,67.923209 L106.533567,67.923209 L106.533567,68 L106.453118,68 C106.384443,67.6179179 106.310862,67.2358358 106.240224,66.8528172 C106.117589,66.2038396 106.205886,65.1737162 105.134548,65.568909 C104.954029,65.6325894 104.826489,66.167317 104.581219,66.3649134 C104.249615,66.6261901 102.574912,67.0270017 102.078486,67.0888091 L102.078486,67.0120181 L102,67.0120181 C102,66.8275324 102.096146,66.6421102 102.189348,66.4997659 C102.470918,66.0605588 103.405886,66.0849071 103.871899,65.7515218 C104.804905,64.9264867 105.738893,64.0986421 106.671899,63.2698611 L106.671899,63.2698611 Z M87.0103862,12.2786258 C87.0200433,9.84748501 87.027769,7.41634423 87.0345289,4.98520345 C87.1079228,4.31825333 86.8877411,3.58480378 87.1668311,3 C96.6008436,3 105.520133,5.60423487 112.929054,9.66950125 C114.813152,10.7031762 116.612268,11.9099452 118.418144,13.1440963 C120.656658,14.6706493 122.765767,16.5072069 124.760922,18.4630724 C125.064155,18.760364 125.98351,19.4840342 125.999927,19.8957439 C126.022138,20.5147753 120.975342,25.1218164 120.296449,26 C119.999976,26 116.437475,22.3317743 116.360218,21.9406012 C116.360218,21.682427 116.358287,21.4222969 116.354424,21.1621668 C116.312899,20.2996301 116.330281,19.3979761 116.303241,18.5432629 C116.291653,18.2009864 116.329316,17.8117692 116.167076,17.5467494 C115.838735,17.0137761 115.322081,16.550236 114.859506,16.1111442 L113.397423,14.659892 C113.035282,14.3968281 112.457788,14.6100174 112.075367,14.4017178 C111.620518,14.0770441 111.166635,13.7494366 110.709854,13.424763 C110.363165,13.2409116 110.013578,13.0580382 109.663025,12.8751648 C109.417735,12.7333645 109.079737,12.5035503 108.778436,12.4879034 L108.703111,12.4879034 C108.678968,12.4908372 108.653859,12.4908372 108.629717,12.4927931 C108.116925,12.5446235 107.665939,12.7851949 107.194673,12.9514435 L102.829668,14.5797015 C102.829668,15.2046005 102.790074,15.8060292 102.829668,16.404524 L102.750479,16.404524 L102.750479,16.4837366 C102.297562,16.3184659 101.843679,16.1492836 101.390761,15.9810791 C100.091986,15.495384 98.7648284,15.0913807 97.4168679,14.7713763 C94.1382853,13.9997874 90.7476806,13.4697479 87.0876429,13.4697479 L87.0876429,13.3905353 C86.9582379,13.3885794 87.0103862,12.464433 87.0103862,12.2786258 L87.0103862,12.2786258 Z M87.13631,14 C88.0896342,14.0358972 89.0390433,14.0689604 89.9894312,14.1029682 C91.1551491,14.232387 92.3179306,14.3589718 93.4816908,14.4855566 C96.2199185,14.9123149 98.9119822,15.5798211 101.524263,16.4797395 C101.965689,16.6308855 102.948377,16.8481579 103.242987,17.2052404 C103.610027,17.6482872 103.764673,18.7686571 103.894849,19.3600159 L105.045886,23.812211 C105.168232,24.3053249 105.229895,24.8277234 105.474588,25.2603789 C105.474588,25.4691493 105.919929,25.2707701 106.013891,25.232039 L109.104854,23.9180132 C109.584453,23.7149108 110.133544,23.333267 110.712977,23.4220653 C110.712977,23.9935862 111.395182,24.4781982 111.262069,25.0884503 C111.120147,25.7138169 109.912342,26.2664446 109.853615,26.8776413 C109.815443,27.2366131 110.537777,28.2757421 110.83826,28.4986824 L115,30.7781534 L115,30.9311888 C114.897229,30.9311888 113.856794,31.9967683 113.652231,32.1573609 L113.652231,32.2338786 L113.491712,32.2338786 C113.491712,32.0449461 113.195144,31.6925869 113.096288,31.5442748 L113.096288,31.4677572 C112.851595,31.4677572 112.5286,32.686372 112.381784,32.9234823 L112.381784,33 L112.303482,33 L112.303482,32.9234823 C112.133176,32.9234823 111.954061,32.6145776 111.739709,32.5663998 C111.262069,32.4587083 110.600418,32.6457515 110.16095,32.456819 C109.641222,32.2338786 109.264394,31.7284841 108.81318,31.3846269 L106.454339,29.6747875 L105.6723,28.9020534 C105.32973,28.5912594 104.911794,28.1671059 104.716039,27.7750708 C104.369554,27.0807438 104.794341,25.9074728 104.310828,25.3009994 C103.999578,24.9080197 103.508234,24.66902 103.121619,24.3818426 L100.37029,22.3016954 C99.9455031,21.9729528 99.4120722,21.6810521 99.0450326,21.2795704 L98.8864715,21.2795704 C98.8864715,22.0910356 100.06785,25.4521454 99.7252794,25.940536 C99.5853149,26.1351365 98.557604,25.7232636 98.3931703,25.6609158 C96.0549609,24.7674891 93.6048277,24.1757464 91.1062104,23.9010093 L87.2185268,23.5779347 C86.9885153,23.5779347 87.0306026,22.9308407 87.0198361,22.7324616 C86.9581734,21.5960324 87.0599657,20.4652712 87.0599657,19.2872769 C87.0580082,17.5358723 86.9679611,15.6663849 87.13631,14 L87.13631,14 Z M87.0642648,27.7159757 C87.0496592,26.8500552 86.9133398,25.8038579 87.1499513,25 C91.0778968,25 94.6231743,25.8087835 97.9737098,26.9820613 C98.5920156,27.1968175 99.3748783,27.3889158 99.8948393,27.7780382 C100.225901,28.0272736 100.273612,28.4971758 100.602726,28.8094588 L102.64557,30.6565587 C103.339825,31.3156039 104.045764,32.0997594 104.840312,32.5883789 C104.840312,32.7184147 104.888023,32.6681736 104.998053,32.6681736 C104.998053,32.5115395 105.429406,32.2189589 105.556962,32.1165064 C105.810127,31.9116015 106.043817,31.5894673 106.408958,31.6318274 C106.728335,31.6672917 107.051607,31.9864706 107.300876,32.1677327 C108.146142,32.796105 108.951075,33.478198 109.710808,34.2098863 C110.140214,34.6295474 110.570594,35.0472382 111,35.4629588 L111,35.5427536 C110.950341,35.7555395 106.185005,40.6506004 105.823759,40.803294 C105.542356,40.9185531 105.228822,40.8239815 104.918208,40.8426988 C104.484907,40.8702822 103.843233,41.2672855 103.599805,40.6831094 C103.206426,39.752171 104.212269,39.390632 104.761441,39.0586466 L104.839338,39.0586466 C104.839338,38.7759172 104.416748,38.7138546 104.217137,38.7759172 C103.91334,38.8685185 103.65628,39.1138133 103.334956,39.1788312 C103.291139,39.1719354 103.243427,39.1610991 103.201558,39.1542032 C102.790652,39.0221972 102.439143,38.5000836 102.119766,38.2153839 C101.48296,37.6459846 100.366115,37.641059 99.4683544,37.7011513 L99.4683544,37.5415619 L99.5481986,37.5415619 C99.7955209,37.164261 100.12853,37.0893919 100.42259,36.8224244 C100.500487,36.7180016 100.576436,36.6106236 100.652386,36.5032455 L99.8442064,36.3909418 C99.6066212,36.45793 99.9318403,37.3189248 98.7604674,37.2243533 C98.375852,37.1928295 98.0340798,36.942609 97.7010711,36.7830196 L95.7312561,35.9121735 C93.0895813,34.9979822 90.248296,34.4069103 87.1499513,34.5064074 C87.1499513,34.1842732 87,33.9143503 87,33.5449303 C87.0009737,31.5865119 87.0934761,29.6566619 87.0642648,27.7159757 L87.0642648,27.7159757 Z M87.0359022,42.1428229 C87.0359022,40.5797917 87.0279028,39.0244224 87.0279028,37.472884 C87.0279028,36.6616784 86.9949053,35.8102478 87.0788989,35 C91.255584,35 95.1322917,35.6866994 98.3510489,37.4853346 L98.3510489,37.6414462 C98.165063,37.6414462 97.8120896,38.1097809 97.7030978,38.2620615 L97.621104,38.2620615 L97.621104,38.3396385 C98.0100746,38.3396385 98.5430345,37.9393032 99,37.8741769 L99,38.0293308 C98.9220059,38.0293308 98.1230661,38.8960852 98.0270734,39.0397462 C97.912082,39.0397462 98.3220511,39.5463905 98.4330428,39.6613193 C98.4330428,40.0836825 97.0831445,41.2808572 96.6871744,41.4427152 L95.7552447,41.6036155 C95.4952643,41.6036155 95.1552899,41.5787142 94.9443058,41.6811924 C94.2983545,41.6811924 93.9623799,41.9311625 93.4854158,42.2242308 L93.4854158,42.3018077 C93.2394344,42.3018077 92.9484563,42.183048 92.7554709,42.069077 L92.6734771,42.069077 L92.6734771,41.9139231 C92.7734695,41.9139231 93.257433,41.0548306 93.3214282,40.9035077 C93.4604177,40.9035077 93.1044446,39.6776009 93.0794464,39.4285885 L92.9174587,39.4285885 C92.9174587,39.5032922 92.1325179,40.2752305 92.024526,40.4380462 L91.944532,40.4380462 C91.9545313,40.4600742 91.9625307,40.4821022 91.9695301,40.5031725 C92.2955056,41.3019275 92.1515164,41.1314498 91.5375627,41.5250808 L91.0515994,41.6026577 C90.4346459,41.6026577 88.7707714,41.8966838 88.2948072,42.1456962 L88.1328195,42.1456962 C88.1328195,43.0268167 87.8128436,42.8620855 87.077899,43 L87.077899,42.9214653 C86.93191,42.9214653 87.0359022,42.2998923 87.0359022,42.1428229 L87.0359022,42.1428229 Z M88.3696044,44.8589826 C88.6768951,45.0061302 89.0384707,45.1213313 89.2963234,45.3643186 C89.6675927,45.711858 92.3411188,49.6277277 92.3294864,49.9133103 C92.3120377,50.2666582 91.7081193,50.4622097 91.4967964,50.7032608 L91.4192467,50.7032608 C91.4308791,50.7235904 91.4415422,50.7400477 91.4512359,50.7603773 C91.8321989,51.4206055 92.1705095,52.1118121 92.4942795,52.7943061 C92.6474402,53.1176437 92.9692715,53.4545343 92.9770264,53.8437011 C92.9809039,54.1244433 92.7172349,54.4400363 92.5185138,54.6297793 C92.5185138,55.259029 93.0545761,55.7721096 92.9954445,56.4245932 C92.9537615,56.8786211 92.6222365,57.2910217 92.4429028,57.6937416 C92.0338281,58.5940528 91.5326631,59.4846832 91.2612392,60.4392067 C91.2612392,60.5853862 91.0247125,60.7867462 90.9636422,60.9174365 C90.8647663,61.1158922 90.7474723,61.4469744 90.55069,61.5796009 C90.3742644,61.694802 90.0815142,61.682217 89.8440182,61.6880254 C88.9240848,61.7006104 88.188332,61.594122 87.6435453,62.3221156 C87.517527,62.3221156 87.5921686,62.5002417 87.5863524,62.6299639 C87.5601794,62.9145784 87.5301288,63.1962887 87.5029864,63.4809032 C87.3314077,64.1246741 86.812794,64.9843261 87.1714614,65.6997347 C87.1714614,65.8759246 87.3827844,65.9136796 87.4079881,66.0985822 C87.4962008,66.8072143 87.0880955,67.4674425 86.4647897,67.6620259 L86.4647897,67.739472 L86.3853013,67.739472 C86.3853013,67.4422725 86.1400503,67.3144864 86.029542,67.0908607 C85.867657,66.765587 85.7367918,66.007583 85.8356677,65.6193843 C85.8356677,65.4945025 85.7697505,65.5022471 85.6786296,65.4625559 L85.6786296,65.5419382 C85.5758762,65.5419382 85.5904168,65.5593636 85.5584275,65.6368097 C85.4896022,65.8488185 85.4178687,66.0588911 85.3490433,66.2699318 C85.07665,66.740417 84.7422168,66.5739078 84.6559428,67.2680187 C85.0194571,67.2680187 85.2143007,66.9388727 85.2850648,66.6407051 L85.3635839,66.6407051 C85.4198074,66.803342 85.4740922,66.9621065 85.5303158,67.1208711 C85.5894474,67.5332717 85.392665,68.0511926 85.2065457,68.3667856 L85.2065457,68.4461679 C84.8895613,68.3784025 84.5725769,68.3057968 84.2555924,68.2380314 C81.6363511,67.7123659 79.349604,65.8217123 78.0448302,63.5022009 C77.8654965,63.1827356 77.3982595,62.6599743 77.4506056,62.2553183 C77.4758092,62.0394372 77.7307539,61.9387573 77.9023326,61.8729281 C78.720482,61.5534628 79.6937309,61.3821133 80.5661651,61.214636 C81.3145198,61.0684564 82.0299158,60.7751292 82.8480652,60.7509273 C82.8480652,61.2388379 82.5679169,61.8225881 82.3769508,62.2427333 L82.3769508,62.4005298 C82.8480652,62.4005298 83.3870357,62.5970493 83.8339159,62.4566782 C84.1208498,62.3637429 84.5192614,61.4827932 84.6569122,61.2223806 C85.0456301,61.2223806 83.6255011,60.4692171 83.5566757,60.4372705 C83.5566757,60.0200295 84.6520653,58.748945 84.9147649,58.3297679 C85.1600159,57.9318884 85.2016989,57.5949978 85.2016989,57.0606195 C85.2016989,56.6685485 85.2414431,56.2242014 85.0543544,55.9279699 C84.8410927,55.5920474 84.364162,55.3509963 84.0491163,55.1399556 L81.9048669,53.6065224 L81.8263478,53.6065224 C81.4182425,54.1118583 81.0081984,54.6171943 80.597185,55.1225302 C79.7625562,56.2048398 78.92405,57.2842452 78.0894213,58.3665548 C77.6221843,59.001613 76.9465325,59.6056928 76.7158221,60.3588563 L76.5578146,60.3588563 L76.3222573,59.4963001 C76.0614964,59.5495443 75.7987968,59.6008524 75.5360972,59.6521604 C75.5360972,60.0597207 75.7638994,60.4740574 75.8918565,60.8419265 C76.2631257,61.9290765 76.7914331,62.9610461 77.3856577,63.9436438 C77.7123358,64.451884 78.039014,64.95722 78.3656921,65.4615879 L78.4442112,65.4615879 C78.4345175,65.4838536 78.422885,65.5032151 78.412222,65.5235448 C78.0710032,66.1479541 77.0143885,67.0037338 76.4589387,67.5613459 C75.2394695,68.7791862 74.019031,69.9931542 72.8005312,71.2090584 C72.217939,71.7821597 71.6363162,72.3513887 71.0537241,72.9206177 L71.0537241,73 C70.8210749,73 70.0707815,72.051285 69.9166515,71.8450847 C67.0347105,68.0085973 65,63.5854555 65,58.3171829 L65.0794885,58.3171829 L65.0794885,58.2387687 L67.4505708,59.0635699 C67.97597,59.2378237 68.6147858,59.1226226 69.1653887,59.2629937 C69.8361936,59.4324071 70.372256,60.0355188 70.9761744,60.354984 C71.204946,60.4750255 71.5122367,60.4353344 71.6886623,60.6541197 C71.9988611,61.037478 72.2295715,61.6212282 72.3914565,62.086873 C72.7850213,62.086873 73.8338811,61.9561826 74.1411718,61.7635354 C74.5143798,61.5253886 74.6859585,60.8632242 74.8749859,60.4992274 C75.1308999,60.0142211 75.3839059,59.5253424 75.6369118,59.0403361 C75.9907323,58.6889243 76.3426141,58.3355763 76.6964347,57.9851326 C76.9300532,57.7537623 77.1753041,57.4255844 77.4632074,57.3045748 C77.7918243,57.2513306 78.1194718,57.1942141 78.44615,57.1409699 C78.5178834,56.9289611 78.5867088,56.7169523 78.6574729,56.5030074 C78.8416535,55.8824703 79.1169549,55.3529325 79.2439426,54.7091615 C79.2807787,53.3228759 79.3147067,51.9365903 79.349604,50.5503047 C79.4581736,49.9539695 80.5147884,48.8406815 80.9316181,48.3227605 C81.2311538,47.9384341 81.5287508,47.5531396 81.8263478,47.1668771 C82.3342984,46.6053927 83.1446929,46.4534047 83.7815698,46.1320033 C84.2410519,45.8967607 84.6588509,45.3991693 85.0301201,45.0303321 C85.196852,44.8609187 85.4547048,44.6944096 85.5138364,44.4756243 C85.6272529,44.0341814 85.3422577,43.4136443 85.1154248,43.094179 C84.8304296,42.6924273 82.2460856,40.6168711 81.8728777,40.5239358 C81.4037019,40.4058304 79.9787261,41.66433 79.5173053,41.9421679 C78.9667024,42.2655055 78.2958974,42.3264943 77.6667754,42.4891312 C76.9668893,42.6653211 75.9616512,43.068041 75.2220209,43.0457752 C74.6772342,43.0264137 74.1334168,42.8424791 73.6400068,42.727278 C73.2716457,42.639183 72.8916521,42.6023961 72.5843614,42.4039404 L71.7633039,41.6749788 C71.7633039,41.2800036 72.7879294,40.5045742 73.0826183,40.2393213 C75.3422229,38.1860309 78.227072,36.6990653 81.1264617,35.8887852 C81.8331334,35.7145314 82.5388358,35.5383415 83.2464769,35.3611835 L85.2065457,35.001059 C85.5041427,35.0078356 85.9733185,34.9487829 86.123571,35.2227486 C86.3542814,35.6448299 86.2282631,36.5102904 86.2282631,37.0427325 C86.2232547,38.8998308 86.2167922,40.7569249 86.2088757,42.6140131 C86.1739783,43.0215733 85.9413292,43.2761774 85.9132174,43.7156842 C86.0906124,43.7156842 86.2428037,43.864768 86.3901481,43.9383418 L88.3696044,44.8589826 L88.3696044,44.8589826 Z M85.9574323,17.2789236 C85.9574323,19.3693749 85.9843129,21.6526581 85.9199913,23.7383126 L85.8422294,23.7383126 C85.8422294,23.858233 84.5788378,23.8064274 84.3618724,23.8946887 C83.9346618,23.8946887 83.4066486,23.8342489 83.0389594,23.9723971 C82.8584749,23.9992593 82.6770303,24.0232433 82.4936658,24.0501055 C82.2872606,24.0769676 82.0779754,24.1009517 81.8715702,24.1287732 C81.664205,24.154676 81.4549198,24.1796195 81.2485147,24.2064816 C81.0411495,24.2333438 80.8318643,24.2573278 80.6254591,24.2851494 C80.3700927,24.2851494 80.1195265,24.3235239 79.9246416,24.4405661 C79.2756654,24.4405661 78.4135639,24.6055765 77.899951,24.9068164 C76.8736854,24.9068164 75.4595701,25.5150523 74.5600276,25.8623416 C72.8444648,26.5214238 71.1653828,27.2092868 69.5746231,28.1043722 C68.1461074,28.9063994 66.8740757,29.8820713 65.5185218,30.8184092 C64.8781858,31.2577974 64.3012114,31.7393974 63.7031165,32.269925 C63.4400699,32.4982533 63.1501426,32.6978008 62.9504577,33 C62.7709332,33 62.6346098,32.9098199 62.5126867,32.8052494 C60.3766334,30.6658706 58.2377,28.5236137 56.0987665,26.3842349 C56.0430851,26.3036484 55.9845237,26.2192245 56.0037242,26.1069791 C56.0910863,25.5793296 59.2274847,23.2595906 59.7871787,22.8441866 C64.8935462,19.0144107 70.7112915,16.3665697 77.0474497,14.9735751 C78.610225,14.6245779 80.1956088,14.385748 81.7918882,14.2588499 C82.5973484,14.1792228 83.3999284,14.0967176 84.2053885,14.0161311 C84.6556398,14.0861646 85.5484621,13.835771 85.8499096,14.2223941 C86.105276,14.5466587 85.9574323,16.7320869 85.9574323,17.2789236 L85.9574323,17.2789236 Z M54.7581217,12.9869454 C59.0165847,9.84897611 63.8321309,7.59018771 68.8160529,5.89756826 C70.7518928,5.23916382 72.7762503,4.57879693 74.8419801,4.20102389 C76.528624,3.8899744 78.2460566,3.53182594 79.9913914,3.3355802 L83.4252944,3 L86,3 L86,13.4245734 L85.9220661,13.4245734 C85.9220661,13.5864761 84.475959,13.4795222 84.2055957,13.5835324 C83.9015572,13.5835324 83.5234334,13.5462457 83.2694265,13.6630119 C82.8518547,13.6630119 82.2889987,13.5835324 81.9426257,13.7434727 L81.3961261,13.8229522 C81.1623244,13.8504266 80.9285227,13.8749573 80.6947209,13.903413 C80.4878593,13.9308874 80.2771491,13.9554181 80.0702875,13.9828925 L79.3688822,14.062372 C78.9926827,14.062372 78.4875555,14.1271331 78.1979492,14.3017918 C77.5446513,14.3017918 76.9173314,14.5078498 76.3333081,14.6520904 C75.5578176,14.8385239 74.7948349,15.0102389 74.055906,15.2319966 C68.2820612,16.9550341 62.9334855,19.6210324 58.2305105,23.4605802 C57.4521335,24.0924915 56.6939616,24.7116468 55.9357897,25.4181314 C55.7356631,25.6114334 55.5364987,25.806698 55.3354099,26 C54.7946833,26 53.6506904,24.5634812 53.2456264,24.150384 C51.4974052,22.378285 49.7491839,20.6091297 48.0000005,18.8380119 C47.9980762,17.9313567 53.8479305,13.6561433 54.7581217,12.9869454 L54.7581217,12.9869454 Z M31.5129011,50.4090642 L31.9204717,48.3550708 C32.3134167,45.9681019 32.9540241,43.7137424 33.7145627,41.5106844 C35.8401704,35.3361206 38.6200362,30.0027068 42.5836121,24.7602805 C44.121265,22.7217742 45.9514327,20.9329995 47.6840955,19 C48.5314135,19.601098 49.1993223,20.4083697 49.9452351,21.1488527 L53.1424221,24.3353497 C53.7089258,24.8967617 54.601096,25.5133469 54.9589391,26.2218875 C55.1773502,26.2218875 54.4577638,26.9381718 54.364159,27.053358 C53.5655935,28.0077584 52.6090701,28.816966 51.8339058,29.7839497 C50.6852976,31.2097426 49.7004977,32.6907086 48.6591449,34.1678029 C48.0604646,35.0089529 47.6207173,35.9236673 47.0922405,36.7948238 C44.6312158,40.8282785 43.0594362,45.7512807 42.1721412,50.5600647 C41.907397,51.9875789 41.7186256,53.4279529 41.6066126,54.8751933 C41.556885,55.5004901 41.5988122,56.2458129 41.437929,56.8372314 C41.437929,57.0559885 40.6257129,56.9891998 40.4102269,56.9940396 L31.0000251,56.9940396 C30.998075,54.7880777 31.1092306,52.5162951 31.5129011,50.4090642 L31.5129011,50.4090642 Z M39.2296943,89.0693458 C37.5604632,86.4857886 35.9721114,83.8689014 34.7248167,81.0682227 C31.6747914,74.2307954 29.7561014,66.5105972 30.0250493,58.1552229 L30.1039797,58.1552229 C30.1039797,58.0514235 30.0766951,58.0771353 30.18291,58.0771353 C30.9137468,58.0771353 31.9067103,58.2104556 32.5547188,58 C33.3693582,58.1523661 34.3574494,58.0771353 35.2412746,58.0771353 L40.5364304,58.0771353 C40.5364304,59.73983 40.5783317,61.3358646 40.7069589,62.9395175 C40.7605536,63.6232602 41.0947896,64.5469795 40.8579985,65.2354836 C40.7020867,65.6782975 39.3836572,66.185867 38.9607464,66.4296527 C37.4815328,67.2781412 37.3480333,68.1161546 36.8666555,69.5731551 C36.7409516,69.9454997 36.4690803,70.4883038 36.505135,70.9044536 C36.6386345,71.7281827 36.7692106,72.5490549 36.9007612,73.3689748 L36.9796916,73.3689748 L36.9796916,73.4451578 C37.3626501,73.4451578 37.8294111,72.7290373 38.4735219,72.8071249 C39.0893736,73.0080577 39.7013276,73.2051813 40.3132815,73.4042094 C40.876513,73.6146651 41.5683718,73.7184645 42.0721619,74.0479561 L42.9433193,75.0373832 L43.7881666,75.810641 L44.8425204,78.0589928 C45.2420444,78.8293937 45.6405941,79.5988424 46.0381693,80.3692433 C46.8995821,81.9709916 47.9792716,83.4937 49.0268043,85.0059332 C49.7654103,86.0652134 50.5798108,87.0720755 51.4639011,88.0189722 L52.8963411,89.6150068 C52.9735876,89.7113833 53.0098808,89.8331333 52.9976838,89.9549736 C52.9362935,90.3730279 51.5554993,91.5100597 51.1969021,91.818601 C49.4370473,93.5460513 47.6732946,95.2725493 45.909542,96.9999996 C44.9175529,97.0019042 39.8816006,90.0797233 39.2296943,89.0693458 L39.2296943,89.0693458 Z M85.8203579,113.83814 C85.6651564,114.075932 84.9729389,113.980619 84.6834835,113.983567 C81.3747409,114.03761 78.2012045,113.512896 75.1828695,112.952808 C72.880556,112.524389 70.6696494,111.764831 68.5177766,111.081917 C66.654407,110.490385 64.8929181,109.686609 63.1342858,108.890694 C58.4966721,106.778924 54.1854577,103.97431 50.3392116,100.566998 C49.5279745,99.8103871 48.7157854,99.0567246 47.9045483,98.3020794 C47.5665329,97.9542352 47.2266132,97.6633823 47,97.252651 C47.103785,97.252651 47.0866462,97.234964 47.1571058,97.1779725 C49.4994099,94.7862976 51.8407618,92.3936401 54.1811616,90 C55.0352456,90.4411923 55.7950662,91.3668117 56.5215614,92.0497263 C57.5791556,93.0449198 58.7074376,93.9570372 59.8969549,94.7784368 C61.9726553,96.2061704 64.0112216,97.6555214 66.2535493,98.7246021 C68.2476266,99.6670025 70.2804986,100.519405 72.3463964,101.27939 C75.01529,102.267897 78.2916593,102.910524 81.2842861,103.210221 C82.0831451,103.26623 82.8800997,103.323221 83.6789587,103.381195 C84.1617019,103.396917 85.5061464,103.316343 85.8222622,103.586561 C85.9860331,103.725109 85.9469947,103.985501 85.9717507,104.200693 C85.9812723,104.861007 85.9879374,105.519356 85.9955546,106.177706 L85.9565162,110.637777 C85.9574684,111.298091 86.1164785,113.368452 85.8203579,113.83814 L85.8203579,113.83814 Z M85.8848995,102.844924 C85.8848995,103.058843 85.1487145,102.992054 84.9601445,102.983342 C84.2220549,102.937848 83.511584,102.973662 82.7953989,102.903969 C80.8087472,102.711345 78.8782856,102.491618 77.0068711,102.112177 C71.5926261,101.011605 66.5879019,98.8036862 62.0660312,95.8223662 C60.4727098,94.7711605 58.8898646,93.6599412 57.4336851,92.3531938 C56.8308325,91.8121035 55.3413199,90.732827 55.0298937,90.0300872 C54.9356086,89.8219756 55.0832266,89.6370951 55.2108447,89.4909329 C56.2346465,88.3032447 57.4298756,87.2907575 58.5232007,86.1824421 L60.5146143,84.2290966 C60.8355642,84.0267928 61.3374652,84.1061656 61.708891,84.0064656 C62.1050785,84.0306646 62.5898367,83.9367724 62.942215,84.0916462 C63.403164,84.2920141 63.8498273,84.7779306 64.2183959,85.1447878 C64.5231555,85.3829062 64.8269628,85.6171528 65.13077,85.8552712 C66.539086,86.9348809 68.0092858,87.9284699 69.533594,88.8307835 C74.102131,91.5188113 79.9773249,93.1111073 85.8829947,93.1111073 L85.8829947,93.1904801 C86.0115652,93.1904801 85.9610894,94.0238946 85.9610894,94.211679 L85.9610894,100.412438 C85.9629941,101.083235 86.0858504,102.28157 85.8848995,102.844924 L85.8848995,102.844924 Z M124.839048,97.8355136 C123.83283,98.8656537 122.796191,99.8644104 121.730561,100.830405 C116.878568,105.196979 110.994237,108.401474 105.075495,110.627169 C103.352062,111.272553 101.545469,111.897463 99.734097,112.301071 C98.7275667,112.546746 97.7229481,112.792421 96.7173736,113.036146 C96.4258335,113.036146 96.0979703,113.074167 95.8656941,113.194079 C95.6859906,113.222351 95.5034196,113.247699 95.3227603,113.274021 C95.0407789,113.274021 94.6918866,113.315942 94.469169,113.431955 L93.8497658,113.509947 C93.6423421,113.538219 93.4349185,113.563566 93.2284507,113.589889 L92.6109592,113.66788 C92.3777271,113.696153 92.144495,113.7215 91.9131746,113.747822 C91.6273697,113.747822 91.2918596,113.7176 91.0595833,113.827764 C90.7661315,113.827764 90.3627546,113.785843 90.1295225,113.905756 C89.8102622,113.905756 89.3753417,113.854086 89.1210804,113.985698 C88.7329975,113.985698 87.3641927,114.067589 87.1749306,113.839463 C86.8604496,113.460227 87.0659615,110.105598 87.0659615,109.396846 C87.0659615,107.462646 86.9837567,105.455328 87.1051521,103.547449 L87.1825775,103.547449 C87.1825775,103.411938 88.1460938,103.467508 88.3458704,103.463608 C91.3702408,103.415838 94.3726263,102.894267 97.1150152,102.159193 C100.486366,101.252536 103.592941,100.015389 106.642164,98.4896711 C107.539726,98.0402425 108.488904,97.5683912 109.325289,97.017573 C110.434098,96.280549 111.580185,95.5211023 112.676567,94.7519067 C113.171707,94.3658465 113.665892,93.972962 114.161032,93.5869019 C114.937198,93.0214602 115.669394,92.3419553 116.393943,91.6712245 C117.301063,90.8279364 118.283696,89.978799 119.044568,89 C119.780588,89.1813313 121.222994,91.0736111 121.812766,91.7150949 C123.095542,93.1131007 124.474862,94.4262903 125.720359,95.8701163 C125.865651,96.037799 126.031973,96.2298542 125.994694,96.4872277 C125.931606,96.8801122 125.128676,97.5391442 124.839048,97.8355136 L124.839048,97.8355136 Z M141.996478,59.0878682 C141.884014,60.3017001 141.975941,61.526029 141.862499,62.7179127 C141.662534,64.7410173 141.379681,66.7555033 141.014619,68.7565355 C139.639625,76.3143567 136.678401,83.2528565 132.421398,89.4079004 C131.335488,90.9827425 130.162157,92.4984771 128.906656,93.9483187 C128.314998,94.6344391 127.722362,95.3167424 127.130704,96 C127.082785,95.9904573 127.032909,95.9780518 126.985968,95.9666005 C126.739525,95.8301399 126.569362,95.6049321 126.382575,95.4016725 C125.931741,94.9398056 125.480907,94.475076 125.028118,94.0132091 C123.969979,92.9358379 122.909884,91.8546496 121.847834,90.7753698 C121.25422,90.2314357 120.679187,89.6884558 120.178478,89.0777228 C120.073838,88.9508049 119.983867,88.8372467 120.002448,88.6597524 C120.046455,88.231285 121.07819,87.2808317 121.393089,86.9134376 C122.024842,86.0860852 122.653662,85.2587328 123.284438,84.4304262 C124.789499,82.2537355 126.142,80.0054745 127.236322,77.6197986 C128.615228,74.6119384 129.765294,71.4638005 130.448879,68.133397 C130.713902,66.8289094 130.882109,65.4852967 131.132464,64.1674493 C131.371083,62.9049496 131.390642,61.5775596 131.413134,60.2444439 C131.420958,59.7195952 131.329031,58.5467969 131.49137,58.1555461 C131.49137,58.0534391 132.287419,58.0410336 132.444869,58 L138.785877,58.0362623 C139.349175,58.0076342 139.96626,58 140.539337,58.0343537 C140.950074,58.0582105 141.425357,57.9303383 141.803822,58.0772959 C141.968117,58.0772959 142.014081,58.8846086 141.996478,59.0878682 L141.996478,59.0878682 Z" id="Shape"></path>
            </g>
        </g>
    </g>
</svg>